<mxfile host="65bd71144e">
    <diagram id="JUna8acDiAplYeFRhf3v" name="Page-1">
        <mxGraphModel dx="1306" dy="634" grid="1" gridSize="10" guides="1" tooltips="1" connect="1" arrows="1" fold="1" page="1" pageScale="1" pageWidth="850" pageHeight="1100" math="0" shadow="0">
            <root>
                <mxCell id="0"/>
                <mxCell id="1" parent="0"/>
                <mxCell id="24" value="" style="edgeStyle=none;html=1;" edge="1" parent="1" source="2" target="23">
                    <mxGeometry relative="1" as="geometry"/>
                </mxCell>
                <mxCell id="2" value="&lt;span data-metadata=&quot;&lt;!--(figmeta)eyJmaWxlS2V5IjoicjJjWFR0Z3hsOFhHTE4wdmFkOGVudSIsInBhc3RlSUQiOjE3MjUwMTk3NTEsImRhdGFUeXBlIjoic2NlbmUifQo=(/figmeta)--&gt;&quot;&gt;&lt;/span&gt;&lt;span data-buffer=&quot;&lt;!--(figma)ZmlnLWtpd2kZAAAAdzcAALV9eZwsSV1nRGZVH6/fNffBcN+nczEMN1lVWV35uq7JzOqeNztSU92V3V286qqisqrf9HghIiIiIiIiIiIiIioiIiIiIiIiIuKIiIosIrqu67q7Luu6ruvu9xsReVS/N+z+s3yYF7/4xS9/cfyO+MUvsrK/JhtRHPf2ovBoEglx9lzLa3aD0PFDgf81WxW3W645zXU3QFV2AtfP1S1F7TYrgO3AW286dUCFIDxfdwEUFdANXPJaUrSKczfY8Npd3623HD653GyFXvV8N6i1OvVKt9Ne950Kn18xYLfSarK+mtR9t+q7QQ2oE0HZbbpdoNu17l0d1z8P5Foe6bvtOpEnK161ivJUue65zbBb8tF72Qk4ttO5sZ1rdXzMw+XIzjj3D2JM827Agkyks7OD5QLKd51Kt9VUrIWqbPleyFHK5rgftfd7cQSyMppCxQtEjdamAuXWYNQfjPb8+ZA0zVbzHtdvoUG0KqqdHLQ8HoVGFyhRaZU7DYwboCw7zU0nAGSt+61OG4Bd9Z0G6QqlVqvuOs1uq+36Tui1mkAWN91y2PIBLXGOKJfrnmK74tbrXjsguOqDCIJVkjvhu+uduuN32636+XXFZA1dNStuBQua0Z0M3bs5pFNB3SsTcTo43yi1qAVnvCY6ayrs2SD0yhtcqiuCmtN2u1teWOuaZ68st5pN8FQDvKpMjSvVW+UN1K7e8irrSnuuAa8GZ3ptw614DoDrat56rY7/2Hx9AAZ6sjcYsIvF9usOO71xywlqXjdEz6g9bNPxPaekxn9TaICHK6Bbxnqg9oiExOjuI4P93iTaGsz2w+j+mZbMyeCujuO7aBV4yCyixNgaLWUPVggWXCYoNKp2Wq20tjjOwuXWs9h2fKdeh2VAeRtd30xvaRFdd6vELrvN9W7Fwcgd1fkK67CBDiurrFQ9xfWEglv1isslXisNo1G/ARXDcredIOiGNYxlneYkmi2/oYxYVhx/w+VArUanHnraiGzqDdSiBBtBtVBu1VtpraikoZ5ZCqD4ClKahicqLUgS9RX9SFJdzaR0ImhVw67igdpazfEraU0Zr+u7Wp1OuXeX650AQkbldE3N90zghJ1U48+qXgBcUe80vGYr8EJ2cWW7NxgZ+a0ErbpHQQmsacWDaaE3DhUYmaJYqvWAqQEkCrKiaQBnpzgQGbEXvIajZlaEuZ/zACxtehWX1r3sHcDPBju9YaRXH47Sd8OyWviqx3lKSEz1FmrJ2e7ubrRjRlzwYCc+3KQDFUKjqPitdlaV1RasFpJsVmBAHQ7QKjnljUWUTQ0uK+e01IJ+efB1QItOGw4Dpay3thSAIYR6DAE0ot4tO226nEJWg0r5ZeXQimRaiXbG095sMB7hmcRtoWfIF+sKWGK63oabaZtVj3r0g+F0cIBa8gx4d2uukbxszg+2o2lnNJjF4Os7nKpoe3e79QCAxKjh7ElplcejeDbNJLwMyQMv2K6mJBsOPbmFcZhlt4MyXD2AQhUcK139RNFUFPVSMJuOL0TOcLA3wgMpMwH/BsECkK1OaEBLE5d7E2hkMh9MV6mGTD2G5fh+a0vpGydh66p7V8erY7eAqQNZMDpFI9a7URHLB+WDC0lRS3knuJy5ue4tqK/k6reivpqr34b6iVz9dtTXcvVnon4yV78D9VNlzy/nez+tZ3tuPODKNLD9+cCKkrvpcgYymbhVGo+HUW/UmkSJghQ6TW2pWEY8Rp8NWAadUug7CrbuVgas9FUtfm08HTwwHs16QzxuXGBOttBltQrWuQ52m6qnRpg9vRlNZwOYHnGtNppyj5ZaYdhqALIa43kclefTeDzF+lTcqgPfhwZR9lsBLM3zAUv3vEvTg+qhZiEaUl21HUwFvrAMFUe90Fb+r4ii7NUBLTXoUfnIMkSMQArQSio/VV3dhLGPp43BdMoBpFakpI5SKgAeCJ4RPj2kCluVXryv/YlVxj4ElMgUXCqfo+2h0G6uAyXOtV2WMthkYbUrDIts9/7JeDo7bkM2Nme4dIRsxlBEgsDWrPqXCSI1WaveOxrPZ+vTQV8zKWizyq14NkBLW5mdPdPuzWbRdIQmUHltZSHw0cpXSyXP+WzsR/HgAbBOl0gNR61MOg6ZQhYfC6fz0Y5RP6viBdzfyVMgfvXUyshgdjSMgsjMHaLzg5bxj6HrUENkGdqldQUhKDbbZpkbix26jXbLd1T4WUjYYDFnUbqSl+w3AGWyW8Bx9HYuaDGmc6rBQd+D1VUjkNgoEUUpWFMrvUZ3l6yuXlKrBCWjiwFsqwfK4zkGNDXPLT3Uc1h2Ixzb6YTcuQo5VkXF6tw8ng12j9D0kFzaTtntwhXoGFmPINBCU/4VSMTEgXeP2w1bcCpqPRYQ0DHI1Gu0EVyixhbQ6Mm3x/GAssT2AZQZp3BKWOWODsMV2daUrhhbC8Jzpw20MKWEcEawNrDQ8llJVh1W7PIE0OXhB3XZ8dWal7CXorTL9ZYKtwqIDbtJoIh6sdNGMOZ2VYDa9TvN0FMh+RIMpOIxMFGyW/Yog16u59MIVmG5irtwqui9y0exq6AuGy0curpqkS0N6wYbT9UYPQEu6AbEASQr6poKO5dA1cai0ohwzlIzXKn4zjrKVbRtuOeTx06gutnSYfwaYD2PmpLLybQOY0H9VDjtjbQA9BxuxG6IKDbswn1jX+RsQSZgZhDIpgtQVnFyQ2nhqIAQv+q30kDWzqESN17I4bTDLuYwqcdeaneCmsYZZssZJuG1kqE0q9UMkXI6wdOZxhlOaxkm4XQyQ2lOpzJEyum0HijEBKKE2ZkFZMLv7AJWs7xiAZdyvVL1ZLCG6VV5XMLz6jxSs7wmj0o5Xgvf45W7bEPtOgR2OP46TbgkZUDXI4ZvIdTLMDe4vRj2piV+GifmcqfkldEgyDqpSMTbuapFv6HDZTxBI0qbCqRbwBT1swu4Je1y0/py0Pa1v15Zh9PBfpgiVg1pijihIWUCsFat/2uLyHCLruPkMWQN5xegTwU70/FwWBlMta/AoI0VfR3vjBVW3lM/C0czo71HfXikWYR29+42NirtAcvgwIhH1eR6B1uEtGLkGNAZ4GUhh2OELQq0yuMh4gJZmIpVIffwj7WNf+we/ino0AEP34+aPMI/lg8UqDPERfxj7+OfguIUzMYTPLBDWLxYyInxqSCwGr3ZdHC/kEsHN9+Mujy4+RYU1sHNt6KwD24hsnBwC5HFg1uIXGr3ptjtvFE/wnPW3nzQF/fmmK4JS8fyaDzsDecRnpFzFdffJKwqVqnZO4iEtHd7B4PhEehlzI0UgAUms3hnOpjMULNJu9mbDnp4ZH4QTQc71cHefIqlxdZpzq8Cagd5ApA4+KpEFGDVzeKjwaS3A6VeeLaN6K4FeRqXLXHENke+yzCoUricYJ4DXCXSJgpGsAN1VvLNP13uTWIoc/YI7E+d/SSKblKx2i7OYRy6DUQ3rTF+RvKKYBEoTHYd4FKOfztZ9/ywEF/jX4TZCG0AqPEEapEhnJTKg04rU5OI2JWDr0a9mVrgv5JtHM/QJMq3thWJGYVVbgfE2xwNSjVAlEWT2loKvCbjzOWWX2miXHGqPttXK03ljE40Ow0OaQ3RMNM7J7EjckqnKro8zTAZ5RmcJlmedRwVmV9R1uWVOJqwvCrQ9av9TZWUuIaGifLaYEslDK8rB1ssr4dwiL+hXFZ5pRsDHfI8rOaplOBNJtp4eMtvcnyP4KKgfCT2N4ryUZVQHUAfXa07nMdjGus+N/DHBtA1lI9DqM/+H19FZIryCTVdPrGm+31SqOtPvkuXT2nr8qk8vqB8Wr1aYv3prbYqn+GHqvyGtn7+5vZGk+t0Sx3uA+WtKDnO2/ywzvrtKFl/plPyN1He4ZQ2WX8WSo77zk3N59mbGBDK55TqW5TPc1GS7nkoSfd8Z6PGebygfE4dy15YripDeFG5repOueOTroStnvUynBvLSlXzd6vIMKCsorwV5TrK21DW0C3781CS/7mang96W+d46rXWOeoNwksVgTQ9BBIoW+faz7oTZftc+07yuetc+9k3o/TPtW++HWVQP9fgcyFSiKTvYFejXDYZvqDcQslx3N3YaBB/vllXgdc9zc5GiPLfYAPguO5FGaD8xk0sOMoXt4OQ+C5K4u/zN3zWe367xnLb75Qo950A4SrKfqjHEYVNdXDYhZgov71N5KlQ7m/q9sGmnvdLNjeUvlzY9EMf5RDlrSgPggCeV4gRStbHKG9DOUF5O8qXonwmyinKO1DGKJ+FcoaS6zRH+WyUh0EAny3ERZTkdz9K8jtCSX4PoCS/b0JJft+Mkvy+BSX5fStK8vs2lOT3MhkEt5Lht8vyphrhywmQ5XcQIM9XECDT7yRArq8kQLbfRYB8X0WAjL+bADm/GoAa6vcQIOfXECDn7yVAzq8lQM7fR4CcX0eAnL+fADm/ngA5/wABcn4DADXmHyRAzm8kQM4/RICc30SAnH+YADm/mQA5/wgBcn4LAXL+UQLk/FYAt5HzjxEg57cRIOcfJ0DObydAzj9BgJzfQYCcf5IAOb+TADn/FAFyfheA28n5pwmQ87sJkPPPECDnnyVAzj9HgJzfQ4Ccf54AOb+XADn/AgFyfh+AZ5LzLxIg5/cTIOdfIkDOHyBAzr9MgJw/SICcf4UAOX+IADn/KgFy/jCAO8j51wiQ80cIkPOvEyDnjxIg598gQM4fI0DOv0mAnD9OgJx/iwA5fwLAs8j5twmQ8ycJkPPvECDnTxEg598lQM6fJkDOv0eAnD9DgJx/nwA5fxbAneT8BwTI+UEC5PyHBMj5cwTI+Y8IkPPnCZDzHxMg5y8QIOc/IUDOfwpAuag/I0DOXyRAzn9OgJy/RICc/y0Bcv4yAXL+CwLk/BUC5PyXBMj5q/J40gah1QzbtbhdyCTEshhTNnqTCYMcae1OxwcMy2Zj/GuVhuNtIeX20SyKhS11tkhYNm6v9lkfMSJD/NXvzXqKdlnYm4N+NBaWldDEt3WmQxJVB0OcbMuMJp3+S5AgEHJlxkEhzov3e/3xxRigtT/Y20cGYh9xHyLJfjTrDYaAChHmEjPIQER5iAxFhDQQ4KVZdKDyhrpp+XCwjbPnDuEVlc7X3ZpbTGGd+P/b5Q4ipmkPc1sVq9tT8hyhZ9ROqMEI6xolgLNC7nAhEFZbY0aYMwbg9uEgHmwj2pKigMLcwpwWxRiReCz6cgm8R/HueHogdsXyQEnj5VKsKCjcR/g84tCBWu2NgMShwmMTMWc1BiEfIlKIbVlcgXr+wuFKcWI6xhkEJBjMWswGACd31QqWOV4juFdKcWrC+VRVE7y0OB0djF8yKINPG/lerOSyPHOoVOEVUlyJ3OzeYIRzCnvcGvRn++j/qgVsLeJqAX31DntCmCoetMU1DEEbkEgFKias4oXoSAyF3AW2PhglD0GGxFQGexFGZ+OMgJoOXO8XBVa2NGERyXvUwHyg52nZPdzhhr09dCwJNrk20NbEPlSKWHd+dme/x2A+msagkGlNdeRVOGUrJtw6jKbIVEZhD1IUr7CkPVTpS5Xeug+yxf3KEKOPseXI4t7waLIfY6+RS/30jiTGTiOXt3G4u/DS+Zjm92Ypz2o2mxgASDDilV1MJl2d10i5utsbDreR2KqiIRZDeWIf6jZFZxdK4/vB5fVSrqEG6EuWPDlLc544e07N2awoThl81E/X9/RwvMf8uCIJx+Vk7q3d3TiawX+IVXmmlutLWIVt5BP7sYAHmWsPYM589n5Ch5C2iOyhWQ5hLcPe9KnkPiEvKjWBaNl2HoBNIB1RgTUn3sGZErXl3cE0nqXDwtoUYT/5+tI611lYSzvjg4MeBlbSDis7gd4ntPgwKvixXaygEhi6upR5r39oTH6pkgoNXm+KMzWmDLeXcqIXNVKEuh2ai4YS9Bsro9CN3hRLZhYrPwZ9aFfC5ZOsNKPZxTHIzeBH8AW9IYbZV2NNpnCpBtLNI3WOBZAUQyzulTI4OtgeDw37WFXQL7y/hhMmMRlYOIrT8QQYe1TFOsB5QSQJW2iA2kEsS4lYToBD2INjIzzCejSiu8QKmb7Gec5yHkdVyHKdWxTmcTRSB26JbWWwu9saDY98+BbYo6K2KzhUH9KvHcxnnJ3yZpqvtcgXFWMnlhNDS/1oFzT0ILDepBFqCd2foffxfOL1QcDl4RR6yTPvkqTBqnoP3awWzHvIduVwMFgs7/+FIohmD00UQAW5QuwMuAgJFeigtbo7GEYbel6xagQLbN9mjrUedmLkRciyDbkYWcUIOWUh2duLwwF2sekRBRqOg/k28ynbICNCfKuk2UzGI1ib7mh5Ptod8iqGKfY8x5VB3Emaoj7EuKpHXU6eb/RiGJGWmL2TYDVXOZlvDwfxPpixX442HIdR76CejY6dWMc7sT3EOLTIFiZNFQhmnHWmamTV2g0uYqRQHkNMDcVGvDCERSW6PN/NW/+fOMPue8MgJ5DkEc1aX94La0WFBFdzJNj4VEigvCqs2Z7iBnzO+KGQxQZFFGlssBRPplGvD4rleH98EWuNqKYUYQX7ND2Qr4QMGpSL80a7DM1Uf6GQ/bm2SjxstbH1j9lQiQ4HO8mVYJLM5GlXXVvKMvIPKiNjKRzym8yDoQ7D5IN+EkHA9M3D5fJWV0W48lgn2CNYQbAPvTXuC7PB1L0+5DHYHcDZQnHxlOb5MQRGLawh9sG28dohGYiV9H5JIKWd5L8l4bTFYi3JgttIwmIeCWXBVFPiokEk9LidbXbUSX/ZDKCEXXYPTmMEmUOf4RExGvSSzpr3QEgp67sbZtfNSwDyEgZ6DumTyGR4lW7yisql5A4UDVsRtcyytlO04vIpLGWGKicK1ewhflVrqKhEselsIpGmcoUCCX7zjo0MtlT2zmLJF94UgW0y/eoOreAiKJ7OAsTCMNIYziee7+4iFQzjHTCOUx3APhAJJ6eObxZ2fLhHi1fRFYSIKk4d1M8Hoc+oteYz7ucMttAOZ4M1RQRD74/6Miiq4+kOrI9vFMCDXIiBXsHO4WzH4+F8Fpn9E+7GDHBz3fQgLK/abbquyag79S3nfABA1lU0xTtlzGLGYd8Bf4sYUFjwnam52aP5QQBDxeLFAuGKMU6cCWKNDai6CAT25nBHU1Nb3jFrvzKhl8KF9Z1idR0eGEJTMSc6kSmrxN3bbTgTEFyE+WJ51RuAKwKOYSFk0Xs8XApChIBgyMEzWawViG9goEBm2W9tEGOZd+lst1rVr1IUkIdr+YSK5u58Ca4Dblrxy+0tui/tGpNN02woyXZEAogEk6SIMfqYGPNIDFkktoq6lW1V5v4DvgrKiaUCQukZZYMp4Aq4u1VzYT81r17ptqpd3YxUNi7U9OuMmCFs67xp4YOWM91JR4GQFovojPawijjxwWnmqtYAF7xTP/GvtvbTdUSleHY+HWCEsj+IJ8PekdLaNcYjqqqUFONvD+c4vpjeJqqClcRjiFVwdsADF/RE26rNj4Y9hNX7+oHCRCH1Awc4I8J0AMJslKgB2oO4Eg0jROFQwkJjPpwN2Hs0rQ6iYX9TiwIC2oHmY+2hDDJ/MYTbIEyQcVqjx6MrJJzoh7kOp3tEYRkfaGuXB6iQeL1iysMd9Sc812GmkQG5vaAnxCiTRL734QZId/Z3sJv0YQCw22GbT2HAOXJtbngMJJqWixsAYjuumbxKBTd4uJaEM1LqioxvgtJ3zclNvX60MdCDQzcxkOTyD3CJmaGl1JA03AkUFd249VJrS7sH2IxjZi9N0NEYH0Zm5xwP+xtKpghwofDVVJmtHG1tgPP69MhDmgCPxOM5HJdarD4XS9fLx4KOrUF/L4KhYOgQpYW4PqF3+wMczNi7PRtAUWa9g4kXj++8A1lVjAMucApCsBhiRCSO+g6P0TZhLIpyDVbF5fvXmJTYwpW9W2o5PqcrYbcXNInt1Ns1ppp5WwsrcwFJ9XqkeUtXhfI4BI2gqNbnE4+lThP6/PzMyX4vjsSSsBSgkXdM4COSaz8khHJVTfCsGbs/IVQooFF3jnrK4IosNerZg7itQ0MGyTCI90iEUQhRJ0rGa+Ij1jCTgFqvf5LiZXmkEYv4Zyl/2Fjmr2vvBi1eFrcYUPcXDeJgvDszBhiwCZ2+VyJBMB51Jn2cGMxAfgE46MEwoflR1PU2lWB+XMaEQswP2T7kd1W1sjD8X098K+CfkZjlZRzrlyRSubmmzEt/USK3e8zTfhQObh9nJeZo9OAwzXsRlxp0boyq4e1JA80oQ/9UgjbbatrwrrRBhbFZw08nDdxZM/S7E3RuPNjT9TDQ/isyVsg+kCTBXMWnjXyI04RJy+/lWjhg4j6Tw+lBEfv7OSxHRNxnc2FTuwebi3GtIH9DXnaEpZQUo/yYki6kvw7MBML9Cww7qSK8RWJjdrRJ/9+a9iFR8aeW/PtEaGqHyaT2fikeADeFXVTubwKUPpA/XH1zvmET/LWsv1WjU6eSU5oPSGSSYkW/qHGvk/PkBAXu+U7egfQaXFTnIZq/mhzSsEy00s8ndSXmP2awokexoWzsC1ix8q2Y1J8kdFG6ea3BHnQSsLz40L9kXLiolWg3Fh+25Kux2eXQWMpYfMCS32OZCXLCb5PipVlVWzNFwaRBkOJ5APsWOAUex3DW0A1qAt+32LWDHXVvdIBaLD5kydfggIJcrDONSvNtCIt78y+k57qAh0Pcgch/kgsonBc/JOU/K1+pIry3SjFOKnqIk+SBenQYDUVR/IZKaZpo8poE1sQevGhvb9qb7NORYrdbFdceQ2nCcyk2eY9hVVx3HKdJN2YwIwdp8PybtE8Sj7oMWj8Qpi2bUHrmtMRTxKMvQWriDvFl7AriWvGYBNZNm6zmkmjXi8cuYjTZ1hAbtsn+vUQ8Kavp5nu5Qk3sF0gPPzmBddM3KnYU+uukeEpS0W0vJqnKvYxwT3JwMB7VeVCa4xQKyX7bQiu25vtn8x5ixIziZbCVlKQygIFFHDK2nDzVt+ep9D7EpcmTvDxPAt/BvDjQ35FHB9jiYT33RNMxml6Rb2qal030iy4jXKle2mjELSbI31/aijzaDocuprh9zTWX+SLKDCn+HC7dZg5xL4sdEs4mYf4S3FYqytTEPwWKHuaj3+O/UXwMV0MjmPzeXcx9YiJ/kCDqWBnU/9DiQncQ2NTVCS1htYwru9l4D+F7vzVqhealk1g8IH8vxSNhmG/4jExzzeKfLFyf0ZDJ658t8TllYGpGRMW4NZavUF2XBv1B1ukPKVyoU+JEPU+8CSOOa72+H9ZDtGHM78gdGJcMqDXsOcgCXVB+YllDGv3c7NpnxYC64Xl4Ms3urKYV3fj8GD4A8fIaS416IQ7Z6Z0QMvqmohtf1IfGwMlAQCNk6E/lqprAOUAAiLGdZalRFYJe3NIncrRduYDQRFXiVETzckv8Wm47bem5YFpXXYLUj67DrvMnL9z3ZHVNUovVZm8ubVbFjfm6JmlqlHI14lHi4bmqJrhLY6C+4jHiEWlFN/q6rn6a8DjxyKymm4NdRABZYPCErKrb79EPaBQpnphHaJp/E6kQBPuWlE81sG7pZgtTNkmCW4+hNOEu+12PxgfRDHHrF6S8LY/QNHu65wRJqtsXUZpunzcTMDOo5XhSj3bhz7JVxxJ/v8wT+FzoYxSvzyhK49lsfHAZLj9wnOZyjN6QEWUtA25bEyg7DBQ694PHacIx9me0ZiRvlNyKEZPCJmN4Z8way68s7Yd4LHK2j2WGXm5tjxkJYH41tesD92MGp0ebot9m0Jxiivxxg1RzSrFvN1gIF+E0FJ0m806DRFdaaTHtnzI43VWKfpdBs6sU+dMGqbpKse822EDJV6PjxUX5GWsfe4veptM1mYlHiJsuh9eq0Y75KjydjCgJuGBT0Y0vUXXOCw4aY7iQr2uSoUK1e306eZAc5OuaBB0CVYYk4HqUkYqquF8hz831TwVq4kjVdWtFfFaqai0dtmGIDv5AN8FFqwgja3hQN+AwjRjrnPhDXdVhAuqf0/U29iFs0MHgAT51TvzVAlr17+HsHmNIf62b8gPXTRXx70zT/mDYN4+uT8d8hfZvdIsZlhIhsP9+AauVAOi/1WjFRvEPouEuFufvND7ZafGIqIvvxVkGSB8h4jSO7qHo74fQv0+j1Y8ZmuI3dc2M2UgKPX3cOhiMMGkcQm3xW0jU3J9UPmFBHcwVAQ/5Kg7+HpqXztYHzKSlDa/JGkroZy/zWnBk3yszVuoU/hEpfjiHC/EUrh7enENVsluIH5FRL32FfFO8JUfVxoYeTQ+jQCUNMelfQpyuUjloVPRtnHUyFH+VsSZ+ORuruXL4uER8DtVPMvYhmoQvfjXXVYg0y3hOmX04T9nooYL/lIf5NYlK0pKbwUeYlkDWUdWxZ0JQwx5T2B/NdRDsj+fDfgCVmTnqpQy6jN/PhuplrGPxN5b8StakRIEVUpki8Q+W+B9SJxIZ0kJd5adNfSHb+DdS/lmyNjxJg4f4e4nMWIpzcboF5r9mmDpmqg7B4h+l+FqGV09jI8Wu+t8yLJ7XuH/McGWYLYSlhhqL/yzl/8raGDalubqvSfG/JY6wx35DfVL8F43tQPLGiFfFf8cKq8PcZW6A3ynFvz508yaMBksKkxMPWiOo87F76XdIDHIHeKTZdy7UsfnMmZT9nCW+wxoigoQKHg6ii4r2ZbZ4o6UGZwJDhJtSvDlJOpYxdTjkON0lfgTxYT8at6EM2zAa8UpL/Czt9GCi2P2rJX7OuqhygLz/xkmVSQXxWkt8fw5d1r88XBavN8iKnipua2fTKPlh4mss8QOmvdzbwXnBAcMYa45TtXiDafFGk/ksTb1/yhI/ahq4zyLRDNt5q8HUxodwI0oTXm2Jn8DV65bCB3C+F7jAmN5PGtpGNOv1OaFPW5iixrmHXAnxSUt+l8G0sW/Ddx81otFcu9MHLfndlpKWP76Y+LxYvMUS79do+Jf5wWih5Zd0Cx7QuhFj10Y2QCE1+Rb3AYX+ZSTDYFM4U7mj+UGV+oejxuct8T+1HaOhgmEnDV+wxLcj1QAHisU+oQC9j72gp35cOIJGYdans5puLlG22iG6I46DruLMJUhNXI5URi1RFXPVdcWlWE3uxjA8D+YzVa9gwBKuX8RosvrBAPOpD1CA5AYUpqabGzNaF5zLBTgREDwsX9ckrW2owMLPcZ8gHnccp0nvhmZAC/IhBUKNx1+K1eTncc7rI6Wpfr+K/sQzxNOOoTThfXoRApwsgYsRC8inL6I0HWwE2QYlhJh72XPEMxYxmmwbVgeHzuxfjCBAfkOuril29Ms11AHsOuLmrKrb+7t0Ig2ceXDGVzKEqOJLkJoYtqj6HlchAyl4FE2qmuBQz6WEVdd6kTwP6otMC8GZfF7KV0usnNJNagHaXitjtftlPze6W/wYPBbj4+BgPJ7h1p9CfZuhw2k4xq3HffCLuseQixPjapQAGP68IYSgIKcdlenGmop7xPvANsVh9GDyixLXvEgyMlKZRqPKgB6N9/PvN1xSd/JliXRXz1zEfUWK30x8sk6zEV1XEtg0HrmIbXmEZ5EOQVU5/89I8VsqiTY8dtf/CYn/mwZucjMwTggwyt9O2rLV9biKmAkJPinx/0sonOxG/dNS/I4igHKou517xR+ptehhP5wG8wnX0ST8GYU72PiUAOj/v6iDtjJ4okusG+VxTvx5xiA2HB6CwZfkhegIeZK9PazsP1pYycMxohaXLrS9P0XODOv9l5IjpUfHUX6/FO2Op4hukIbhBO+V/8Gke+vYsmLxVSn/o5xB3EyucOXFFy3xnyAQDHS/hWQw7BQDxS45hl9EjgkwBvKd2PHiWRY8vsqKDrajvmLwLxY2JmSM9htRf6BfPfyYLV5nQSkgZ0oZwzOahB3sB614cDAZIsZPXo5p90bRkNN9i7U/O1AZwi/a4j0WUzE+/Iz4ki1+3urtYJIqkVLvbSMluibeax2SBBjV6YO2eF+KKcPXzA8wHwZqE+yQ4hfTNp5mSkcBtie0vMlCJjlpIQ6N8Aq2/GAei0j3fVL8SoryIxwmocFaBW2kgpMWDkUl/GGztvhVCyHDqN9LNJI9vsMSv23Qyf5I9Lst7IkHA2RiSRhguXA6/rItfgc7bO7uCcv0KQsLjS0b4fS/SvG72JkQbGMT3WUC/q9t8UeWFicWXUne64v3SOxum1DhLOSw7B784gRVsJQHYNmrj/kLP1za4pjMjuwGsY42FbHa1m+FiLbTCXgDiAvjdX5ggPhugrQa+gfVdqdpoIIhY7WbYovqq07Vlr+lrx6XVL3klDcMYlkh1M30CnZuxAm5yMNawmRx0htgT2TCBYZG48kQ+deoe1N1T6QbIUzMrABckHtEY4uDuKUf0/Ul3W/FeKuFsAo3uVRHRPW8LYRFKxsHaOWu5ilXS8JYpwPow+ssKRcbXbQcgRWsHPqcvSiwmVMmkOV4vAE8jrW6aAITmyGsehcAgwCrjIaWkeqnpnijJezNBYy4vuEFgad+GCjKLZ/fjvGditfhaxSSXxRa9/mBLP5QX1NZGdJrVlz1hQIb9+WtDbe7lXxLoYCL+vJG7qmiRrSdCj+jkLxwxS9N5bD6TYTlRWTyFsLKIjp9TWF10wu8Up3KdYIvuKiPHaGytoVbXP5Y72T6hYdT6VeU2JUaRPf4nE8v0qjeLyE6kxHpcVye19lLyC7P7opSy68AwQ7TJbzSIM2TKf4qg1c9ptirDVZ3kKKvUZ8eaIZd/ljV9UPPZX/X6qUstzp8zy0npesS5aA7TH1lpoZvzqlhnsRFO3Qx1TZgYR9wnalCkhqoe4UVsopwvayC87yHzPp5K/p5SDoXROxs0Ae77K0T2M/iI9zDQJ5j+/ZL2BoaFwQZyxhIOBDLUc66bToAWY7VO8HqknYXjRmbiWngyDSph1OO2jqEZT4bIZKPmBlm+Z0h6+xn085y7S4as86IxN6Z9JTQwWPyXIIhyBk7fhcocFyAd2smArFnSHTgAIFt5b2WKBziNkZV3meJ4sE8Huyo2vstsaRZhym5JWeE69FoD4k2eB9NsJlwsBC2zLAlw0VmrY2UJVzpeLSHMWBwMQY1C8GtEYPUwh1cdveK+11hFUcYr3ZZYNWPdvEclOmB8cH2IKqanzs09VTtnfzjzfTBD2J6+bepiuXL04lC5lJE3qVIviPpexV4vW6gPmHXxTAgTa9Zc30v7PKVu27An5HrBnuhh+wSGXNPpgALoff/CASzQFzhrFe0cEd6Xji9QqF6w83kCRs7UnYLtyYKuNPNHvf4bFGJ/aOQXn7my5Mp3z9AlKZ4xbiNEysL3Ss8dhee+DQMY2YAqSu4QlWv/ugalGjh4ZB98m1a9WNctYQoZPIuK5YLDqhZdrt8wRSIxafbx8YGPYEZjPZMdU3KgYkg+ba1wX7ckpaXQy8yAY8Zx/QJSzC0xlJ9HeKQlJBGq9FuNfX+JjBeRDH8SBrHK3WAoOJxbG36SyrmAylCveiLUnLaXbcCtdCvqFlOCLdbcyvQEJDwgzBBV38mk83YQztwyuypk8cXdGeLqRphmy/UiNDvNMtO6AKU6ht85qUt8y5Z5ggW3k3U8CaOG9AchTJJmaZWNXtL1SgOnOLTFI1emmWnbN72FoHLaEB/lTGTL797ZZbDVshu4NaxFapWExcCKmKoXCkTb+U7Q/obZ9vxlEcTqLaFuE4BGPoMGolYCqCZYv45DhJmMzEoM5v8MwNQqGl8BvYz2FE8C5o7MgyWLMaqa1wiKxxaYTmhvleGDSzjBm0XSFgLtr+FDKE4G55vu0HZ99Rv20W5TQFJ85Nvqxxw67XPOZtOSlOohQ2aSPFcoNZzScVVdxG13D4f1hRyZZ3B8Gqg0CeCLU+FTmsbLb6fB+ik3wmIOVVy1McLTiMw5+eJlNGd8RifInng5jJecGR1qpZMGivQkKQRXh2F8oQOjuT8QtJDvtgEwUwMEmuiXRkt1ArhKeo4OpKxsApDgNAycNueD+GElAC+DJc3wFkRZ2KudPLGi/p9V3OOc+YUtYLmNNIRrbUyBKie/gpM+TJPW/0kK9IbIqAXX4WUF1GcM8z2r7EZ9McXRzh48fUcnC7gL4uiCI2IMdpotHOUYZc4ASzEdGaSKUWxzPf9prEaW2u3jnZox0opm54oqIhM2bDoNLOKTMNmRAHduv4igk0++rmikh9wwjyT0MiUS4KxVPhwV6el7N+uuQ6aARUqC1MGYV19L0D46rMbcrHZrAh8YkN/RAskwr07hbMfbJAyyaFYhQE3GImFx8N/C2HqBuT4Lbn41nL6vKtoreVBxicEGjcvkGWKWrhigYqkDbkbFhtuPMwyJAhbLkmQFJG4giz5ACMLJJrw3NIBz7Y15OCAQn05HdumiVRDFR7BDDC992LTK49HOHaDSW/oqFFwR+oZCFPFGdAQqANXys9RJMK6MRsGQwyYARYtw4UgxVWYlWHys1y4CCtkNBy9nlBulpe9UOKPKHjZgnbFps3fJCQYfT22wgM2zqaXyaOtXpqPO5F1iH0TdzK527g1Pd4q7kLYLlblSZjvtKcJjO3cJ07N1BonK66W5PQibpOuRHzSFmeUwMxivsoSZ8HOdO+j95nObiQjRuYc7mjUmQ69UTO6iGAfqCsXWYu/s8RViyjlXCC9q1VnwYXBJBxzibG+16So0pFzoGLZVXEtllDLPMZj8rq0munI31vy+mND1auQG+sNxwi8RNUPozQiYoLsxlSpAoybme+2ujHD4d9scEhe5V7qzN6tx05urKSCW6udCN5lwz2fvPcNt7TRxD6Nk2ATB/h6XTkPeXepdXcXoQ9gqx3cjsLGrhOWazxFolbYyGxPJTG4F8aiKKHWCmv6+hp8Qg2D1i9eWdZc/f5Xvf4IgVvYr9UYLVvV5YGuR31e9Hl9kFopqnSUIm0XW4NOQVonDct4utNRkDUbzCBhUM2S38HrhsJF3gJBdMV9dU0EaCkioxADRPtySu8dYDOv9WL+tmVlF+oP4eZxq5Pp+BBKx5z3CdxW7A0gde5SqK9hHXJyOAlxmas9y54nE+CpCCIMTB6JKES4IFycZh2LBgNL7xqtlbmaiUymyK03GYi92HHhsrMpXmY2S4uUW2aVji9HsmYrmxgOM9dw/zu90WEvZnI4ebkGxjbB5cDQDBuaa6l6JaKWq6Scfmhdq0ChwS+pkpVOrj1NSN2umNbHOz01n/uElUMH2FdgIuMRf16+fZxjeYjrSCF5KsY5caLMBM8Hx0xPXfyC3txZpJ7JCiFQaDDCP+0ThVS/8ARkepD741k8Gc9M1YpxfjBwYmrpw1puxbGuGaqvxwAS1XbuJZ5gPDJtBfNYCX5xguPQzOvz/eEi1jqGlSBPiUAIa2ltY/cLdpCxZFyP7kzvsXiNjbgsdThpCCCElaVjhe/iiKsyujLkG2KIqtp4ehun6+RHH8tjbDKqs9faQo6ii2nFumSMFY7RBpTMBhjMZRDXNKU3akYXj00Bk+qng3udjfg7OarN6Kt520Guy16GRpbBDK4Ys6Z6kce7TYYXLPDB6OKETw5dUL9eEW+2RZHGXdYaatnxovoZhTVCUu+INqFapm6HqAfJE8eehsvcRvTwdZ9fXPu2GpKw+bUrD2c+JTEHmT8N4gDWaHihrliLj25ER+qeEmOYKC6YGN8n2cPa8208OE7zqyJU7ICLiBwT3/aHecYLKyOHvXiWKIfmLl4P4V+KDsAGtxlvseGOc+wLUE8YXcrf3l7Ul0RlPYT398OMrVjRp0aaror+BQ408tKuOaLLDDRIR2SYmkHE4m22XByk8h3IbmVeCPcECbcq11KzhL4u4aF0vZC9tOUy2nD21r/nQ/IBYoWzxYLDMcLnhbpubTJqzY7oDCUZmeF6FRktj9uArOFKcrYd9WYQKezUZQ5CpRNECTnctCY72DjQKQdk3RSjZ4wZywknmDLFSC0TMCBFhssj8WKYIv27jgOLdNrKub8cVneAcUbiFbZYTpUW14or4210dIh5imW52o+woURNzfMEbBZmrDxwLF5pyzW9xInXjcWrbH5sZNFH4trGlqfQ1RSjXROnlcwSmpo2WFjCmQV8+zJ+Eo/fy+jQkCTsK1xZuL4rJqhlSoNksC2v3MlJ6R22uOpwQR7vREAI89yaImeAtbuGHwiqIjYLIG0okRTX5lxH4oJwV4OAcAYBG5fxRltcz2qQruKbbHFDKhRHnUQCCOrG3fHOPG6NQhCbZ6V42H4q/3fZ4qYAK4zDeG+yf9c8Uunf2ESE9BpYAESCE5gpjIYIM6R0RpbcHkKA6nBvzAkKojvzI72OINI6oaMNjs6ke1cGcbsHSVGR5Ax4PzroISc52tNZW4gEkRDwqmrPAFGoy6KAjkrMEBRNxncZJ2rI04fCYD37AbAhqDGXg4l6eDkGqsPPPCAIa2QpY5hgNgQ8QMmBCJ3zAUBQ7a/PGXtPMBvjpp8s0t3TzFAuGA40GW2l6bjX3wFP5NIXmncWl+298CkzdDUV74O/mySMxQds+JJEX9t5tE6vi/fD2BpgjKkI65Gkoj3nu7KgtgpQl31GqPztUgFLYaw+Fu+2ZVGJV7xMyiVCpV4MC9FO9BHMPfeGxlaXezs76EAUxErMLEeQZv5Wk3rIgbxAnEjq5THGPdLoF4k19ctXDKooTirQqBMOd6qKm1fuOWB4Wnfc7h0NsZBAnIkXlFhdcNjybG5qqb6+xxZX7ILTpk5UYhpXKu4etABaDyd51JrP4kE/ckc7Q/gZnD3pmSHaqxRhG4sKP3qvuHoQl3FehhUP4dCHnVF/HOCy/IL4kC2vVSg/yqGu206kHosP2vL6abSjDTaIXjqPYPEmQbUsblD9lBBX7ewH6ke9VQxYT/1G1ebiaIjcGtftZZZ42GSMVNLRaMdRaoNsmbgp/UUcbggiFRjywzwPRxQ0O+IbGZ7O+9cxJMzgkZXB7m55f84z1Vpu1eCQpd7bl5gGUz9Sb6IZigJ/r8IMtRQFDRt5F3XNi5UrhaDQw9IOuceO+rkC1jTcx+oRhS6Wt3HE5/JDF2oDON/pzv4RupArk0txq5cjTuZ3YnJ5/Brnl6gL7q8whWSGYKk9GFUcczTrEIsPY/dmtcT+SFbYJtRWPTQXORQnl8Mu+cmrLEpSwjJftK50Uaiv74vkT7TIlLRCJbVwTAVc0wcqOU0aFZ+PwivkswwKiTwhrkZcpwlmolpvOSFKiTt0fQtrOXVP/eUmnTwHwO80+C7u6VVCuNhQqf+l/BXUctKJH+lXVLLOlr5+Z2kfmmsxz3Up4eqMdNYXm8BD3AitCWsXEjM1xJBILfZiZtAKKtbQ+BeLYnT/ZArXA93XqE/D/R2YexzxWYYb5u0VjXkPsqpu+kiaWRJX8D2A9BrC/EUQXeXfB+D35PV393WmVV2NmD9PVPEoSUAF966OU+dKF5stXNOwhsoSLmb4947Uki2nlS7uMRKSlXWff7ILV/ZoQH01X88TntAfAl5TS3wSvaA4pRffq3I0p/FUU/9JiDMYb7eBi+FuvdXaUDdNZ7OpQ8+itJKuw6cQ5mZoZ7o3Z85EZaVSvWskq6uSNZCUTtSDJtNN0GD7U/hYfMbOrvmpRwjRVQvzcbIPhFKsj+Nx9LuobZ/A3pc8GuD6CUaGpwf0O+k1JnbN/K1lSk8mm+wHGdb07vsLx8aiCVy0Mvo5AH9oKpgf5mjUzPT9DW5L4cMQSpnJYYOSvHTh22aibj6BIRwfN3J1qoTkH5nRamQ1nU0UtmO+2FOo8bOcxdqt+Hepdhv+Xa7djn9XavwU52rtDvx7osaInJJbS5PxJ6st5OcJnYLOQjcDgKdJc6ZG7FmYNoorFnL5V6qr06s6/PfqhtvsoLymzm8TX1sh7rpKiH+vr1C5bqh66x3F40ZAZadtJvCwhr5HuAkKj+LhvMJ+hMt3Zh4JDWwp839U0HDUZ2IezVE9Bgl/8nnsXfjncZUqn368UypxmE8wF1lP9Nnzk3xO4MnmYvwp/FMUKJ/KP8yG8mnQZBRPD/SfY3vGhv4qNcwUxc2BWqBbOJlbibiNk7vdfIL5mSX1BeY7ShVK5llBW9nXnWoIz95SxXPaXjnUE35u0Or46rsUz/ManM/zcUbiDF9Qd0rq7wu90Gu21Z/CeFGpE4ZqXRx9GwmoxPGbu5Ryqx0mwqsA1mvo8h7NgXEDrrY6oea1jkQoLF5JstYADYfFPydUr+gPZJ2ru+v61neDPsjn64zCT9QtHYks19zyBtKtgC1+gcf8aTkbN3tcjAIlD5FwRsUEzj2zlOD4KhFZL6cDX0mGWFKiWE0oTuDyEZlejV0LXMcv1zSzk/nLXP6tPq2+p4O210xHfEZnggGdDR0K7woUkJFa6yu5WJrZVaHvuhwZ4KuRlyi1NP4azhLltVx1jbqOk0B5PUs9rhvUaBNp3IguSA7wYWSL8iaWhtXDnTavqpIvkD0iM+ZHLpjUozLLeLRZ58dg8+s0mqmpPrbCL5En28rjKtATAz++4vFlrpZy1E+oZH9n8Yluo12Di6AqPKnqqtzLk2GGWj+fAi1wffWN+6cm03kau4P/B/h0rbTP8JqBi1Grnr7BTPVmlmYFb0EkwjW/NdG125o6P387dhSWz6Tk1OUxKnfAoeS/yfYsX/3ptztRJGN4NmAOQzF7TpB4g+fCQqEf+nL6ebBT5AKT6vMpBfb1AgyBg3qhMfoXhYgvtNygPC3uswBLJYd/iA5QGeJv112ul97nKrxuQM1rVqmRrjHZqnFX6/C7/CqZHnwNKQ8NeVpZAZ1zcFPBMW3UWxx2Hb7jro5SjIZ+fwIQ+DdU/y1FXfEcTdxOobsax167tWQ/7pf5Cwf1UQ/1FzbVWVnvjhE2HW5JX8WWlG9ygcdmpL6syK1ol3gcDVRGrDFGXDrASfT4wcEuMyxqm/d3kaL212lPouIFuAA+323fhor8P6EGAACFlW2MVGcVx89z78ywCyyYlO0sry7EUrqFGSQpEph7b63OkBKiFk0kobNxU7ZAQrcU71Crdtnuurp1phZNpCTuB5wNVmyra6NVZhdD0IoKfZlxm9baxXaLuzO0TRP6RtLX33mGtpt+KeHuOfc85/zP/7w8d4xxxJXZj//nnldmz9m75qat3wh3fGf3uq0bN39l9b6O7es6u3JymcwT0ywLZbFEIkbEkYiJfvnWm3K3dHaFEjMN+0WkUT4jxx0RIxZRlkrEiX6tY0dn6+c/dpmtgn9WWP/LVJ1rbtdAxwYu08Dru8LOvV0du1u/2rX7jtYvdXTt6/i2xOTTYX5ilEBEkQwUmqJrO2/eLs29Ij2tcFrRL3LAucrCy5bOHbndHXtF2kyrdYv0iTyP6/NRUHqrxe85fTL8lLtrfjaMqHkGf74VlZj+h651cUWPejDdKdIqxjg9IsPTT0ysu5IOYOX0yuFt00+cWHch0SbGJc+BxdNP3Nid7eFtYiKc7GmffhKJdYdlTxoaG435RBnO/rB8jTtvrG/i1EV35c3rntx4effbLx1258auj0j0cExmU5Z2JiIzpEGkyczZzzjnRsVShpzS0ISy3/QYcxdNMNJn5AdG+o380MiPjAwYudvIEYD+ZeS0cR8z8jgejtznmJgBVyfRKLM+bGV9VgOm5+t2XP1Gqk31mS3Q98XOEvmsLDfg8aYWV/+wYEaulEUyx8y/i/eFcoWslITpx0t7PxgVU0gU/VJ12ahbSef9Sjo+mizt9JOl6gZ3pLreFzmRysSb/aF8t+cO5c96lfQTXrI07NWKV/tuqdrriewhvhfDA3VDJj5O2K8xmMDNxB/zcuV5Qa7ciNdSNazyM/FkMFJt90eq1wSADpAuFRBiJTxOWaVW/J+fDdcGbiFxEWKrwXCDQuIKDZkVZOILMDThNStwKulXfVVAr/mFREtQST9NbGvgZsNHAVtxCX1F4LaHd1ilVtwIoWZFvxxCLmDNhJ70nVpxoVVckdWglilmM/U/57st2Z0YpiDTj3xFDQdRXiPVUStJ90+riJxDvuhD9T0/V/43ITPI8Cef6uZCZhCDyj11w0i1jQwzkBOeWyu+77eHHfTvRb8l+4eUmyuf4jQx+uGk6jOrFfMe9R6zSiV9GhLHNHgc6CmvkKhSxAKfIV6g3mvp9QVYkU+VTPxeEKsYilrEWQx/JNcZnhPKuQToaZ4hntPq8TOrZMM+sP7mk3YXsX8BYwtZHlaPFLG/wisJ1n26CMvwGFC+eHXVDYXEdXh8gWeh7yZLmzGcZ11ug1zJw+PHnOShXrRSzvPxackO4rV+lGHstEo2XAXwiRQsJ3X3KP1+FvKix2RvAMyjdzd42fBu3xpoIP24n4OntDANeRP0q8GKBNDeTlFNDOKQlbT6Iatk4n9lbI3q8QyuMWZXI+07Oq63OXmJx8GrrFvSELRkH+G0gbW71+dqNbCm3/UdneY0peg7LdlzoNmenwPhGIU/S9/O+MytzMtZXk5Ar6Z5fsfL68AespJ+fd8qlfQ38ZjyWdw19Pq/AC4h9O9qmMl4HsYwE49f+I4q3Mj6yVA+A1grkq0oJNaSf9xrD7MYhz0I9aor/Rq0kvwPWYXR4Plzj/z/oDVH6XWFkCfV8Bxk3qKyCdK2+E6uHA2yodE+O8FQ/rds8BswzHqkm0Q5nsqGT8CutIHYP6OsH9V0KuVNfm/q+8Z1VkXX1GkPy6mPlI+OVBHDJ4ph8rlWpVRdEgBahW5bUKrOJHyNXv6lKOshlUb6evl3oVwXJEsDVsL0kFWG8rpzX1TDg3T5WkJ+T3FB4GTiR6hupa7GL7GsYlcGqSWhq3GQ2ARbcI+VzPBWqyRLN9Llq/TTsonqPsc2bKKH8wMGsoneXeKMFHmZHU+WDuDGjteK26xSSCwnxfEUfF9gc2/hOYL7J3Zc74s1jFQfwf0IN+FpNbxA39+CwHIqsjt+I3NroqKfWkmbHrTKUH6UCTdozWcwRPj6jAH8rmKMw+MCzwQFndfJ/v9jBYYBm6xLfkmhDuEbPFWvTRV+DDyqnbCKxaNLrM4Y0vO4M2fAO5nKlUdozKMbqPwBxeW3p94KMUP5g7BjEVuyw1bRTzJro8FjDOJVyh0H/kpdt0kyb6XkSQz5umGk+huKGWeYJ/W6jeHxLB4nITCll2mYk9cxHLSSkH1WKSS2ICf1hiQ4fYawRaTlq6h3KBM/iofeLrLUlW24LyJbm35ZE3i8wTy2cDCid+h2S12zqBT5AA==(/figma)--&gt;&quot;&gt;&lt;/span&gt;&lt;span style=&quot;&quot;&gt; 6efd&lt;/span&gt;" style="ellipse;whiteSpace=wrap;html=1;aspect=fixed;" vertex="1" parent="1">
                    <mxGeometry x="30" y="270" width="60" height="60" as="geometry"/>
                </mxCell>
                <mxCell id="26" value="" style="edgeStyle=none;html=1;" edge="1" parent="1" source="23" target="25">
                    <mxGeometry relative="1" as="geometry"/>
                </mxCell>
                <mxCell id="23" value="&lt;span data-metadata=&quot;&lt;!--(figmeta)eyJmaWxlS2V5IjoicjJjWFR0Z3hsOFhHTE4wdmFkOGVudSIsInBhc3RlSUQiOjMxNzE3NjYyLCJkYXRhVHlwZSI6InNjZW5lIn0K(/figmeta)--&gt;&quot;&gt;&lt;/span&gt;&lt;span data-buffer=&quot;&lt;!--(figma)ZmlnLWtpd2kZAAAAdzcAALV9eZwsSV1nRGZVH6/fNffBcN+nczEMN1lVWV35uq7JzOqeNztSU92V3V286qqisqrf9HghIiIiIiIiIiIiIioiIiIiIiIiIuKIiIosIrqu67q7Luu6ruvu9xsReVS/N+z+s3yYF7/4xS9/cfyO+MUvsrK/JhtRHPf2ovBoEglx9lzLa3aD0PFDgf81WxW3W645zXU3QFV2AtfP1S1F7TYrgO3AW286dUCFIDxfdwEUFdANXPJaUrSKczfY8Npd3623HD653GyFXvV8N6i1OvVKt9Ne950Kn18xYLfSarK+mtR9t+q7QQ2oE0HZbbpdoNu17l0d1z8P5Foe6bvtOpEnK161ivJUue65zbBb8tF72Qk4ttO5sZ1rdXzMw+XIzjj3D2JM827Agkyks7OD5QLKd51Kt9VUrIWqbPleyFHK5rgftfd7cQSyMppCxQtEjdamAuXWYNQfjPb8+ZA0zVbzHtdvoUG0KqqdHLQ8HoVGFyhRaZU7DYwboCw7zU0nAGSt+61OG4Bd9Z0G6QqlVqvuOs1uq+36Tui1mkAWN91y2PIBLXGOKJfrnmK74tbrXjsguOqDCIJVkjvhu+uduuN32636+XXFZA1dNStuBQua0Z0M3bs5pFNB3SsTcTo43yi1qAVnvCY6ayrs2SD0yhtcqiuCmtN2u1teWOuaZ68st5pN8FQDvKpMjSvVW+UN1K7e8irrSnuuAa8GZ3ptw614DoDrat56rY7/2Hx9AAZ6sjcYsIvF9usOO71xywlqXjdEz6g9bNPxPaekxn9TaICHK6Bbxnqg9oiExOjuI4P93iTaGsz2w+j+mZbMyeCujuO7aBV4yCyixNgaLWUPVggWXCYoNKp2Wq20tjjOwuXWs9h2fKdeh2VAeRtd30xvaRFdd6vELrvN9W7Fwcgd1fkK67CBDiurrFQ9xfWEglv1isslXisNo1G/ARXDcredIOiGNYxlneYkmi2/oYxYVhx/w+VArUanHnraiGzqDdSiBBtBtVBu1VtpraikoZ5ZCqD4ClKahicqLUgS9RX9SFJdzaR0ImhVw67igdpazfEraU0Zr+u7Wp1OuXeX650AQkbldE3N90zghJ1U48+qXgBcUe80vGYr8EJ2cWW7NxgZ+a0ErbpHQQmsacWDaaE3DhUYmaJYqvWAqQEkCrKiaQBnpzgQGbEXvIajZlaEuZ/zACxtehWX1r3sHcDPBju9YaRXH47Sd8OyWviqx3lKSEz1FmrJ2e7ubrRjRlzwYCc+3KQDFUKjqPitdlaV1RasFpJsVmBAHQ7QKjnljUWUTQ0uK+e01IJ+efB1QItOGw4Dpay3thSAIYR6DAE0ot4tO226nEJWg0r5ZeXQimRaiXbG095sMB7hmcRtoWfIF+sKWGK63oabaZtVj3r0g+F0cIBa8gx4d2uukbxszg+2o2lnNJjF4Os7nKpoe3e79QCAxKjh7ElplcejeDbNJLwMyQMv2K6mJBsOPbmFcZhlt4MyXD2AQhUcK139RNFUFPVSMJuOL0TOcLA3wgMpMwH/BsECkK1OaEBLE5d7E2hkMh9MV6mGTD2G5fh+a0vpGydh66p7V8erY7eAqQNZMDpFI9a7URHLB+WDC0lRS3knuJy5ue4tqK/k6reivpqr34b6iVz9dtTXcvVnon4yV78D9VNlzy/nez+tZ3tuPODKNLD9+cCKkrvpcgYymbhVGo+HUW/UmkSJghQ6TW2pWEY8Rp8NWAadUug7CrbuVgas9FUtfm08HTwwHs16QzxuXGBOttBltQrWuQ52m6qnRpg9vRlNZwOYHnGtNppyj5ZaYdhqALIa43kclefTeDzF+lTcqgPfhwZR9lsBLM3zAUv3vEvTg+qhZiEaUl21HUwFvrAMFUe90Fb+r4ii7NUBLTXoUfnIMkSMQArQSio/VV3dhLGPp43BdMoBpFakpI5SKgAeCJ4RPj2kCluVXryv/YlVxj4ElMgUXCqfo+2h0G6uAyXOtV2WMthkYbUrDIts9/7JeDo7bkM2Nme4dIRsxlBEgsDWrPqXCSI1WaveOxrPZ+vTQV8zKWizyq14NkBLW5mdPdPuzWbRdIQmUHltZSHw0cpXSyXP+WzsR/HgAbBOl0gNR61MOg6ZQhYfC6fz0Y5RP6viBdzfyVMgfvXUyshgdjSMgsjMHaLzg5bxj6HrUENkGdqldQUhKDbbZpkbix26jXbLd1T4WUjYYDFnUbqSl+w3AGWyW8Bx9HYuaDGmc6rBQd+D1VUjkNgoEUUpWFMrvUZ3l6yuXlKrBCWjiwFsqwfK4zkGNDXPLT3Uc1h2Ixzb6YTcuQo5VkXF6tw8ng12j9D0kFzaTtntwhXoGFmPINBCU/4VSMTEgXeP2w1bcCpqPRYQ0DHI1Gu0EVyixhbQ6Mm3x/GAssT2AZQZp3BKWOWODsMV2daUrhhbC8Jzpw20MKWEcEawNrDQ8llJVh1W7PIE0OXhB3XZ8dWal7CXorTL9ZYKtwqIDbtJoIh6sdNGMOZ2VYDa9TvN0FMh+RIMpOIxMFGyW/Yog16u59MIVmG5irtwqui9y0exq6AuGy0curpqkS0N6wYbT9UYPQEu6AbEASQr6poKO5dA1cai0ohwzlIzXKn4zjrKVbRtuOeTx06gutnSYfwaYD2PmpLLybQOY0H9VDjtjbQA9BxuxG6IKDbswn1jX+RsQSZgZhDIpgtQVnFyQ2nhqIAQv+q30kDWzqESN17I4bTDLuYwqcdeaneCmsYZZssZJuG1kqE0q9UMkXI6wdOZxhlOaxkm4XQyQ2lOpzJEyum0HijEBKKE2ZkFZMLv7AJWs7xiAZdyvVL1ZLCG6VV5XMLz6jxSs7wmj0o5Xgvf45W7bEPtOgR2OP46TbgkZUDXI4ZvIdTLMDe4vRj2piV+GifmcqfkldEgyDqpSMTbuapFv6HDZTxBI0qbCqRbwBT1swu4Je1y0/py0Pa1v15Zh9PBfpgiVg1pijihIWUCsFat/2uLyHCLruPkMWQN5xegTwU70/FwWBlMta/AoI0VfR3vjBVW3lM/C0czo71HfXikWYR29+42NirtAcvgwIhH1eR6B1uEtGLkGNAZ4GUhh2OELQq0yuMh4gJZmIpVIffwj7WNf+we/ino0AEP34+aPMI/lg8UqDPERfxj7+OfguIUzMYTPLBDWLxYyInxqSCwGr3ZdHC/kEsHN9+Mujy4+RYU1sHNt6KwD24hsnBwC5HFg1uIXGr3ptjtvFE/wnPW3nzQF/fmmK4JS8fyaDzsDecRnpFzFdffJKwqVqnZO4iEtHd7B4PhEehlzI0UgAUms3hnOpjMULNJu9mbDnp4ZH4QTQc71cHefIqlxdZpzq8Cagd5ApA4+KpEFGDVzeKjwaS3A6VeeLaN6K4FeRqXLXHENke+yzCoUricYJ4DXCXSJgpGsAN1VvLNP13uTWIoc/YI7E+d/SSKblKx2i7OYRy6DUQ3rTF+RvKKYBEoTHYd4FKOfztZ9/ywEF/jX4TZCG0AqPEEapEhnJTKg04rU5OI2JWDr0a9mVrgv5JtHM/QJMq3thWJGYVVbgfE2xwNSjVAlEWT2loKvCbjzOWWX2miXHGqPttXK03ljE40Ow0OaQ3RMNM7J7EjckqnKro8zTAZ5RmcJlmedRwVmV9R1uWVOJqwvCrQ9av9TZWUuIaGifLaYEslDK8rB1ssr4dwiL+hXFZ5pRsDHfI8rOaplOBNJtp4eMtvcnyP4KKgfCT2N4ryUZVQHUAfXa07nMdjGus+N/DHBtA1lI9DqM/+H19FZIryCTVdPrGm+31SqOtPvkuXT2nr8qk8vqB8Wr1aYv3prbYqn+GHqvyGtn7+5vZGk+t0Sx3uA+WtKDnO2/ywzvrtKFl/plPyN1He4ZQ2WX8WSo77zk3N59mbGBDK55TqW5TPc1GS7nkoSfd8Z6PGebygfE4dy15YripDeFG5repOueOTroStnvUynBvLSlXzd6vIMKCsorwV5TrK21DW0C3781CS/7mang96W+d46rXWOeoNwksVgTQ9BBIoW+faz7oTZftc+07yuetc+9k3o/TPtW++HWVQP9fgcyFSiKTvYFejXDYZvqDcQslx3N3YaBB/vllXgdc9zc5GiPLfYAPguO5FGaD8xk0sOMoXt4OQ+C5K4u/zN3zWe367xnLb75Qo950A4SrKfqjHEYVNdXDYhZgov71N5KlQ7m/q9sGmnvdLNjeUvlzY9EMf5RDlrSgPggCeV4gRStbHKG9DOUF5O8qXonwmyinKO1DGKJ+FcoaS6zRH+WyUh0EAny3ERZTkdz9K8jtCSX4PoCS/b0JJft+Mkvy+BSX5fStK8vs2lOT3MhkEt5Lht8vyphrhywmQ5XcQIM9XECDT7yRArq8kQLbfRYB8X0WAjL+bADm/GoAa6vcQIOfXECDn7yVAzq8lQM7fR4CcX0eAnL+fADm/ngA5/wABcn4DADXmHyRAzm8kQM4/RICc30SAnH+YADm/mQA5/wgBcn4LAXL+UQLk/FYAt5HzjxEg57cRIOcfJ0DObydAzj9BgJzfQYCcf5IAOb+TADn/FAFyfheA28n5pwmQ87sJkPPPECDnnyVAzj9HgJzfQ4Ccf54AOb+XADn/AgFyfh+AZ5LzLxIg5/cTIOdfIkDOHyBAzr9MgJw/SICcf4UAOX+IADn/KgFy/jCAO8j51wiQ80cIkPOvEyDnjxIg598gQM4fI0DOv0mAnD9OgJx/iwA5fwLAs8j5twmQ8ycJkPPvECDnTxEg598lQM6fJkDOv0eAnD9DgJx/nwA5fxbAneT8BwTI+UEC5PyHBMj5cwTI+Y8IkPPnCZDzHxMg5y8QIOc/IUDOfwpAuag/I0DOXyRAzn9OgJy/RICc/y0Bcv4yAXL+CwLk/BUC5PyXBMj5q/J40gah1QzbtbhdyCTEshhTNnqTCYMcae1OxwcMy2Zj/GuVhuNtIeX20SyKhS11tkhYNm6v9lkfMSJD/NXvzXqKdlnYm4N+NBaWldDEt3WmQxJVB0OcbMuMJp3+S5AgEHJlxkEhzov3e/3xxRigtT/Y20cGYh9xHyLJfjTrDYaAChHmEjPIQER5iAxFhDQQ4KVZdKDyhrpp+XCwjbPnDuEVlc7X3ZpbTGGd+P/b5Q4ipmkPc1sVq9tT8hyhZ9ROqMEI6xolgLNC7nAhEFZbY0aYMwbg9uEgHmwj2pKigMLcwpwWxRiReCz6cgm8R/HueHogdsXyQEnj5VKsKCjcR/g84tCBWu2NgMShwmMTMWc1BiEfIlKIbVlcgXr+wuFKcWI6xhkEJBjMWswGACd31QqWOV4juFdKcWrC+VRVE7y0OB0djF8yKINPG/lerOSyPHOoVOEVUlyJ3OzeYIRzCnvcGvRn++j/qgVsLeJqAX31DntCmCoetMU1DEEbkEgFKias4oXoSAyF3AW2PhglD0GGxFQGexFGZ+OMgJoOXO8XBVa2NGERyXvUwHyg52nZPdzhhr09dCwJNrk20NbEPlSKWHd+dme/x2A+msagkGlNdeRVOGUrJtw6jKbIVEZhD1IUr7CkPVTpS5Xeug+yxf3KEKOPseXI4t7waLIfY6+RS/30jiTGTiOXt3G4u/DS+Zjm92Ypz2o2mxgASDDilV1MJl2d10i5utsbDreR2KqiIRZDeWIf6jZFZxdK4/vB5fVSrqEG6EuWPDlLc544e07N2awoThl81E/X9/RwvMf8uCIJx+Vk7q3d3TiawX+IVXmmlutLWIVt5BP7sYAHmWsPYM589n5Ch5C2iOyhWQ5hLcPe9KnkPiEvKjWBaNl2HoBNIB1RgTUn3sGZErXl3cE0nqXDwtoUYT/5+tI611lYSzvjg4MeBlbSDis7gd4ntPgwKvixXaygEhi6upR5r39oTH6pkgoNXm+KMzWmDLeXcqIXNVKEuh2ai4YS9Bsro9CN3hRLZhYrPwZ9aFfC5ZOsNKPZxTHIzeBH8AW9IYbZV2NNpnCpBtLNI3WOBZAUQyzulTI4OtgeDw37WFXQL7y/hhMmMRlYOIrT8QQYe1TFOsB5QSQJW2iA2kEsS4lYToBD2INjIzzCejSiu8QKmb7Gec5yHkdVyHKdWxTmcTRSB26JbWWwu9saDY98+BbYo6K2KzhUH9KvHcxnnJ3yZpqvtcgXFWMnlhNDS/1oFzT0ILDepBFqCd2foffxfOL1QcDl4RR6yTPvkqTBqnoP3awWzHvIduVwMFgs7/+FIohmD00UQAW5QuwMuAgJFeigtbo7GEYbel6xagQLbN9mjrUedmLkRciyDbkYWcUIOWUh2duLwwF2sekRBRqOg/k28ynbICNCfKuk2UzGI1ib7mh5Ptod8iqGKfY8x5VB3Emaoj7EuKpHXU6eb/RiGJGWmL2TYDVXOZlvDwfxPpixX442HIdR76CejY6dWMc7sT3EOLTIFiZNFQhmnHWmamTV2g0uYqRQHkNMDcVGvDCERSW6PN/NW/+fOMPue8MgJ5DkEc1aX94La0WFBFdzJNj4VEigvCqs2Z7iBnzO+KGQxQZFFGlssBRPplGvD4rleH98EWuNqKYUYQX7ND2Qr4QMGpSL80a7DM1Uf6GQ/bm2SjxstbH1j9lQiQ4HO8mVYJLM5GlXXVvKMvIPKiNjKRzym8yDoQ7D5IN+EkHA9M3D5fJWV0W48lgn2CNYQbAPvTXuC7PB1L0+5DHYHcDZQnHxlOb5MQRGLawh9sG28dohGYiV9H5JIKWd5L8l4bTFYi3JgttIwmIeCWXBVFPiokEk9LidbXbUSX/ZDKCEXXYPTmMEmUOf4RExGvSSzpr3QEgp67sbZtfNSwDyEgZ6DumTyGR4lW7yisql5A4UDVsRtcyytlO04vIpLGWGKicK1ewhflVrqKhEselsIpGmcoUCCX7zjo0MtlT2zmLJF94UgW0y/eoOreAiKJ7OAsTCMNIYziee7+4iFQzjHTCOUx3APhAJJ6eObxZ2fLhHi1fRFYSIKk4d1M8Hoc+oteYz7ucMttAOZ4M1RQRD74/6Miiq4+kOrI9vFMCDXIiBXsHO4WzH4+F8Fpn9E+7GDHBz3fQgLK/abbquyag79S3nfABA1lU0xTtlzGLGYd8Bf4sYUFjwnam52aP5QQBDxeLFAuGKMU6cCWKNDai6CAT25nBHU1Nb3jFrvzKhl8KF9Z1idR0eGEJTMSc6kSmrxN3bbTgTEFyE+WJ51RuAKwKOYSFk0Xs8XApChIBgyMEzWawViG9goEBm2W9tEGOZd+lst1rVr1IUkIdr+YSK5u58Ca4Dblrxy+0tui/tGpNN02woyXZEAogEk6SIMfqYGPNIDFkktoq6lW1V5v4DvgrKiaUCQukZZYMp4Aq4u1VzYT81r17ptqpd3YxUNi7U9OuMmCFs67xp4YOWM91JR4GQFovojPawijjxwWnmqtYAF7xTP/GvtvbTdUSleHY+HWCEsj+IJ8PekdLaNcYjqqqUFONvD+c4vpjeJqqClcRjiFVwdsADF/RE26rNj4Y9hNX7+oHCRCH1Awc4I8J0AMJslKgB2oO4Eg0jROFQwkJjPpwN2Hs0rQ6iYX9TiwIC2oHmY+2hDDJ/MYTbIEyQcVqjx6MrJJzoh7kOp3tEYRkfaGuXB6iQeL1iysMd9Sc812GmkQG5vaAnxCiTRL734QZId/Z3sJv0YQCw22GbT2HAOXJtbngMJJqWixsAYjuumbxKBTd4uJaEM1LqioxvgtJ3zclNvX60MdCDQzcxkOTyD3CJmaGl1JA03AkUFd249VJrS7sH2IxjZi9N0NEYH0Zm5xwP+xtKpghwofDVVJmtHG1tgPP69MhDmgCPxOM5HJdarD4XS9fLx4KOrUF/L4KhYOgQpYW4PqF3+wMczNi7PRtAUWa9g4kXj++8A1lVjAMucApCsBhiRCSO+g6P0TZhLIpyDVbF5fvXmJTYwpW9W2o5PqcrYbcXNInt1Ns1ppp5WwsrcwFJ9XqkeUtXhfI4BI2gqNbnE4+lThP6/PzMyX4vjsSSsBSgkXdM4COSaz8khHJVTfCsGbs/IVQooFF3jnrK4IosNerZg7itQ0MGyTCI90iEUQhRJ0rGa+Ij1jCTgFqvf5LiZXmkEYv4Zyl/2Fjmr2vvBi1eFrcYUPcXDeJgvDszBhiwCZ2+VyJBMB51Jn2cGMxAfgE46MEwoflR1PU2lWB+XMaEQswP2T7kd1W1sjD8X098K+CfkZjlZRzrlyRSubmmzEt/USK3e8zTfhQObh9nJeZo9OAwzXsRlxp0boyq4e1JA80oQ/9UgjbbatrwrrRBhbFZw08nDdxZM/S7E3RuPNjT9TDQ/isyVsg+kCTBXMWnjXyI04RJy+/lWjhg4j6Tw+lBEfv7OSxHRNxnc2FTuwebi3GtIH9DXnaEpZQUo/yYki6kvw7MBML9Cww7qSK8RWJjdrRJ/9+a9iFR8aeW/PtEaGqHyaT2fikeADeFXVTubwKUPpA/XH1zvmET/LWsv1WjU6eSU5oPSGSSYkW/qHGvk/PkBAXu+U7egfQaXFTnIZq/mhzSsEy00s8ndSXmP2awokexoWzsC1ix8q2Y1J8kdFG6ea3BHnQSsLz40L9kXLiolWg3Fh+25Kux2eXQWMpYfMCS32OZCXLCb5PipVlVWzNFwaRBkOJ5APsWOAUex3DW0A1qAt+32LWDHXVvdIBaLD5kydfggIJcrDONSvNtCIt78y+k57qAh0Pcgch/kgsonBc/JOU/K1+pIry3SjFOKnqIk+SBenQYDUVR/IZKaZpo8poE1sQevGhvb9qb7NORYrdbFdceQ2nCcyk2eY9hVVx3HKdJN2YwIwdp8PybtE8Sj7oMWj8Qpi2bUHrmtMRTxKMvQWriDvFl7AriWvGYBNZNm6zmkmjXi8cuYjTZ1hAbtsn+vUQ8Kavp5nu5Qk3sF0gPPzmBddM3KnYU+uukeEpS0W0vJqnKvYxwT3JwMB7VeVCa4xQKyX7bQiu25vtn8x5ixIziZbCVlKQygIFFHDK2nDzVt+ep9D7EpcmTvDxPAt/BvDjQ35FHB9jiYT33RNMxml6Rb2qal030iy4jXKle2mjELSbI31/aijzaDocuprh9zTWX+SLKDCn+HC7dZg5xL4sdEs4mYf4S3FYqytTEPwWKHuaj3+O/UXwMV0MjmPzeXcx9YiJ/kCDqWBnU/9DiQncQ2NTVCS1htYwru9l4D+F7vzVqhealk1g8IH8vxSNhmG/4jExzzeKfLFyf0ZDJ658t8TllYGpGRMW4NZavUF2XBv1B1ukPKVyoU+JEPU+8CSOOa72+H9ZDtGHM78gdGJcMqDXsOcgCXVB+YllDGv3c7NpnxYC64Xl4Ms3urKYV3fj8GD4A8fIaS416IQ7Z6Z0QMvqmohtf1IfGwMlAQCNk6E/lqprAOUAAiLGdZalRFYJe3NIncrRduYDQRFXiVETzckv8Wm47bem5YFpXXYLUj67DrvMnL9z3ZHVNUovVZm8ubVbFjfm6JmlqlHI14lHi4bmqJrhLY6C+4jHiEWlFN/q6rn6a8DjxyKymm4NdRABZYPCErKrb79EPaBQpnphHaJp/E6kQBPuWlE81sG7pZgtTNkmCW4+hNOEu+12PxgfRDHHrF6S8LY/QNHu65wRJqtsXUZpunzcTMDOo5XhSj3bhz7JVxxJ/v8wT+FzoYxSvzyhK49lsfHAZLj9wnOZyjN6QEWUtA25bEyg7DBQ694PHacIx9me0ZiRvlNyKEZPCJmN4Z8way68s7Yd4LHK2j2WGXm5tjxkJYH41tesD92MGp0ebot9m0Jxiivxxg1RzSrFvN1gIF+E0FJ0m806DRFdaaTHtnzI43VWKfpdBs6sU+dMGqbpKse822EDJV6PjxUX5GWsfe4veptM1mYlHiJsuh9eq0Y75KjydjCgJuGBT0Y0vUXXOCw4aY7iQr2uSoUK1e306eZAc5OuaBB0CVYYk4HqUkYqquF8hz831TwVq4kjVdWtFfFaqai0dtmGIDv5AN8FFqwgja3hQN+AwjRjrnPhDXdVhAuqf0/U29iFs0MHgAT51TvzVAlr17+HsHmNIf62b8gPXTRXx70zT/mDYN4+uT8d8hfZvdIsZlhIhsP9+AauVAOi/1WjFRvEPouEuFufvND7ZafGIqIvvxVkGSB8h4jSO7qHo74fQv0+j1Y8ZmuI3dc2M2UgKPX3cOhiMMGkcQm3xW0jU3J9UPmFBHcwVAQ/5Kg7+HpqXztYHzKSlDa/JGkroZy/zWnBk3yszVuoU/hEpfjiHC/EUrh7enENVsluIH5FRL32FfFO8JUfVxoYeTQ+jQCUNMelfQpyuUjloVPRtnHUyFH+VsSZ+ORuruXL4uER8DtVPMvYhmoQvfjXXVYg0y3hOmX04T9nooYL/lIf5NYlK0pKbwUeYlkDWUdWxZ0JQwx5T2B/NdRDsj+fDfgCVmTnqpQy6jN/PhuplrGPxN5b8StakRIEVUpki8Q+W+B9SJxIZ0kJd5adNfSHb+DdS/lmyNjxJg4f4e4nMWIpzcboF5r9mmDpmqg7B4h+l+FqGV09jI8Wu+t8yLJ7XuH/McGWYLYSlhhqL/yzl/8raGDalubqvSfG/JY6wx35DfVL8F43tQPLGiFfFf8cKq8PcZW6A3ynFvz508yaMBksKkxMPWiOo87F76XdIDHIHeKTZdy7UsfnMmZT9nCW+wxoigoQKHg6ii4r2ZbZ4o6UGZwJDhJtSvDlJOpYxdTjkON0lfgTxYT8at6EM2zAa8UpL/Czt9GCi2P2rJX7OuqhygLz/xkmVSQXxWkt8fw5d1r88XBavN8iKnipua2fTKPlh4mss8QOmvdzbwXnBAcMYa45TtXiDafFGk/ksTb1/yhI/ahq4zyLRDNt5q8HUxodwI0oTXm2Jn8DV65bCB3C+F7jAmN5PGtpGNOv1OaFPW5iixrmHXAnxSUt+l8G0sW/Ddx81otFcu9MHLfndlpKWP76Y+LxYvMUS79do+Jf5wWih5Zd0Cx7QuhFj10Y2QCE1+Rb3AYX+ZSTDYFM4U7mj+UGV+oejxuct8T+1HaOhgmEnDV+wxLcj1QAHisU+oQC9j72gp35cOIJGYdans5puLlG22iG6I46DruLMJUhNXI5URi1RFXPVdcWlWE3uxjA8D+YzVa9gwBKuX8RosvrBAPOpD1CA5AYUpqabGzNaF5zLBTgREDwsX9ckrW2owMLPcZ8gHnccp0nvhmZAC/IhBUKNx1+K1eTncc7rI6Wpfr+K/sQzxNOOoTThfXoRApwsgYsRC8inL6I0HWwE2QYlhJh72XPEMxYxmmwbVgeHzuxfjCBAfkOuril29Ms11AHsOuLmrKrb+7t0Ig2ceXDGVzKEqOJLkJoYtqj6HlchAyl4FE2qmuBQz6WEVdd6kTwP6otMC8GZfF7KV0usnNJNagHaXitjtftlPze6W/wYPBbj4+BgPJ7h1p9CfZuhw2k4xq3HffCLuseQixPjapQAGP68IYSgIKcdlenGmop7xPvANsVh9GDyixLXvEgyMlKZRqPKgB6N9/PvN1xSd/JliXRXz1zEfUWK30x8sk6zEV1XEtg0HrmIbXmEZ5EOQVU5/89I8VsqiTY8dtf/CYn/mwZucjMwTggwyt9O2rLV9biKmAkJPinx/0sonOxG/dNS/I4igHKou517xR+ptehhP5wG8wnX0ST8GYU72PiUAOj/v6iDtjJ4okusG+VxTvx5xiA2HB6CwZfkhegIeZK9PazsP1pYycMxohaXLrS9P0XODOv9l5IjpUfHUX6/FO2Op4hukIbhBO+V/8Gke+vYsmLxVSn/o5xB3EyucOXFFy3xnyAQDHS/hWQw7BQDxS45hl9EjgkwBvKd2PHiWRY8vsqKDrajvmLwLxY2JmSM9htRf6BfPfyYLV5nQSkgZ0oZwzOahB3sB614cDAZIsZPXo5p90bRkNN9i7U/O1AZwi/a4j0WUzE+/Iz4ki1+3urtYJIqkVLvbSMluibeax2SBBjV6YO2eF+KKcPXzA8wHwZqE+yQ4hfTNp5mSkcBtie0vMlCJjlpIQ6N8Aq2/GAei0j3fVL8SoryIxwmocFaBW2kgpMWDkUl/GGztvhVCyHDqN9LNJI9vsMSv23Qyf5I9Lst7IkHA2RiSRhguXA6/rItfgc7bO7uCcv0KQsLjS0b4fS/SvG72JkQbGMT3WUC/q9t8UeWFicWXUne64v3SOxum1DhLOSw7B784gRVsJQHYNmrj/kLP1za4pjMjuwGsY42FbHa1m+FiLbTCXgDiAvjdX5ggPhugrQa+gfVdqdpoIIhY7WbYovqq07Vlr+lrx6XVL3klDcMYlkh1M30CnZuxAm5yMNawmRx0htgT2TCBYZG48kQ+deoe1N1T6QbIUzMrABckHtEY4uDuKUf0/Ul3W/FeKuFsAo3uVRHRPW8LYRFKxsHaOWu5ilXS8JYpwPow+ssKRcbXbQcgRWsHPqcvSiwmVMmkOV4vAE8jrW6aAITmyGsehcAgwCrjIaWkeqnpnijJezNBYy4vuEFgad+GCjKLZ/fjvGditfhaxSSXxRa9/mBLP5QX1NZGdJrVlz1hQIb9+WtDbe7lXxLoYCL+vJG7qmiRrSdCj+jkLxwxS9N5bD6TYTlRWTyFsLKIjp9TWF10wu8Up3KdYIvuKiPHaGytoVbXP5Y72T6hYdT6VeU2JUaRPf4nE8v0qjeLyE6kxHpcVye19lLyC7P7opSy68AwQ7TJbzSIM2TKf4qg1c9ptirDVZ3kKKvUZ8eaIZd/ljV9UPPZX/X6qUstzp8zy0npesS5aA7TH1lpoZvzqlhnsRFO3Qx1TZgYR9wnalCkhqoe4UVsopwvayC87yHzPp5K/p5SDoXROxs0Ae77K0T2M/iI9zDQJ5j+/ZL2BoaFwQZyxhIOBDLUc66bToAWY7VO8HqknYXjRmbiWngyDSph1OO2jqEZT4bIZKPmBlm+Z0h6+xn085y7S4as86IxN6Z9JTQwWPyXIIhyBk7fhcocFyAd2smArFnSHTgAIFt5b2WKBziNkZV3meJ4sE8Huyo2vstsaRZhym5JWeE69FoD4k2eB9NsJlwsBC2zLAlw0VmrY2UJVzpeLSHMWBwMQY1C8GtEYPUwh1cdveK+11hFUcYr3ZZYNWPdvEclOmB8cH2IKqanzs09VTtnfzjzfTBD2J6+bepiuXL04lC5lJE3qVIviPpexV4vW6gPmHXxTAgTa9Zc30v7PKVu27An5HrBnuhh+wSGXNPpgALoff/CASzQFzhrFe0cEd6Xji9QqF6w83kCRs7UnYLtyYKuNPNHvf4bFGJ/aOQXn7my5Mp3z9AlKZ4xbiNEysL3Ss8dhee+DQMY2YAqSu4QlWv/ugalGjh4ZB98m1a9WNctYQoZPIuK5YLDqhZdrt8wRSIxafbx8YGPYEZjPZMdU3KgYkg+ba1wX7ckpaXQy8yAY8Zx/QJSzC0xlJ9HeKQlJBGq9FuNfX+JjBeRDH8SBrHK3WAoOJxbG36SyrmAylCveiLUnLaXbcCtdCvqFlOCLdbcyvQEJDwgzBBV38mk83YQztwyuypk8cXdGeLqRphmy/UiNDvNMtO6AKU6ht85qUt8y5Z5ggW3k3U8CaOG9AchTJJmaZWNXtL1SgOnOLTFI1emmWnbN72FoHLaEB/lTGTL797ZZbDVshu4NaxFapWExcCKmKoXCkTb+U7Q/obZ9vxlEcTqLaFuE4BGPoMGolYCqCZYv45DhJmMzEoM5v8MwNQqGl8BvYz2FE8C5o7MgyWLMaqa1wiKxxaYTmhvleGDSzjBm0XSFgLtr+FDKE4G55vu0HZ99Rv20W5TQFJ85Nvqxxw67XPOZtOSlOohQ2aSPFcoNZzScVVdxG13D4f1hRyZZ3B8Gqg0CeCLU+FTmsbLb6fB+ik3wmIOVVy1McLTiMw5+eJlNGd8RifInng5jJecGR1qpZMGivQkKQRXh2F8oQOjuT8QtJDvtgEwUwMEmuiXRkt1ArhKeo4OpKxsApDgNAycNueD+GElAC+DJc3wFkRZ2KudPLGi/p9V3OOc+YUtYLmNNIRrbUyBKie/gpM+TJPW/0kK9IbIqAXX4WUF1GcM8z2r7EZ9McXRzh48fUcnC7gL4uiCI2IMdpotHOUYZc4ASzEdGaSKUWxzPf9prEaW2u3jnZox0opm54oqIhM2bDoNLOKTMNmRAHduv4igk0++rmikh9wwjyT0MiUS4KxVPhwV6el7N+uuQ6aARUqC1MGYV19L0D46rMbcrHZrAh8YkN/RAskwr07hbMfbJAyyaFYhQE3GImFx8N/C2HqBuT4Lbn41nL6vKtoreVBxicEGjcvkGWKWrhigYqkDbkbFhtuPMwyJAhbLkmQFJG4giz5ACMLJJrw3NIBz7Y15OCAQn05HdumiVRDFR7BDDC992LTK49HOHaDSW/oqFFwR+oZCFPFGdAQqANXys9RJMK6MRsGQwyYARYtw4UgxVWYlWHys1y4CCtkNBy9nlBulpe9UOKPKHjZgnbFps3fJCQYfT22wgM2zqaXyaOtXpqPO5F1iH0TdzK527g1Pd4q7kLYLlblSZjvtKcJjO3cJ07N1BonK66W5PQibpOuRHzSFmeUwMxivsoSZ8HOdO+j95nObiQjRuYc7mjUmQ69UTO6iGAfqCsXWYu/s8RViyjlXCC9q1VnwYXBJBxzibG+16So0pFzoGLZVXEtllDLPMZj8rq0munI31vy+mND1auQG+sNxwi8RNUPozQiYoLsxlSpAoybme+2ujHD4d9scEhe5V7qzN6tx05urKSCW6udCN5lwz2fvPcNt7TRxD6Nk2ATB/h6XTkPeXepdXcXoQ9gqx3cjsLGrhOWazxFolbYyGxPJTG4F8aiKKHWCmv6+hp8Qg2D1i9eWdZc/f5Xvf4IgVvYr9UYLVvV5YGuR31e9Hl9kFopqnSUIm0XW4NOQVonDct4utNRkDUbzCBhUM2S38HrhsJF3gJBdMV9dU0EaCkioxADRPtySu8dYDOv9WL+tmVlF+oP4eZxq5Pp+BBKx5z3CdxW7A0gde5SqK9hHXJyOAlxmas9y54nE+CpCCIMTB6JKES4IFycZh2LBgNL7xqtlbmaiUymyK03GYi92HHhsrMpXmY2S4uUW2aVji9HsmYrmxgOM9dw/zu90WEvZnI4ebkGxjbB5cDQDBuaa6l6JaKWq6Scfmhdq0ChwS+pkpVOrj1NSN2umNbHOz01n/uElUMH2FdgIuMRf16+fZxjeYjrSCF5KsY5caLMBM8Hx0xPXfyC3txZpJ7JCiFQaDDCP+0ThVS/8ARkepD741k8Gc9M1YpxfjBwYmrpw1puxbGuGaqvxwAS1XbuJZ5gPDJtBfNYCX5xguPQzOvz/eEi1jqGlSBPiUAIa2ltY/cLdpCxZFyP7kzvsXiNjbgsdThpCCCElaVjhe/iiKsyujLkG2KIqtp4ehun6+RHH8tjbDKqs9faQo6ii2nFumSMFY7RBpTMBhjMZRDXNKU3akYXj00Bk+qng3udjfg7OarN6Kt520Guy16GRpbBDK4Ys6Z6kce7TYYXLPDB6OKETw5dUL9eEW+2RZHGXdYaatnxovoZhTVCUu+INqFapm6HqAfJE8eehsvcRvTwdZ9fXPu2GpKw+bUrD2c+JTEHmT8N4gDWaHihrliLj25ER+qeEmOYKC6YGN8n2cPa8208OE7zqyJU7ICLiBwT3/aHecYLKyOHvXiWKIfmLl4P4V+KDsAGtxlvseGOc+wLUE8YXcrf3l7Ul0RlPYT398OMrVjRp0aaror+BQ408tKuOaLLDDRIR2SYmkHE4m22XByk8h3IbmVeCPcECbcq11KzhL4u4aF0vZC9tOUy2nD21r/nQ/IBYoWzxYLDMcLnhbpubTJqzY7oDCUZmeF6FRktj9uArOFKcrYd9WYQKezUZQ5CpRNECTnctCY72DjQKQdk3RSjZ4wZywknmDLFSC0TMCBFhssj8WKYIv27jgOLdNrKub8cVneAcUbiFbZYTpUW14or4210dIh5imW52o+woURNzfMEbBZmrDxwLF5pyzW9xInXjcWrbH5sZNFH4trGlqfQ1RSjXROnlcwSmpo2WFjCmQV8+zJ+Eo/fy+jQkCTsK1xZuL4rJqhlSoNksC2v3MlJ6R22uOpwQR7vREAI89yaImeAtbuGHwiqIjYLIG0okRTX5lxH4oJwV4OAcAYBG5fxRltcz2qQruKbbHFDKhRHnUQCCOrG3fHOPG6NQhCbZ6V42H4q/3fZ4qYAK4zDeG+yf9c8Uunf2ESE9BpYAESCE5gpjIYIM6R0RpbcHkKA6nBvzAkKojvzI72OINI6oaMNjs6ke1cGcbsHSVGR5Ax4PzroISc52tNZW4gEkRDwqmrPAFGoy6KAjkrMEBRNxncZJ2rI04fCYD37AbAhqDGXg4l6eDkGqsPPPCAIa2QpY5hgNgQ8QMmBCJ3zAUBQ7a/PGXtPMBvjpp8s0t3TzFAuGA40GW2l6bjX3wFP5NIXmncWl+298CkzdDUV74O/mySMxQds+JJEX9t5tE6vi/fD2BpgjKkI65Gkoj3nu7KgtgpQl31GqPztUgFLYaw+Fu+2ZVGJV7xMyiVCpV4MC9FO9BHMPfeGxlaXezs76EAUxErMLEeQZv5Wk3rIgbxAnEjq5THGPdLoF4k19ctXDKooTirQqBMOd6qKm1fuOWB4Wnfc7h0NsZBAnIkXlFhdcNjybG5qqb6+xxZX7ILTpk5UYhpXKu4etABaDyd51JrP4kE/ckc7Q/gZnD3pmSHaqxRhG4sKP3qvuHoQl3FehhUP4dCHnVF/HOCy/IL4kC2vVSg/yqGu206kHosP2vL6abSjDTaIXjqPYPEmQbUsblD9lBBX7ewH6ke9VQxYT/1G1ebiaIjcGtftZZZ42GSMVNLRaMdRaoNsmbgp/UUcbggiFRjywzwPRxQ0O+IbGZ7O+9cxJMzgkZXB7m55f84z1Vpu1eCQpd7bl5gGUz9Sb6IZigJ/r8IMtRQFDRt5F3XNi5UrhaDQw9IOuceO+rkC1jTcx+oRhS6Wt3HE5/JDF2oDON/pzv4RupArk0txq5cjTuZ3YnJ5/Brnl6gL7q8whWSGYKk9GFUcczTrEIsPY/dmtcT+SFbYJtRWPTQXORQnl8Mu+cmrLEpSwjJftK50Uaiv74vkT7TIlLRCJbVwTAVc0wcqOU0aFZ+PwivkswwKiTwhrkZcpwlmolpvOSFKiTt0fQtrOXVP/eUmnTwHwO80+C7u6VVCuNhQqf+l/BXUctKJH+lXVLLOlr5+Z2kfmmsxz3Up4eqMdNYXm8BD3AitCWsXEjM1xJBILfZiZtAKKtbQ+BeLYnT/ZArXA93XqE/D/R2YexzxWYYb5u0VjXkPsqpu+kiaWRJX8D2A9BrC/EUQXeXfB+D35PV393WmVV2NmD9PVPEoSUAF966OU+dKF5stXNOwhsoSLmb4947Uki2nlS7uMRKSlXWff7ILV/ZoQH01X88TntAfAl5TS3wSvaA4pRffq3I0p/FUU/9JiDMYb7eBi+FuvdXaUDdNZ7OpQ8+itJKuw6cQ5mZoZ7o3Z85EZaVSvWskq6uSNZCUTtSDJtNN0GD7U/hYfMbOrvmpRwjRVQvzcbIPhFKsj+Nx9LuobZ/A3pc8GuD6CUaGpwf0O+k1JnbN/K1lSk8mm+wHGdb07vsLx8aiCVy0Mvo5AH9oKpgf5mjUzPT9DW5L4cMQSpnJYYOSvHTh22aibj6BIRwfN3J1qoTkH5nRamQ1nU0UtmO+2FOo8bOcxdqt+Hepdhv+Xa7djn9XavwU52rtDvx7osaInJJbS5PxJ6st5OcJnYLOQjcDgKdJc6ZG7FmYNoorFnL5V6qr06s6/PfqhtvsoLymzm8TX1sh7rpKiH+vr1C5bqh66x3F40ZAZadtJvCwhr5HuAkKj+LhvMJ+hMt3Zh4JDWwp839U0HDUZ2IezVE9Bgl/8nnsXfjncZUqn368UypxmE8wF1lP9Nnzk3xO4MnmYvwp/FMUKJ/KP8yG8mnQZBRPD/SfY3vGhv4qNcwUxc2BWqBbOJlbibiNk7vdfIL5mSX1BeY7ShVK5llBW9nXnWoIz95SxXPaXjnUE35u0Or46rsUz/ManM/zcUbiDF9Qd0rq7wu90Gu21Z/CeFGpE4ZqXRx9GwmoxPGbu5Ryqx0mwqsA1mvo8h7NgXEDrrY6oea1jkQoLF5JstYADYfFPydUr+gPZJ2ru+v61neDPsjn64zCT9QtHYks19zyBtKtgC1+gcf8aTkbN3tcjAIlD5FwRsUEzj2zlOD4KhFZL6cDX0mGWFKiWE0oTuDyEZlejV0LXMcv1zSzk/nLXP6tPq2+p4O210xHfEZnggGdDR0K7woUkJFa6yu5WJrZVaHvuhwZ4KuRlyi1NP4azhLltVx1jbqOk0B5PUs9rhvUaBNp3IguSA7wYWSL8iaWhtXDnTavqpIvkD0iM+ZHLpjUozLLeLRZ58dg8+s0mqmpPrbCL5En28rjKtATAz++4vFlrpZy1E+oZH9n8Yluo12Di6AqPKnqqtzLk2GGWj+fAi1wffWN+6cm03kau4P/B/h0rbTP8JqBi1Grnr7BTPVmlmYFb0EkwjW/NdG125o6P387dhSWz6Tk1OUxKnfAoeS/yfYsX/3ptztRJGN4NmAOQzF7TpB4g+fCQqEf+nL6ebBT5AKT6vMpBfb1AgyBg3qhMfoXhYgvtNygPC3uswBLJYd/iA5QGeJv112ul97nKrxuQM1rVqmRrjHZqnFX6/C7/CqZHnwNKQ8NeVpZAZ1zcFPBMW3UWxx2Hb7jro5SjIZ+fwIQ+DdU/y1FXfEcTdxOobsax167tWQ/7pf5Cwf1UQ/1FzbVWVnvjhE2HW5JX8WWlG9ygcdmpL6syK1ol3gcDVRGrDFGXDrASfT4wcEuMyxqm/d3kaL212lPouIFuAA+323fhor8P2kFAACFVG1sU1UYfs+9bfcBAwLMFnBzKh8K2CLxg4zdcxO1RRSRqYn8ucYKZWBmNbNFRN26jSGkFb8ioBCBVgWNU1Bi4LbEiVEIH3OtGgXBGCTQSvSHgkLQxOc9l7HFPy67Pe99z3Oe93k/zhVCI52G5k5uqh3WMn3B/AdiTcuaZ8yfNWfutKXhhTMi0TiNotEkqmkc1ZDLJYg0cgn3HY8viD8WicbII8rbiKiCRtAejUiQIqSryaW554WbInU3DkCG8oI/tSj8KDaHi6f4oKYOXsMHZ0djkZZouLnu3mjz03W3h6NLw0+Sh/6fZo1gARXMJCChyh2+6dYIVXcQJeqg6bouope06xU93RdpijeHW4gmC4VydRL1APmTGyQdxfQzWieNyOpLxlgxF7vL8POwmzwu/EOtgujEWwl4W6fZdSSE1k492wfvCN65E6K0DurpHbyjeVp91ngSOuLMu3vwju5pTfknU3lFhRD/0aq1xfI366O/6Tyx77w+ddGMvllXtF48s1kf7pntIvdmDw2FeE7fRWVUTlQlhrWhZ8NdpIRBAgejNpEQoh1pCuoUtEJQl6CVgp4XtErQakFvg+SAoINCPyyoFwiN1mnCI8DJpa6gIf3FcpqxSiS8qh9dgs5WOU0Zy+81Wi1dRRMF+PDGHp1/MEGCJtGVNEyMacf7OJpAU8kvuoDyuHa5SWSLLfKhWGNOj+cNZWSSI2XIe3ymnkn2Gin/0YZSeoNhFzsMHbsGUZ/BayZZK5Ujk5wrM8k1hs9qlrrP2mkUgl2ylP7DiOdfkLoVGyN91lo4TKDekHrKv0jaxTfxslJasS1SJ9osA/ZbMp7/EMh3JHR8KlP+bdCwD473JesAfDueXpkt2lJjw2flnJ1C8Duc5SOnpF4I7sC5cwj3qlpBtkQZ2WIIztMcbjygR3GkGs4DUgvYq5DQEUd7tvg74P8gKTJBdi2UlZlOhpWmnvIvh+YqM+V/Ra16Kb1JGSHvDhAOMfWAvReCKuH4GgrdjPgZCALHbyD+lUt2AYgjqPQFSbRLao6BgeNksDpGIbjO0HzWIWVA9H7wR1DSPSjeSAO0HwObaAjYaWRj1yPPl0HZmOvvJq45JRhioAWvKyNbfA/rNgNVy8HoM6zYF6hJWX8ZJyHJXrDd1V/gFJfvIGSvxs5eOFZyP3dDSSdy6sbaLqFkC8gS2F0L5HPcgiTgy+FYgeotY0cTXmKKOZN8lDluADSM2OPAcQ/PRCV6UQ9EJZ6x/Y6jGKUpQHYbqOscjoLpc5LieyMyyagRsH0sN4rsHpGaFfsMBPUmKndswLBiNaaW8h9wjJC3BjKiUhkBezGfqjYHGZcI2SAR8h5GQDSFjUIwwMcOQ3WjY6gYROcHDGAdMFai+0kE7P2QDWfA/h7xxpvKSPknmlo8H8QFu2yAoZTWMV2XjJB3gqlli7cpKpxyeOgXfHJ91kZQ1OcwGYuVwTXFh6IBvTwF2BMo3VakcN65tCGvutro+GqewEZc1p3IZis2vuX285E/0Y8p4HKZuAkLUasqk2i9WjEG3coIeT9H7hWM4BQ8ZjxfQti/uckXsXMGjwZUnu9ZuemzPsFuuVkIvihRnHKktlwioxNI9rKRlmjSSbCl+QqeBMNu7j1G5hBPVx4vP+KlB/JKHIe/EmdBu16tmIxnlVEIPgjEaZ6d6ZiZH0BYi6NfsqMSdf8IjkogNkiMQiVuUYezk0mGQFaHVc3dLYh/HN8DC87tBgR1MBT12qhWxO9WBn+H4vnXeDL3ozTvotYFHOljxzGI+QuZnUBYDFM87zatmOA6a/gOfGCU0ueg0DIQ7hSMPQ1W7Cuos2fi7C4Y9TkOxyvRvw==(/figma)--&gt;&quot;&gt;&lt;/span&gt;&lt;span style=&quot;&quot;&gt;a47e&lt;/span&gt;" style="ellipse;whiteSpace=wrap;html=1;aspect=fixed;" vertex="1" parent="1">
                    <mxGeometry x="170" y="270" width="60" height="60" as="geometry"/>
                </mxCell>
                <mxCell id="28" value="" style="edgeStyle=none;html=1;" edge="1" parent="1" source="25" target="27">
                    <mxGeometry relative="1" as="geometry"/>
                </mxCell>
                <mxCell id="25" value="&lt;span data-metadata=&quot;&lt;!--(figmeta)eyJmaWxlS2V5IjoicjJjWFR0Z3hsOFhHTE4wdmFkOGVudSIsInBhc3RlSUQiOjEwNjI4ODc4NzQsImRhdGFUeXBlIjoic2NlbmUifQo=(/figmeta)--&gt;&quot;&gt;&lt;/span&gt;&lt;span data-buffer=&quot;&lt;!--(figma)ZmlnLWtpd2kZAAAAdzcAALV9eZwsSV1nRGZVH6/fNffBcN+nczEMN1lVWV35uq7JzOqeNztSU92V3V286qqisqrf9HghIiIiIiIiIiIiIioiIiIiIiIiIuKIiIosIrqu67q7Luu6ruvu9xsReVS/N+z+s3yYF7/4xS9/cfyO+MUvsrK/JhtRHPf2ovBoEglx9lzLa3aD0PFDgf81WxW3W645zXU3QFV2AtfP1S1F7TYrgO3AW286dUCFIDxfdwEUFdANXPJaUrSKczfY8Npd3623HD653GyFXvV8N6i1OvVKt9Ne950Kn18xYLfSarK+mtR9t+q7QQ2oE0HZbbpdoNu17l0d1z8P5Foe6bvtOpEnK161ivJUue65zbBb8tF72Qk4ttO5sZ1rdXzMw+XIzjj3D2JM827Agkyks7OD5QLKd51Kt9VUrIWqbPleyFHK5rgftfd7cQSyMppCxQtEjdamAuXWYNQfjPb8+ZA0zVbzHtdvoUG0KqqdHLQ8HoVGFyhRaZU7DYwboCw7zU0nAGSt+61OG4Bd9Z0G6QqlVqvuOs1uq+36Tui1mkAWN91y2PIBLXGOKJfrnmK74tbrXjsguOqDCIJVkjvhu+uduuN32636+XXFZA1dNStuBQua0Z0M3bs5pFNB3SsTcTo43yi1qAVnvCY6ayrs2SD0yhtcqiuCmtN2u1teWOuaZ68st5pN8FQDvKpMjSvVW+UN1K7e8irrSnuuAa8GZ3ptw614DoDrat56rY7/2Hx9AAZ6sjcYsIvF9usOO71xywlqXjdEz6g9bNPxPaekxn9TaICHK6Bbxnqg9oiExOjuI4P93iTaGsz2w+j+mZbMyeCujuO7aBV4yCyixNgaLWUPVggWXCYoNKp2Wq20tjjOwuXWs9h2fKdeh2VAeRtd30xvaRFdd6vELrvN9W7Fwcgd1fkK67CBDiurrFQ9xfWEglv1isslXisNo1G/ARXDcredIOiGNYxlneYkmi2/oYxYVhx/w+VArUanHnraiGzqDdSiBBtBtVBu1VtpraikoZ5ZCqD4ClKahicqLUgS9RX9SFJdzaR0ImhVw67igdpazfEraU0Zr+u7Wp1OuXeX650AQkbldE3N90zghJ1U48+qXgBcUe80vGYr8EJ2cWW7NxgZ+a0ErbpHQQmsacWDaaE3DhUYmaJYqvWAqQEkCrKiaQBnpzgQGbEXvIajZlaEuZ/zACxtehWX1r3sHcDPBju9YaRXH47Sd8OyWviqx3lKSEz1FmrJ2e7ubrRjRlzwYCc+3KQDFUKjqPitdlaV1RasFpJsVmBAHQ7QKjnljUWUTQ0uK+e01IJ+efB1QItOGw4Dpay3thSAIYR6DAE0ot4tO226nEJWg0r5ZeXQimRaiXbG095sMB7hmcRtoWfIF+sKWGK63oabaZtVj3r0g+F0cIBa8gx4d2uukbxszg+2o2lnNJjF4Os7nKpoe3e79QCAxKjh7ElplcejeDbNJLwMyQMv2K6mJBsOPbmFcZhlt4MyXD2AQhUcK139RNFUFPVSMJuOL0TOcLA3wgMpMwH/BsECkK1OaEBLE5d7E2hkMh9MV6mGTD2G5fh+a0vpGydh66p7V8erY7eAqQNZMDpFI9a7URHLB+WDC0lRS3knuJy5ue4tqK/k6reivpqr34b6iVz9dtTXcvVnon4yV78D9VNlzy/nez+tZ3tuPODKNLD9+cCKkrvpcgYymbhVGo+HUW/UmkSJghQ6TW2pWEY8Rp8NWAadUug7CrbuVgas9FUtfm08HTwwHs16QzxuXGBOttBltQrWuQ52m6qnRpg9vRlNZwOYHnGtNppyj5ZaYdhqALIa43kclefTeDzF+lTcqgPfhwZR9lsBLM3zAUv3vEvTg+qhZiEaUl21HUwFvrAMFUe90Fb+r4ii7NUBLTXoUfnIMkSMQArQSio/VV3dhLGPp43BdMoBpFakpI5SKgAeCJ4RPj2kCluVXryv/YlVxj4ElMgUXCqfo+2h0G6uAyXOtV2WMthkYbUrDIts9/7JeDo7bkM2Nme4dIRsxlBEgsDWrPqXCSI1WaveOxrPZ+vTQV8zKWizyq14NkBLW5mdPdPuzWbRdIQmUHltZSHw0cpXSyXP+WzsR/HgAbBOl0gNR61MOg6ZQhYfC6fz0Y5RP6viBdzfyVMgfvXUyshgdjSMgsjMHaLzg5bxj6HrUENkGdqldQUhKDbbZpkbix26jXbLd1T4WUjYYDFnUbqSl+w3AGWyW8Bx9HYuaDGmc6rBQd+D1VUjkNgoEUUpWFMrvUZ3l6yuXlKrBCWjiwFsqwfK4zkGNDXPLT3Uc1h2Ixzb6YTcuQo5VkXF6tw8ng12j9D0kFzaTtntwhXoGFmPINBCU/4VSMTEgXeP2w1bcCpqPRYQ0DHI1Gu0EVyixhbQ6Mm3x/GAssT2AZQZp3BKWOWODsMV2daUrhhbC8Jzpw20MKWEcEawNrDQ8llJVh1W7PIE0OXhB3XZ8dWal7CXorTL9ZYKtwqIDbtJoIh6sdNGMOZ2VYDa9TvN0FMh+RIMpOIxMFGyW/Yog16u59MIVmG5irtwqui9y0exq6AuGy0curpqkS0N6wYbT9UYPQEu6AbEASQr6poKO5dA1cai0ohwzlIzXKn4zjrKVbRtuOeTx06gutnSYfwaYD2PmpLLybQOY0H9VDjtjbQA9BxuxG6IKDbswn1jX+RsQSZgZhDIpgtQVnFyQ2nhqIAQv+q30kDWzqESN17I4bTDLuYwqcdeaneCmsYZZssZJuG1kqE0q9UMkXI6wdOZxhlOaxkm4XQyQ2lOpzJEyum0HijEBKKE2ZkFZMLv7AJWs7xiAZdyvVL1ZLCG6VV5XMLz6jxSs7wmj0o5Xgvf45W7bEPtOgR2OP46TbgkZUDXI4ZvIdTLMDe4vRj2piV+GifmcqfkldEgyDqpSMTbuapFv6HDZTxBI0qbCqRbwBT1swu4Je1y0/py0Pa1v15Zh9PBfpgiVg1pijihIWUCsFat/2uLyHCLruPkMWQN5xegTwU70/FwWBlMta/AoI0VfR3vjBVW3lM/C0czo71HfXikWYR29+42NirtAcvgwIhH1eR6B1uEtGLkGNAZ4GUhh2OELQq0yuMh4gJZmIpVIffwj7WNf+we/ino0AEP34+aPMI/lg8UqDPERfxj7+OfguIUzMYTPLBDWLxYyInxqSCwGr3ZdHC/kEsHN9+Mujy4+RYU1sHNt6KwD24hsnBwC5HFg1uIXGr3ptjtvFE/wnPW3nzQF/fmmK4JS8fyaDzsDecRnpFzFdffJKwqVqnZO4iEtHd7B4PhEehlzI0UgAUms3hnOpjMULNJu9mbDnp4ZH4QTQc71cHefIqlxdZpzq8Cagd5ApA4+KpEFGDVzeKjwaS3A6VeeLaN6K4FeRqXLXHENke+yzCoUricYJ4DXCXSJgpGsAN1VvLNP13uTWIoc/YI7E+d/SSKblKx2i7OYRy6DUQ3rTF+RvKKYBEoTHYd4FKOfztZ9/ywEF/jX4TZCG0AqPEEapEhnJTKg04rU5OI2JWDr0a9mVrgv5JtHM/QJMq3thWJGYVVbgfE2xwNSjVAlEWT2loKvCbjzOWWX2miXHGqPttXK03ljE40Ow0OaQ3RMNM7J7EjckqnKro8zTAZ5RmcJlmedRwVmV9R1uWVOJqwvCrQ9av9TZWUuIaGifLaYEslDK8rB1ssr4dwiL+hXFZ5pRsDHfI8rOaplOBNJtp4eMtvcnyP4KKgfCT2N4ryUZVQHUAfXa07nMdjGus+N/DHBtA1lI9DqM/+H19FZIryCTVdPrGm+31SqOtPvkuXT2nr8qk8vqB8Wr1aYv3prbYqn+GHqvyGtn7+5vZGk+t0Sx3uA+WtKDnO2/ywzvrtKFl/plPyN1He4ZQ2WX8WSo77zk3N59mbGBDK55TqW5TPc1GS7nkoSfd8Z6PGebygfE4dy15YripDeFG5repOueOTroStnvUynBvLSlXzd6vIMKCsorwV5TrK21DW0C3781CS/7mang96W+d46rXWOeoNwksVgTQ9BBIoW+faz7oTZftc+07yuetc+9k3o/TPtW++HWVQP9fgcyFSiKTvYFejXDYZvqDcQslx3N3YaBB/vllXgdc9zc5GiPLfYAPguO5FGaD8xk0sOMoXt4OQ+C5K4u/zN3zWe367xnLb75Qo950A4SrKfqjHEYVNdXDYhZgov71N5KlQ7m/q9sGmnvdLNjeUvlzY9EMf5RDlrSgPggCeV4gRStbHKG9DOUF5O8qXonwmyinKO1DGKJ+FcoaS6zRH+WyUh0EAny3ERZTkdz9K8jtCSX4PoCS/b0JJft+Mkvy+BSX5fStK8vs2lOT3MhkEt5Lht8vyphrhywmQ5XcQIM9XECDT7yRArq8kQLbfRYB8X0WAjL+bADm/GoAa6vcQIOfXECDn7yVAzq8lQM7fR4CcX0eAnL+fADm/ngA5/wABcn4DADXmHyRAzm8kQM4/RICc30SAnH+YADm/mQA5/wgBcn4LAXL+UQLk/FYAt5HzjxEg57cRIOcfJ0DObydAzj9BgJzfQYCcf5IAOb+TADn/FAFyfheA28n5pwmQ87sJkPPPECDnnyVAzj9HgJzfQ4Ccf54AOb+XADn/AgFyfh+AZ5LzLxIg5/cTIOdfIkDOHyBAzr9MgJw/SICcf4UAOX+IADn/KgFy/jCAO8j51wiQ80cIkPOvEyDnjxIg598gQM4fI0DOv0mAnD9OgJx/iwA5fwLAs8j5twmQ8ycJkPPvECDnTxEg598lQM6fJkDOv0eAnD9DgJx/nwA5fxbAneT8BwTI+UEC5PyHBMj5cwTI+Y8IkPPnCZDzHxMg5y8QIOc/IUDOfwpAuag/I0DOXyRAzn9OgJy/RICc/y0Bcv4yAXL+CwLk/BUC5PyXBMj5q/J40gah1QzbtbhdyCTEshhTNnqTCYMcae1OxwcMy2Zj/GuVhuNtIeX20SyKhS11tkhYNm6v9lkfMSJD/NXvzXqKdlnYm4N+NBaWldDEt3WmQxJVB0OcbMuMJp3+S5AgEHJlxkEhzov3e/3xxRigtT/Y20cGYh9xHyLJfjTrDYaAChHmEjPIQER5iAxFhDQQ4KVZdKDyhrpp+XCwjbPnDuEVlc7X3ZpbTGGd+P/b5Q4ipmkPc1sVq9tT8hyhZ9ROqMEI6xolgLNC7nAhEFZbY0aYMwbg9uEgHmwj2pKigMLcwpwWxRiReCz6cgm8R/HueHogdsXyQEnj5VKsKCjcR/g84tCBWu2NgMShwmMTMWc1BiEfIlKIbVlcgXr+wuFKcWI6xhkEJBjMWswGACd31QqWOV4juFdKcWrC+VRVE7y0OB0djF8yKINPG/lerOSyPHOoVOEVUlyJ3OzeYIRzCnvcGvRn++j/qgVsLeJqAX31DntCmCoetMU1DEEbkEgFKias4oXoSAyF3AW2PhglD0GGxFQGexFGZ+OMgJoOXO8XBVa2NGERyXvUwHyg52nZPdzhhr09dCwJNrk20NbEPlSKWHd+dme/x2A+msagkGlNdeRVOGUrJtw6jKbIVEZhD1IUr7CkPVTpS5Xeug+yxf3KEKOPseXI4t7waLIfY6+RS/30jiTGTiOXt3G4u/DS+Zjm92Ypz2o2mxgASDDilV1MJl2d10i5utsbDreR2KqiIRZDeWIf6jZFZxdK4/vB5fVSrqEG6EuWPDlLc544e07N2awoThl81E/X9/RwvMf8uCIJx+Vk7q3d3TiawX+IVXmmlutLWIVt5BP7sYAHmWsPYM589n5Ch5C2iOyhWQ5hLcPe9KnkPiEvKjWBaNl2HoBNIB1RgTUn3sGZErXl3cE0nqXDwtoUYT/5+tI611lYSzvjg4MeBlbSDis7gd4ntPgwKvixXaygEhi6upR5r39oTH6pkgoNXm+KMzWmDLeXcqIXNVKEuh2ai4YS9Bsro9CN3hRLZhYrPwZ9aFfC5ZOsNKPZxTHIzeBH8AW9IYbZV2NNpnCpBtLNI3WOBZAUQyzulTI4OtgeDw37WFXQL7y/hhMmMRlYOIrT8QQYe1TFOsB5QSQJW2iA2kEsS4lYToBD2INjIzzCejSiu8QKmb7Gec5yHkdVyHKdWxTmcTRSB26JbWWwu9saDY98+BbYo6K2KzhUH9KvHcxnnJ3yZpqvtcgXFWMnlhNDS/1oFzT0ILDepBFqCd2foffxfOL1QcDl4RR6yTPvkqTBqnoP3awWzHvIduVwMFgs7/+FIohmD00UQAW5QuwMuAgJFeigtbo7GEYbel6xagQLbN9mjrUedmLkRciyDbkYWcUIOWUh2duLwwF2sekRBRqOg/k28ynbICNCfKuk2UzGI1ib7mh5Ptod8iqGKfY8x5VB3Emaoj7EuKpHXU6eb/RiGJGWmL2TYDVXOZlvDwfxPpixX442HIdR76CejY6dWMc7sT3EOLTIFiZNFQhmnHWmamTV2g0uYqRQHkNMDcVGvDCERSW6PN/NW/+fOMPue8MgJ5DkEc1aX94La0WFBFdzJNj4VEigvCqs2Z7iBnzO+KGQxQZFFGlssBRPplGvD4rleH98EWuNqKYUYQX7ND2Qr4QMGpSL80a7DM1Uf6GQ/bm2SjxstbH1j9lQiQ4HO8mVYJLM5GlXXVvKMvIPKiNjKRzym8yDoQ7D5IN+EkHA9M3D5fJWV0W48lgn2CNYQbAPvTXuC7PB1L0+5DHYHcDZQnHxlOb5MQRGLawh9sG28dohGYiV9H5JIKWd5L8l4bTFYi3JgttIwmIeCWXBVFPiokEk9LidbXbUSX/ZDKCEXXYPTmMEmUOf4RExGvSSzpr3QEgp67sbZtfNSwDyEgZ6DumTyGR4lW7yisql5A4UDVsRtcyytlO04vIpLGWGKicK1ewhflVrqKhEselsIpGmcoUCCX7zjo0MtlT2zmLJF94UgW0y/eoOreAiKJ7OAsTCMNIYziee7+4iFQzjHTCOUx3APhAJJ6eObxZ2fLhHi1fRFYSIKk4d1M8Hoc+oteYz7ucMttAOZ4M1RQRD74/6Miiq4+kOrI9vFMCDXIiBXsHO4WzH4+F8Fpn9E+7GDHBz3fQgLK/abbquyag79S3nfABA1lU0xTtlzGLGYd8Bf4sYUFjwnam52aP5QQBDxeLFAuGKMU6cCWKNDai6CAT25nBHU1Nb3jFrvzKhl8KF9Z1idR0eGEJTMSc6kSmrxN3bbTgTEFyE+WJ51RuAKwKOYSFk0Xs8XApChIBgyMEzWawViG9goEBm2W9tEGOZd+lst1rVr1IUkIdr+YSK5u58Ca4Dblrxy+0tui/tGpNN02woyXZEAogEk6SIMfqYGPNIDFkktoq6lW1V5v4DvgrKiaUCQukZZYMp4Aq4u1VzYT81r17ptqpd3YxUNi7U9OuMmCFs67xp4YOWM91JR4GQFovojPawijjxwWnmqtYAF7xTP/GvtvbTdUSleHY+HWCEsj+IJ8PekdLaNcYjqqqUFONvD+c4vpjeJqqClcRjiFVwdsADF/RE26rNj4Y9hNX7+oHCRCH1Awc4I8J0AMJslKgB2oO4Eg0jROFQwkJjPpwN2Hs0rQ6iYX9TiwIC2oHmY+2hDDJ/MYTbIEyQcVqjx6MrJJzoh7kOp3tEYRkfaGuXB6iQeL1iysMd9Sc812GmkQG5vaAnxCiTRL734QZId/Z3sJv0YQCw22GbT2HAOXJtbngMJJqWixsAYjuumbxKBTd4uJaEM1LqioxvgtJ3zclNvX60MdCDQzcxkOTyD3CJmaGl1JA03AkUFd249VJrS7sH2IxjZi9N0NEYH0Zm5xwP+xtKpghwofDVVJmtHG1tgPP69MhDmgCPxOM5HJdarD4XS9fLx4KOrUF/L4KhYOgQpYW4PqF3+wMczNi7PRtAUWa9g4kXj++8A1lVjAMucApCsBhiRCSO+g6P0TZhLIpyDVbF5fvXmJTYwpW9W2o5PqcrYbcXNInt1Ns1ppp5WwsrcwFJ9XqkeUtXhfI4BI2gqNbnE4+lThP6/PzMyX4vjsSSsBSgkXdM4COSaz8khHJVTfCsGbs/IVQooFF3jnrK4IosNerZg7itQ0MGyTCI90iEUQhRJ0rGa+Ij1jCTgFqvf5LiZXmkEYv4Zyl/2Fjmr2vvBi1eFrcYUPcXDeJgvDszBhiwCZ2+VyJBMB51Jn2cGMxAfgE46MEwoflR1PU2lWB+XMaEQswP2T7kd1W1sjD8X098K+CfkZjlZRzrlyRSubmmzEt/USK3e8zTfhQObh9nJeZo9OAwzXsRlxp0boyq4e1JA80oQ/9UgjbbatrwrrRBhbFZw08nDdxZM/S7E3RuPNjT9TDQ/isyVsg+kCTBXMWnjXyI04RJy+/lWjhg4j6Tw+lBEfv7OSxHRNxnc2FTuwebi3GtIH9DXnaEpZQUo/yYki6kvw7MBML9Cww7qSK8RWJjdrRJ/9+a9iFR8aeW/PtEaGqHyaT2fikeADeFXVTubwKUPpA/XH1zvmET/LWsv1WjU6eSU5oPSGSSYkW/qHGvk/PkBAXu+U7egfQaXFTnIZq/mhzSsEy00s8ndSXmP2awokexoWzsC1ix8q2Y1J8kdFG6ea3BHnQSsLz40L9kXLiolWg3Fh+25Kux2eXQWMpYfMCS32OZCXLCb5PipVlVWzNFwaRBkOJ5APsWOAUex3DW0A1qAt+32LWDHXVvdIBaLD5kydfggIJcrDONSvNtCIt78y+k57qAh0Pcgch/kgsonBc/JOU/K1+pIry3SjFOKnqIk+SBenQYDUVR/IZKaZpo8poE1sQevGhvb9qb7NORYrdbFdceQ2nCcyk2eY9hVVx3HKdJN2YwIwdp8PybtE8Sj7oMWj8Qpi2bUHrmtMRTxKMvQWriDvFl7AriWvGYBNZNm6zmkmjXi8cuYjTZ1hAbtsn+vUQ8Kavp5nu5Qk3sF0gPPzmBddM3KnYU+uukeEpS0W0vJqnKvYxwT3JwMB7VeVCa4xQKyX7bQiu25vtn8x5ixIziZbCVlKQygIFFHDK2nDzVt+ep9D7EpcmTvDxPAt/BvDjQ35FHB9jiYT33RNMxml6Rb2qal030iy4jXKle2mjELSbI31/aijzaDocuprh9zTWX+SLKDCn+HC7dZg5xL4sdEs4mYf4S3FYqytTEPwWKHuaj3+O/UXwMV0MjmPzeXcx9YiJ/kCDqWBnU/9DiQncQ2NTVCS1htYwru9l4D+F7vzVqhealk1g8IH8vxSNhmG/4jExzzeKfLFyf0ZDJ658t8TllYGpGRMW4NZavUF2XBv1B1ukPKVyoU+JEPU+8CSOOa72+H9ZDtGHM78gdGJcMqDXsOcgCXVB+YllDGv3c7NpnxYC64Xl4Ms3urKYV3fj8GD4A8fIaS416IQ7Z6Z0QMvqmohtf1IfGwMlAQCNk6E/lqprAOUAAiLGdZalRFYJe3NIncrRduYDQRFXiVETzckv8Wm47bem5YFpXXYLUj67DrvMnL9z3ZHVNUovVZm8ubVbFjfm6JmlqlHI14lHi4bmqJrhLY6C+4jHiEWlFN/q6rn6a8DjxyKymm4NdRABZYPCErKrb79EPaBQpnphHaJp/E6kQBPuWlE81sG7pZgtTNkmCW4+hNOEu+12PxgfRDHHrF6S8LY/QNHu65wRJqtsXUZpunzcTMDOo5XhSj3bhz7JVxxJ/v8wT+FzoYxSvzyhK49lsfHAZLj9wnOZyjN6QEWUtA25bEyg7DBQ694PHacIx9me0ZiRvlNyKEZPCJmN4Z8way68s7Yd4LHK2j2WGXm5tjxkJYH41tesD92MGp0ebot9m0Jxiivxxg1RzSrFvN1gIF+E0FJ0m806DRFdaaTHtnzI43VWKfpdBs6sU+dMGqbpKse822EDJV6PjxUX5GWsfe4veptM1mYlHiJsuh9eq0Y75KjydjCgJuGBT0Y0vUXXOCw4aY7iQr2uSoUK1e306eZAc5OuaBB0CVYYk4HqUkYqquF8hz831TwVq4kjVdWtFfFaqai0dtmGIDv5AN8FFqwgja3hQN+AwjRjrnPhDXdVhAuqf0/U29iFs0MHgAT51TvzVAlr17+HsHmNIf62b8gPXTRXx70zT/mDYN4+uT8d8hfZvdIsZlhIhsP9+AauVAOi/1WjFRvEPouEuFufvND7ZafGIqIvvxVkGSB8h4jSO7qHo74fQv0+j1Y8ZmuI3dc2M2UgKPX3cOhiMMGkcQm3xW0jU3J9UPmFBHcwVAQ/5Kg7+HpqXztYHzKSlDa/JGkroZy/zWnBk3yszVuoU/hEpfjiHC/EUrh7enENVsluIH5FRL32FfFO8JUfVxoYeTQ+jQCUNMelfQpyuUjloVPRtnHUyFH+VsSZ+ORuruXL4uER8DtVPMvYhmoQvfjXXVYg0y3hOmX04T9nooYL/lIf5NYlK0pKbwUeYlkDWUdWxZ0JQwx5T2B/NdRDsj+fDfgCVmTnqpQy6jN/PhuplrGPxN5b8StakRIEVUpki8Q+W+B9SJxIZ0kJd5adNfSHb+DdS/lmyNjxJg4f4e4nMWIpzcboF5r9mmDpmqg7B4h+l+FqGV09jI8Wu+t8yLJ7XuH/McGWYLYSlhhqL/yzl/8raGDalubqvSfG/JY6wx35DfVL8F43tQPLGiFfFf8cKq8PcZW6A3ynFvz508yaMBksKkxMPWiOo87F76XdIDHIHeKTZdy7UsfnMmZT9nCW+wxoigoQKHg6ii4r2ZbZ4o6UGZwJDhJtSvDlJOpYxdTjkON0lfgTxYT8at6EM2zAa8UpL/Czt9GCi2P2rJX7OuqhygLz/xkmVSQXxWkt8fw5d1r88XBavN8iKnipua2fTKPlh4mss8QOmvdzbwXnBAcMYa45TtXiDafFGk/ksTb1/yhI/ahq4zyLRDNt5q8HUxodwI0oTXm2Jn8DV65bCB3C+F7jAmN5PGtpGNOv1OaFPW5iixrmHXAnxSUt+l8G0sW/Ddx81otFcu9MHLfndlpKWP76Y+LxYvMUS79do+Jf5wWih5Zd0Cx7QuhFj10Y2QCE1+Rb3AYX+ZSTDYFM4U7mj+UGV+oejxuct8T+1HaOhgmEnDV+wxLcj1QAHisU+oQC9j72gp35cOIJGYdans5puLlG22iG6I46DruLMJUhNXI5URi1RFXPVdcWlWE3uxjA8D+YzVa9gwBKuX8RosvrBAPOpD1CA5AYUpqabGzNaF5zLBTgREDwsX9ckrW2owMLPcZ8gHnccp0nvhmZAC/IhBUKNx1+K1eTncc7rI6Wpfr+K/sQzxNOOoTThfXoRApwsgYsRC8inL6I0HWwE2QYlhJh72XPEMxYxmmwbVgeHzuxfjCBAfkOuril29Ms11AHsOuLmrKrb+7t0Ig2ceXDGVzKEqOJLkJoYtqj6HlchAyl4FE2qmuBQz6WEVdd6kTwP6otMC8GZfF7KV0usnNJNagHaXitjtftlPze6W/wYPBbj4+BgPJ7h1p9CfZuhw2k4xq3HffCLuseQixPjapQAGP68IYSgIKcdlenGmop7xPvANsVh9GDyixLXvEgyMlKZRqPKgB6N9/PvN1xSd/JliXRXz1zEfUWK30x8sk6zEV1XEtg0HrmIbXmEZ5EOQVU5/89I8VsqiTY8dtf/CYn/mwZucjMwTggwyt9O2rLV9biKmAkJPinx/0sonOxG/dNS/I4igHKou517xR+ptehhP5wG8wnX0ST8GYU72PiUAOj/v6iDtjJ4okusG+VxTvx5xiA2HB6CwZfkhegIeZK9PazsP1pYycMxohaXLrS9P0XODOv9l5IjpUfHUX6/FO2Op4hukIbhBO+V/8Gke+vYsmLxVSn/o5xB3EyucOXFFy3xnyAQDHS/hWQw7BQDxS45hl9EjgkwBvKd2PHiWRY8vsqKDrajvmLwLxY2JmSM9htRf6BfPfyYLV5nQSkgZ0oZwzOahB3sB614cDAZIsZPXo5p90bRkNN9i7U/O1AZwi/a4j0WUzE+/Iz4ki1+3urtYJIqkVLvbSMluibeax2SBBjV6YO2eF+KKcPXzA8wHwZqE+yQ4hfTNp5mSkcBtie0vMlCJjlpIQ6N8Aq2/GAei0j3fVL8SoryIxwmocFaBW2kgpMWDkUl/GGztvhVCyHDqN9LNJI9vsMSv23Qyf5I9Lst7IkHA2RiSRhguXA6/rItfgc7bO7uCcv0KQsLjS0b4fS/SvG72JkQbGMT3WUC/q9t8UeWFicWXUne64v3SOxum1DhLOSw7B784gRVsJQHYNmrj/kLP1za4pjMjuwGsY42FbHa1m+FiLbTCXgDiAvjdX5ggPhugrQa+gfVdqdpoIIhY7WbYovqq07Vlr+lrx6XVL3klDcMYlkh1M30CnZuxAm5yMNawmRx0htgT2TCBYZG48kQ+deoe1N1T6QbIUzMrABckHtEY4uDuKUf0/Ul3W/FeKuFsAo3uVRHRPW8LYRFKxsHaOWu5ilXS8JYpwPow+ssKRcbXbQcgRWsHPqcvSiwmVMmkOV4vAE8jrW6aAITmyGsehcAgwCrjIaWkeqnpnijJezNBYy4vuEFgad+GCjKLZ/fjvGditfhaxSSXxRa9/mBLP5QX1NZGdJrVlz1hQIb9+WtDbe7lXxLoYCL+vJG7qmiRrSdCj+jkLxwxS9N5bD6TYTlRWTyFsLKIjp9TWF10wu8Up3KdYIvuKiPHaGytoVbXP5Y72T6hYdT6VeU2JUaRPf4nE8v0qjeLyE6kxHpcVye19lLyC7P7opSy68AwQ7TJbzSIM2TKf4qg1c9ptirDVZ3kKKvUZ8eaIZd/ljV9UPPZX/X6qUstzp8zy0npesS5aA7TH1lpoZvzqlhnsRFO3Qx1TZgYR9wnalCkhqoe4UVsopwvayC87yHzPp5K/p5SDoXROxs0Ae77K0T2M/iI9zDQJ5j+/ZL2BoaFwQZyxhIOBDLUc66bToAWY7VO8HqknYXjRmbiWngyDSph1OO2jqEZT4bIZKPmBlm+Z0h6+xn085y7S4as86IxN6Z9JTQwWPyXIIhyBk7fhcocFyAd2smArFnSHTgAIFt5b2WKBziNkZV3meJ4sE8Huyo2vstsaRZhym5JWeE69FoD4k2eB9NsJlwsBC2zLAlw0VmrY2UJVzpeLSHMWBwMQY1C8GtEYPUwh1cdveK+11hFUcYr3ZZYNWPdvEclOmB8cH2IKqanzs09VTtnfzjzfTBD2J6+bepiuXL04lC5lJE3qVIviPpexV4vW6gPmHXxTAgTa9Zc30v7PKVu27An5HrBnuhh+wSGXNPpgALoff/CASzQFzhrFe0cEd6Xji9QqF6w83kCRs7UnYLtyYKuNPNHvf4bFGJ/aOQXn7my5Mp3z9AlKZ4xbiNEysL3Ss8dhee+DQMY2YAqSu4QlWv/ugalGjh4ZB98m1a9WNctYQoZPIuK5YLDqhZdrt8wRSIxafbx8YGPYEZjPZMdU3KgYkg+ba1wX7ckpaXQy8yAY8Zx/QJSzC0xlJ9HeKQlJBGq9FuNfX+JjBeRDH8SBrHK3WAoOJxbG36SyrmAylCveiLUnLaXbcCtdCvqFlOCLdbcyvQEJDwgzBBV38mk83YQztwyuypk8cXdGeLqRphmy/UiNDvNMtO6AKU6ht85qUt8y5Z5ggW3k3U8CaOG9AchTJJmaZWNXtL1SgOnOLTFI1emmWnbN72FoHLaEB/lTGTL797ZZbDVshu4NaxFapWExcCKmKoXCkTb+U7Q/obZ9vxlEcTqLaFuE4BGPoMGolYCqCZYv45DhJmMzEoM5v8MwNQqGl8BvYz2FE8C5o7MgyWLMaqa1wiKxxaYTmhvleGDSzjBm0XSFgLtr+FDKE4G55vu0HZ99Rv20W5TQFJ85Nvqxxw67XPOZtOSlOohQ2aSPFcoNZzScVVdxG13D4f1hRyZZ3B8Gqg0CeCLU+FTmsbLb6fB+ik3wmIOVVy1McLTiMw5+eJlNGd8RifInng5jJecGR1qpZMGivQkKQRXh2F8oQOjuT8QtJDvtgEwUwMEmuiXRkt1ArhKeo4OpKxsApDgNAycNueD+GElAC+DJc3wFkRZ2KudPLGi/p9V3OOc+YUtYLmNNIRrbUyBKie/gpM+TJPW/0kK9IbIqAXX4WUF1GcM8z2r7EZ9McXRzh48fUcnC7gL4uiCI2IMdpotHOUYZc4ASzEdGaSKUWxzPf9prEaW2u3jnZox0opm54oqIhM2bDoNLOKTMNmRAHduv4igk0++rmikh9wwjyT0MiUS4KxVPhwV6el7N+uuQ6aARUqC1MGYV19L0D46rMbcrHZrAh8YkN/RAskwr07hbMfbJAyyaFYhQE3GImFx8N/C2HqBuT4Lbn41nL6vKtoreVBxicEGjcvkGWKWrhigYqkDbkbFhtuPMwyJAhbLkmQFJG4giz5ACMLJJrw3NIBz7Y15OCAQn05HdumiVRDFR7BDDC992LTK49HOHaDSW/oqFFwR+oZCFPFGdAQqANXys9RJMK6MRsGQwyYARYtw4UgxVWYlWHys1y4CCtkNBy9nlBulpe9UOKPKHjZgnbFps3fJCQYfT22wgM2zqaXyaOtXpqPO5F1iH0TdzK527g1Pd4q7kLYLlblSZjvtKcJjO3cJ07N1BonK66W5PQibpOuRHzSFmeUwMxivsoSZ8HOdO+j95nObiQjRuYc7mjUmQ69UTO6iGAfqCsXWYu/s8RViyjlXCC9q1VnwYXBJBxzibG+16So0pFzoGLZVXEtllDLPMZj8rq0munI31vy+mND1auQG+sNxwi8RNUPozQiYoLsxlSpAoybme+2ujHD4d9scEhe5V7qzN6tx05urKSCW6udCN5lwz2fvPcNt7TRxD6Nk2ATB/h6XTkPeXepdXcXoQ9gqx3cjsLGrhOWazxFolbYyGxPJTG4F8aiKKHWCmv6+hp8Qg2D1i9eWdZc/f5Xvf4IgVvYr9UYLVvV5YGuR31e9Hl9kFopqnSUIm0XW4NOQVonDct4utNRkDUbzCBhUM2S38HrhsJF3gJBdMV9dU0EaCkioxADRPtySu8dYDOv9WL+tmVlF+oP4eZxq5Pp+BBKx5z3CdxW7A0gde5SqK9hHXJyOAlxmas9y54nE+CpCCIMTB6JKES4IFycZh2LBgNL7xqtlbmaiUymyK03GYi92HHhsrMpXmY2S4uUW2aVji9HsmYrmxgOM9dw/zu90WEvZnI4ebkGxjbB5cDQDBuaa6l6JaKWq6Scfmhdq0ChwS+pkpVOrj1NSN2umNbHOz01n/uElUMH2FdgIuMRf16+fZxjeYjrSCF5KsY5caLMBM8Hx0xPXfyC3txZpJ7JCiFQaDDCP+0ThVS/8ARkepD741k8Gc9M1YpxfjBwYmrpw1puxbGuGaqvxwAS1XbuJZ5gPDJtBfNYCX5xguPQzOvz/eEi1jqGlSBPiUAIa2ltY/cLdpCxZFyP7kzvsXiNjbgsdThpCCCElaVjhe/iiKsyujLkG2KIqtp4ehun6+RHH8tjbDKqs9faQo6ii2nFumSMFY7RBpTMBhjMZRDXNKU3akYXj00Bk+qng3udjfg7OarN6Kt520Guy16GRpbBDK4Ys6Z6kce7TYYXLPDB6OKETw5dUL9eEW+2RZHGXdYaatnxovoZhTVCUu+INqFapm6HqAfJE8eehsvcRvTwdZ9fXPu2GpKw+bUrD2c+JTEHmT8N4gDWaHihrliLj25ER+qeEmOYKC6YGN8n2cPa8208OE7zqyJU7ICLiBwT3/aHecYLKyOHvXiWKIfmLl4P4V+KDsAGtxlvseGOc+wLUE8YXcrf3l7Ul0RlPYT398OMrVjRp0aaror+BQ408tKuOaLLDDRIR2SYmkHE4m22XByk8h3IbmVeCPcECbcq11KzhL4u4aF0vZC9tOUy2nD21r/nQ/IBYoWzxYLDMcLnhbpubTJqzY7oDCUZmeF6FRktj9uArOFKcrYd9WYQKezUZQ5CpRNECTnctCY72DjQKQdk3RSjZ4wZywknmDLFSC0TMCBFhssj8WKYIv27jgOLdNrKub8cVneAcUbiFbZYTpUW14or4210dIh5imW52o+woURNzfMEbBZmrDxwLF5pyzW9xInXjcWrbH5sZNFH4trGlqfQ1RSjXROnlcwSmpo2WFjCmQV8+zJ+Eo/fy+jQkCTsK1xZuL4rJqhlSoNksC2v3MlJ6R22uOpwQR7vREAI89yaImeAtbuGHwiqIjYLIG0okRTX5lxH4oJwV4OAcAYBG5fxRltcz2qQruKbbHFDKhRHnUQCCOrG3fHOPG6NQhCbZ6V42H4q/3fZ4qYAK4zDeG+yf9c8Uunf2ESE9BpYAESCE5gpjIYIM6R0RpbcHkKA6nBvzAkKojvzI72OINI6oaMNjs6ke1cGcbsHSVGR5Ax4PzroISc52tNZW4gEkRDwqmrPAFGoy6KAjkrMEBRNxncZJ2rI04fCYD37AbAhqDGXg4l6eDkGqsPPPCAIa2QpY5hgNgQ8QMmBCJ3zAUBQ7a/PGXtPMBvjpp8s0t3TzFAuGA40GW2l6bjX3wFP5NIXmncWl+298CkzdDUV74O/mySMxQds+JJEX9t5tE6vi/fD2BpgjKkI65Gkoj3nu7KgtgpQl31GqPztUgFLYaw+Fu+2ZVGJV7xMyiVCpV4MC9FO9BHMPfeGxlaXezs76EAUxErMLEeQZv5Wk3rIgbxAnEjq5THGPdLoF4k19ctXDKooTirQqBMOd6qKm1fuOWB4Wnfc7h0NsZBAnIkXlFhdcNjybG5qqb6+xxZX7ILTpk5UYhpXKu4etABaDyd51JrP4kE/ckc7Q/gZnD3pmSHaqxRhG4sKP3qvuHoQl3FehhUP4dCHnVF/HOCy/IL4kC2vVSg/yqGu206kHosP2vL6abSjDTaIXjqPYPEmQbUsblD9lBBX7ewH6ke9VQxYT/1G1ebiaIjcGtftZZZ42GSMVNLRaMdRaoNsmbgp/UUcbggiFRjywzwPRxQ0O+IbGZ7O+9cxJMzgkZXB7m55f84z1Vpu1eCQpd7bl5gGUz9Sb6IZigJ/r8IMtRQFDRt5F3XNi5UrhaDQw9IOuceO+rkC1jTcx+oRhS6Wt3HE5/JDF2oDON/pzv4RupArk0txq5cjTuZ3YnJ5/Brnl6gL7q8whWSGYKk9GFUcczTrEIsPY/dmtcT+SFbYJtRWPTQXORQnl8Mu+cmrLEpSwjJftK50Uaiv74vkT7TIlLRCJbVwTAVc0wcqOU0aFZ+PwivkswwKiTwhrkZcpwlmolpvOSFKiTt0fQtrOXVP/eUmnTwHwO80+C7u6VVCuNhQqf+l/BXUctKJH+lXVLLOlr5+Z2kfmmsxz3Up4eqMdNYXm8BD3AitCWsXEjM1xJBILfZiZtAKKtbQ+BeLYnT/ZArXA93XqE/D/R2YexzxWYYb5u0VjXkPsqpu+kiaWRJX8D2A9BrC/EUQXeXfB+D35PV393WmVV2NmD9PVPEoSUAF966OU+dKF5stXNOwhsoSLmb4947Uki2nlS7uMRKSlXWff7ILV/ZoQH01X88TntAfAl5TS3wSvaA4pRffq3I0p/FUU/9JiDMYb7eBi+FuvdXaUDdNZ7OpQ8+itJKuw6cQ5mZoZ7o3Z85EZaVSvWskq6uSNZCUTtSDJtNN0GD7U/hYfMbOrvmpRwjRVQvzcbIPhFKsj+Nx9LuobZ/A3pc8GuD6CUaGpwf0O+k1JnbN/K1lSk8mm+wHGdb07vsLx8aiCVy0Mvo5AH9oKpgf5mjUzPT9DW5L4cMQSpnJYYOSvHTh22aibj6BIRwfN3J1qoTkH5nRamQ1nU0UtmO+2FOo8bOcxdqt+Hepdhv+Xa7djn9XavwU52rtDvx7osaInJJbS5PxJ6st5OcJnYLOQjcDgKdJc6ZG7FmYNoorFnL5V6qr06s6/PfqhtvsoLymzm8TX1sh7rpKiH+vr1C5bqh66x3F40ZAZadtJvCwhr5HuAkKj+LhvMJ+hMt3Zh4JDWwp839U0HDUZ2IezVE9Bgl/8nnsXfjncZUqn368UypxmE8wF1lP9Nnzk3xO4MnmYvwp/FMUKJ/KP8yG8mnQZBRPD/SfY3vGhv4qNcwUxc2BWqBbOJlbibiNk7vdfIL5mSX1BeY7ShVK5llBW9nXnWoIz95SxXPaXjnUE35u0Or46rsUz/ManM/zcUbiDF9Qd0rq7wu90Gu21Z/CeFGpE4ZqXRx9GwmoxPGbu5Ryqx0mwqsA1mvo8h7NgXEDrrY6oea1jkQoLF5JstYADYfFPydUr+gPZJ2ru+v61neDPsjn64zCT9QtHYks19zyBtKtgC1+gcf8aTkbN3tcjAIlD5FwRsUEzj2zlOD4KhFZL6cDX0mGWFKiWE0oTuDyEZlejV0LXMcv1zSzk/nLXP6tPq2+p4O210xHfEZnggGdDR0K7woUkJFa6yu5WJrZVaHvuhwZ4KuRlyi1NP4azhLltVx1jbqOk0B5PUs9rhvUaBNp3IguSA7wYWSL8iaWhtXDnTavqpIvkD0iM+ZHLpjUozLLeLRZ58dg8+s0mqmpPrbCL5En28rjKtATAz++4vFlrpZy1E+oZH9n8Yluo12Di6AqPKnqqtzLk2GGWj+fAi1wffWN+6cm03kau4P/B/h0rbTP8JqBi1Grnr7BTPVmlmYFb0EkwjW/NdG125o6P387dhSWz6Tk1OUxKnfAoeS/yfYsX/3ptztRJGN4NmAOQzF7TpB4g+fCQqEf+nL6ebBT5AKT6vMpBfb1AgyBg3qhMfoXhYgvtNygPC3uswBLJYd/iA5QGeJv112ul97nKrxuQM1rVqmRrjHZqnFX6/C7/CqZHnwNKQ8NeVpZAZ1zcFPBMW3UWxx2Hb7jro5SjIZ+fwIQ+DdU/y1FXfEcTdxOobsax167tWQ/7pf5Cwf1UQ/1FzbVWVnvjhE2HW5JX8WWlG9ygcdmpL6syK1ol3gcDVRGrDFGXDrASfT4wcEuMyxqm/d3kaL212lPouIFuAA+323fhor8P2cGAACFlXtsU3UUx8/v3nYvHiKvFRAd6FR8tIhoCO7ea6KdSBTFaGJMqk6dqJk1wc5nhMI2hHQSH4kEjDpaQaMSNZqI7cBHNBKQhRWQR1AHGu0gkihiQCH6Ob8yIP7jstvz7fmdx/c87q/GOOLK4PZntx6uHDp3yr2335qa80TLtNuvu2HW5Mea7pvWnGyVETJSzCgZJ+MlFDIijoRM+NpH7m19uDmZkgpTNV9EqmWYrHNEjNiIMkFCTvjmpjnNdZedMhmsgj8rrP0IhWeYx9XRsY4T1fH6ZKp5brKppe6mZMuTddc0JR9relQq5P/DLDVKYIRGMlAYEp7SdPlUGbVQJF0Hpws7RJ53JtnwckvznNaWprkiFxlrFWoT6cOyL0yQhaXs006b9G13HxyTSIVUXcnH3WGpCPEPW2viih6l0c5L9V4hxjgLRHpPPzEV8ybn6yDlLJS+z04/cdQnLsYlz/t3nH7iqs8MqaquNuY/XJ355HFHbmvb9/UR95L7p225bvS8vw90uWdUXB+ScFeFDIa8lh+SSqkSGWKGzjf0JiQLlBgUNJnMN2ljFlCmkTYj7UY6jCwy8qyRxUaWGFlFkI1GNhl3s5EeLBxZ5pgKQ0xtdbUMGmhWeRg4Fuw8Ooz8MaQ8lLH6fbxztpwj5xvi8U01rn6wQUYukLNkqBkDMZarXi6RqOnAqiLUwfQ6oys8DsRRkC8t9JxEaqVfjL/pu421H/uF0nq/sfYrP5LYooqtvsg+v7V3l39n6jffjeX7/FxGApWNtdWBVeRLw4NifAeKsYEr0kOwCUFr7zq/M1ofuP3ZNZxMChKp5VZi0W6ByAN+f/a8wI0kZuBSFxRKV5I2EritvfV+IjWMGPWkDgdw7/IU4NvldUZHB5HEHi+Xmai+g6EcRXE1plcooZQfyzcE+dIKK8lfsKBQ2la26IwetC65zDEYnhu4iVQYdrU84cAWpaA/exw3A8v9Pi7HKPtberEfud6Hx05OV6NYC+V234nlZ1DMO54FyhJQhfNJcKLhSHzCYgqlubR0djfFehbkMsNpy3dXublMDzXubujPvmLn43KK3xZPZS5ztm8VucwsqCz1IokWny585BXjHTA4RJ+e86lgDLxeRhFgtUIruJ85vcaXRbR2pVbQRQVv0JL3sFztw+NT2vEWHL5G8a6vPDB/n6eHfuV9R0Ek0V0+0YGXXX723WL8A/wOk+4lKwn2oAWFUiPKXzTdeZjuxmUUyo3asMUUtKvMvVD6HfPjFCUBwc6FWSXzmUXuGh3YU3AeEnRGX7SSkb5uQWPtBwQcpEP/AkI1KLbCkD3pz/6IhRDjIIF/1ZYdxUK3+CjjWes7ZcBUtBhkGRTjyzwnkvjGAkhvIH4zLV1H84Z7hP0Q23RDLJ+lmvx06nyBkLO7B6bJbStpNfEYwXILCqW3kW95dK0bsMVLpL6iJ5UDbbyAInuINnOgwZ3avk3QXsLJFygW6Tw/gUkbNa1BLvBhspJgaU5fxvIZHUEG86dQtNO9J1Qxhy8pGzmXeUhjXIppE7nHEeNG3YkaZjEdixqesQOK3azSxViu8ejrDZqF7SsXJW1sbiTxBt2Y2M3k0hbo+xvLP9CAYhh+4xnj9zyrPe6PVwn2D88yVnq672i5Ckh1EWA0Ua/mOeJR8m3Q/dJrrH0SBe3qjC6Fasbrz+aspOSCBZ3RHrJYdnoZ9RD9AIqwtu2wEqK6wwSfWVYU44/idgC5RNdgL6bLsdhMlqzyyFPy2yhetZKrJn06KPpO+aioO/yRBbH8l8jdOoTtgH1E/IHp2+uxRFi9HktE5CZRUIyP4HrqQ9rrcSdgAhYboFivm/oJ/pNY3VVWwvkFC2L5NNVZi7tQTGT9ZzL/cRp0KmWO5EabQmWDArr6MW3iPaBFdGMsF+dxJL4idXR1cnBn6jaCXakWHfBvwGKVlcxsgwWNtXuRXI+tvUfhrtejy43I9chWcBohfw23qn0fayjoTzgYlH3a1UOUvZHCdsDwcx3zDtKt1xX/i6hrKVXf5y79RTkTsJiCzsSXESngXSZlFYq8jlmIPpX35ieqyzQQYwOpdM3Ke6e/oSaXSXqxfETfmSSm9/j8in1OmukBr++eUyCRGh9w8W4sA5YTXknfAlZWvUbR6ZPgREAFYhprdUm4GRQU4zF12wzR2WVgc7C7pwC2ZWMkf/8C(/figma)--&gt;&quot;&gt;&lt;/span&gt;&lt;span style=&quot;&quot;&gt;2a34&lt;/span&gt;" style="ellipse;whiteSpace=wrap;html=1;aspect=fixed;" vertex="1" parent="1">
                    <mxGeometry x="310" y="270" width="60" height="60" as="geometry"/>
                </mxCell>
                <mxCell id="30" value="" style="edgeStyle=none;html=1;" edge="1" parent="1" source="27" target="29">
                    <mxGeometry relative="1" as="geometry"/>
                </mxCell>
                <mxCell id="27" value="&lt;span data-metadata=&quot;&lt;!--(figmeta)eyJmaWxlS2V5IjoicjJjWFR0Z3hsOFhHTE4wdmFkOGVudSIsInBhc3RlSUQiOjE1MTA0MjA1MjcsImRhdGFUeXBlIjoic2NlbmUifQo=(/figmeta)--&gt;&quot;&gt;&lt;/span&gt;&lt;span data-buffer=&quot;&lt;!--(figma)ZmlnLWtpd2kZAAAAdzcAALV9eZwsSV1nRGZVH6/fNffBcN+nczEMN1lVWV35uq7JzOqeNztSU92V3V286qqisqrf9HghIiIiIiIiIiIiIioiIiIiIiIiIuKIiIosIrqu67q7Luu6ruvu9xsReVS/N+z+s3yYF7/4xS9/cfyO+MUvsrK/JhtRHPf2ovBoEglx9lzLa3aD0PFDgf81WxW3W645zXU3QFV2AtfP1S1F7TYrgO3AW286dUCFIDxfdwEUFdANXPJaUrSKczfY8Npd3623HD653GyFXvV8N6i1OvVKt9Ne950Kn18xYLfSarK+mtR9t+q7QQ2oE0HZbbpdoNu17l0d1z8P5Foe6bvtOpEnK161ivJUue65zbBb8tF72Qk4ttO5sZ1rdXzMw+XIzjj3D2JM827Agkyks7OD5QLKd51Kt9VUrIWqbPleyFHK5rgftfd7cQSyMppCxQtEjdamAuXWYNQfjPb8+ZA0zVbzHtdvoUG0KqqdHLQ8HoVGFyhRaZU7DYwboCw7zU0nAGSt+61OG4Bd9Z0G6QqlVqvuOs1uq+36Tui1mkAWN91y2PIBLXGOKJfrnmK74tbrXjsguOqDCIJVkjvhu+uduuN32636+XXFZA1dNStuBQua0Z0M3bs5pFNB3SsTcTo43yi1qAVnvCY6ayrs2SD0yhtcqiuCmtN2u1teWOuaZ68st5pN8FQDvKpMjSvVW+UN1K7e8irrSnuuAa8GZ3ptw614DoDrat56rY7/2Hx9AAZ6sjcYsIvF9usOO71xywlqXjdEz6g9bNPxPaekxn9TaICHK6Bbxnqg9oiExOjuI4P93iTaGsz2w+j+mZbMyeCujuO7aBV4yCyixNgaLWUPVggWXCYoNKp2Wq20tjjOwuXWs9h2fKdeh2VAeRtd30xvaRFdd6vELrvN9W7Fwcgd1fkK67CBDiurrFQ9xfWEglv1isslXisNo1G/ARXDcredIOiGNYxlneYkmi2/oYxYVhx/w+VArUanHnraiGzqDdSiBBtBtVBu1VtpraikoZ5ZCqD4ClKahicqLUgS9RX9SFJdzaR0ImhVw67igdpazfEraU0Zr+u7Wp1OuXeX650AQkbldE3N90zghJ1U48+qXgBcUe80vGYr8EJ2cWW7NxgZ+a0ErbpHQQmsacWDaaE3DhUYmaJYqvWAqQEkCrKiaQBnpzgQGbEXvIajZlaEuZ/zACxtehWX1r3sHcDPBju9YaRXH47Sd8OyWviqx3lKSEz1FmrJ2e7ubrRjRlzwYCc+3KQDFUKjqPitdlaV1RasFpJsVmBAHQ7QKjnljUWUTQ0uK+e01IJ+efB1QItOGw4Dpay3thSAIYR6DAE0ot4tO226nEJWg0r5ZeXQimRaiXbG095sMB7hmcRtoWfIF+sKWGK63oabaZtVj3r0g+F0cIBa8gx4d2uukbxszg+2o2lnNJjF4Os7nKpoe3e79QCAxKjh7ElplcejeDbNJLwMyQMv2K6mJBsOPbmFcZhlt4MyXD2AQhUcK139RNFUFPVSMJuOL0TOcLA3wgMpMwH/BsECkK1OaEBLE5d7E2hkMh9MV6mGTD2G5fh+a0vpGydh66p7V8erY7eAqQNZMDpFI9a7URHLB+WDC0lRS3knuJy5ue4tqK/k6reivpqr34b6iVz9dtTXcvVnon4yV78D9VNlzy/nez+tZ3tuPODKNLD9+cCKkrvpcgYymbhVGo+HUW/UmkSJghQ6TW2pWEY8Rp8NWAadUug7CrbuVgas9FUtfm08HTwwHs16QzxuXGBOttBltQrWuQ52m6qnRpg9vRlNZwOYHnGtNppyj5ZaYdhqALIa43kclefTeDzF+lTcqgPfhwZR9lsBLM3zAUv3vEvTg+qhZiEaUl21HUwFvrAMFUe90Fb+r4ii7NUBLTXoUfnIMkSMQArQSio/VV3dhLGPp43BdMoBpFakpI5SKgAeCJ4RPj2kCluVXryv/YlVxj4ElMgUXCqfo+2h0G6uAyXOtV2WMthkYbUrDIts9/7JeDo7bkM2Nme4dIRsxlBEgsDWrPqXCSI1WaveOxrPZ+vTQV8zKWizyq14NkBLW5mdPdPuzWbRdIQmUHltZSHw0cpXSyXP+WzsR/HgAbBOl0gNR61MOg6ZQhYfC6fz0Y5RP6viBdzfyVMgfvXUyshgdjSMgsjMHaLzg5bxj6HrUENkGdqldQUhKDbbZpkbix26jXbLd1T4WUjYYDFnUbqSl+w3AGWyW8Bx9HYuaDGmc6rBQd+D1VUjkNgoEUUpWFMrvUZ3l6yuXlKrBCWjiwFsqwfK4zkGNDXPLT3Uc1h2Ixzb6YTcuQo5VkXF6tw8ng12j9D0kFzaTtntwhXoGFmPINBCU/4VSMTEgXeP2w1bcCpqPRYQ0DHI1Gu0EVyixhbQ6Mm3x/GAssT2AZQZp3BKWOWODsMV2daUrhhbC8Jzpw20MKWEcEawNrDQ8llJVh1W7PIE0OXhB3XZ8dWal7CXorTL9ZYKtwqIDbtJoIh6sdNGMOZ2VYDa9TvN0FMh+RIMpOIxMFGyW/Yog16u59MIVmG5irtwqui9y0exq6AuGy0curpqkS0N6wYbT9UYPQEu6AbEASQr6poKO5dA1cai0ohwzlIzXKn4zjrKVbRtuOeTx06gutnSYfwaYD2PmpLLybQOY0H9VDjtjbQA9BxuxG6IKDbswn1jX+RsQSZgZhDIpgtQVnFyQ2nhqIAQv+q30kDWzqESN17I4bTDLuYwqcdeaneCmsYZZssZJuG1kqE0q9UMkXI6wdOZxhlOaxkm4XQyQ2lOpzJEyum0HijEBKKE2ZkFZMLv7AJWs7xiAZdyvVL1ZLCG6VV5XMLz6jxSs7wmj0o5Xgvf45W7bEPtOgR2OP46TbgkZUDXI4ZvIdTLMDe4vRj2piV+GifmcqfkldEgyDqpSMTbuapFv6HDZTxBI0qbCqRbwBT1swu4Je1y0/py0Pa1v15Zh9PBfpgiVg1pijihIWUCsFat/2uLyHCLruPkMWQN5xegTwU70/FwWBlMta/AoI0VfR3vjBVW3lM/C0czo71HfXikWYR29+42NirtAcvgwIhH1eR6B1uEtGLkGNAZ4GUhh2OELQq0yuMh4gJZmIpVIffwj7WNf+we/ino0AEP34+aPMI/lg8UqDPERfxj7+OfguIUzMYTPLBDWLxYyInxqSCwGr3ZdHC/kEsHN9+Mujy4+RYU1sHNt6KwD24hsnBwC5HFg1uIXGr3ptjtvFE/wnPW3nzQF/fmmK4JS8fyaDzsDecRnpFzFdffJKwqVqnZO4iEtHd7B4PhEehlzI0UgAUms3hnOpjMULNJu9mbDnp4ZH4QTQc71cHefIqlxdZpzq8Cagd5ApA4+KpEFGDVzeKjwaS3A6VeeLaN6K4FeRqXLXHENke+yzCoUricYJ4DXCXSJgpGsAN1VvLNP13uTWIoc/YI7E+d/SSKblKx2i7OYRy6DUQ3rTF+RvKKYBEoTHYd4FKOfztZ9/ywEF/jX4TZCG0AqPEEapEhnJTKg04rU5OI2JWDr0a9mVrgv5JtHM/QJMq3thWJGYVVbgfE2xwNSjVAlEWT2loKvCbjzOWWX2miXHGqPttXK03ljE40Ow0OaQ3RMNM7J7EjckqnKro8zTAZ5RmcJlmedRwVmV9R1uWVOJqwvCrQ9av9TZWUuIaGifLaYEslDK8rB1ssr4dwiL+hXFZ5pRsDHfI8rOaplOBNJtp4eMtvcnyP4KKgfCT2N4ryUZVQHUAfXa07nMdjGus+N/DHBtA1lI9DqM/+H19FZIryCTVdPrGm+31SqOtPvkuXT2nr8qk8vqB8Wr1aYv3prbYqn+GHqvyGtn7+5vZGk+t0Sx3uA+WtKDnO2/ywzvrtKFl/plPyN1He4ZQ2WX8WSo77zk3N59mbGBDK55TqW5TPc1GS7nkoSfd8Z6PGebygfE4dy15YripDeFG5repOueOTroStnvUynBvLSlXzd6vIMKCsorwV5TrK21DW0C3781CS/7mang96W+d46rXWOeoNwksVgTQ9BBIoW+faz7oTZftc+07yuetc+9k3o/TPtW++HWVQP9fgcyFSiKTvYFejXDYZvqDcQslx3N3YaBB/vllXgdc9zc5GiPLfYAPguO5FGaD8xk0sOMoXt4OQ+C5K4u/zN3zWe367xnLb75Qo950A4SrKfqjHEYVNdXDYhZgov71N5KlQ7m/q9sGmnvdLNjeUvlzY9EMf5RDlrSgPggCeV4gRStbHKG9DOUF5O8qXonwmyinKO1DGKJ+FcoaS6zRH+WyUh0EAny3ERZTkdz9K8jtCSX4PoCS/b0JJft+Mkvy+BSX5fStK8vs2lOT3MhkEt5Lht8vyphrhywmQ5XcQIM9XECDT7yRArq8kQLbfRYB8X0WAjL+bADm/GoAa6vcQIOfXECDn7yVAzq8lQM7fR4CcX0eAnL+fADm/ngA5/wABcn4DADXmHyRAzm8kQM4/RICc30SAnH+YADm/mQA5/wgBcn4LAXL+UQLk/FYAt5HzjxEg57cRIOcfJ0DObydAzj9BgJzfQYCcf5IAOb+TADn/FAFyfheA28n5pwmQ87sJkPPPECDnnyVAzj9HgJzfQ4Ccf54AOb+XADn/AgFyfh+AZ5LzLxIg5/cTIOdfIkDOHyBAzr9MgJw/SICcf4UAOX+IADn/KgFy/jCAO8j51wiQ80cIkPOvEyDnjxIg598gQM4fI0DOv0mAnD9OgJx/iwA5fwLAs8j5twmQ8ycJkPPvECDnTxEg598lQM6fJkDOv0eAnD9DgJx/nwA5fxbAneT8BwTI+UEC5PyHBMj5cwTI+Y8IkPPnCZDzHxMg5y8QIOc/IUDOfwpAuag/I0DOXyRAzn9OgJy/RICc/y0Bcv4yAXL+CwLk/BUC5PyXBMj5q/J40gah1QzbtbhdyCTEshhTNnqTCYMcae1OxwcMy2Zj/GuVhuNtIeX20SyKhS11tkhYNm6v9lkfMSJD/NXvzXqKdlnYm4N+NBaWldDEt3WmQxJVB0OcbMuMJp3+S5AgEHJlxkEhzov3e/3xxRigtT/Y20cGYh9xHyLJfjTrDYaAChHmEjPIQER5iAxFhDQQ4KVZdKDyhrpp+XCwjbPnDuEVlc7X3ZpbTGGd+P/b5Q4ipmkPc1sVq9tT8hyhZ9ROqMEI6xolgLNC7nAhEFZbY0aYMwbg9uEgHmwj2pKigMLcwpwWxRiReCz6cgm8R/HueHogdsXyQEnj5VKsKCjcR/g84tCBWu2NgMShwmMTMWc1BiEfIlKIbVlcgXr+wuFKcWI6xhkEJBjMWswGACd31QqWOV4juFdKcWrC+VRVE7y0OB0djF8yKINPG/lerOSyPHOoVOEVUlyJ3OzeYIRzCnvcGvRn++j/qgVsLeJqAX31DntCmCoetMU1DEEbkEgFKias4oXoSAyF3AW2PhglD0GGxFQGexFGZ+OMgJoOXO8XBVa2NGERyXvUwHyg52nZPdzhhr09dCwJNrk20NbEPlSKWHd+dme/x2A+msagkGlNdeRVOGUrJtw6jKbIVEZhD1IUr7CkPVTpS5Xeug+yxf3KEKOPseXI4t7waLIfY6+RS/30jiTGTiOXt3G4u/DS+Zjm92Ypz2o2mxgASDDilV1MJl2d10i5utsbDreR2KqiIRZDeWIf6jZFZxdK4/vB5fVSrqEG6EuWPDlLc544e07N2awoThl81E/X9/RwvMf8uCIJx+Vk7q3d3TiawX+IVXmmlutLWIVt5BP7sYAHmWsPYM589n5Ch5C2iOyhWQ5hLcPe9KnkPiEvKjWBaNl2HoBNIB1RgTUn3sGZErXl3cE0nqXDwtoUYT/5+tI611lYSzvjg4MeBlbSDis7gd4ntPgwKvixXaygEhi6upR5r39oTH6pkgoNXm+KMzWmDLeXcqIXNVKEuh2ai4YS9Bsro9CN3hRLZhYrPwZ9aFfC5ZOsNKPZxTHIzeBH8AW9IYbZV2NNpnCpBtLNI3WOBZAUQyzulTI4OtgeDw37WFXQL7y/hhMmMRlYOIrT8QQYe1TFOsB5QSQJW2iA2kEsS4lYToBD2INjIzzCejSiu8QKmb7Gec5yHkdVyHKdWxTmcTRSB26JbWWwu9saDY98+BbYo6K2KzhUH9KvHcxnnJ3yZpqvtcgXFWMnlhNDS/1oFzT0ILDepBFqCd2foffxfOL1QcDl4RR6yTPvkqTBqnoP3awWzHvIduVwMFgs7/+FIohmD00UQAW5QuwMuAgJFeigtbo7GEYbel6xagQLbN9mjrUedmLkRciyDbkYWcUIOWUh2duLwwF2sekRBRqOg/k28ynbICNCfKuk2UzGI1ib7mh5Ptod8iqGKfY8x5VB3Emaoj7EuKpHXU6eb/RiGJGWmL2TYDVXOZlvDwfxPpixX442HIdR76CejY6dWMc7sT3EOLTIFiZNFQhmnHWmamTV2g0uYqRQHkNMDcVGvDCERSW6PN/NW/+fOMPue8MgJ5DkEc1aX94La0WFBFdzJNj4VEigvCqs2Z7iBnzO+KGQxQZFFGlssBRPplGvD4rleH98EWuNqKYUYQX7ND2Qr4QMGpSL80a7DM1Uf6GQ/bm2SjxstbH1j9lQiQ4HO8mVYJLM5GlXXVvKMvIPKiNjKRzym8yDoQ7D5IN+EkHA9M3D5fJWV0W48lgn2CNYQbAPvTXuC7PB1L0+5DHYHcDZQnHxlOb5MQRGLawh9sG28dohGYiV9H5JIKWd5L8l4bTFYi3JgttIwmIeCWXBVFPiokEk9LidbXbUSX/ZDKCEXXYPTmMEmUOf4RExGvSSzpr3QEgp67sbZtfNSwDyEgZ6DumTyGR4lW7yisql5A4UDVsRtcyytlO04vIpLGWGKicK1ewhflVrqKhEselsIpGmcoUCCX7zjo0MtlT2zmLJF94UgW0y/eoOreAiKJ7OAsTCMNIYziee7+4iFQzjHTCOUx3APhAJJ6eObxZ2fLhHi1fRFYSIKk4d1M8Hoc+oteYz7ucMttAOZ4M1RQRD74/6Miiq4+kOrI9vFMCDXIiBXsHO4WzH4+F8Fpn9E+7GDHBz3fQgLK/abbquyag79S3nfABA1lU0xTtlzGLGYd8Bf4sYUFjwnam52aP5QQBDxeLFAuGKMU6cCWKNDai6CAT25nBHU1Nb3jFrvzKhl8KF9Z1idR0eGEJTMSc6kSmrxN3bbTgTEFyE+WJ51RuAKwKOYSFk0Xs8XApChIBgyMEzWawViG9goEBm2W9tEGOZd+lst1rVr1IUkIdr+YSK5u58Ca4Dblrxy+0tui/tGpNN02woyXZEAogEk6SIMfqYGPNIDFkktoq6lW1V5v4DvgrKiaUCQukZZYMp4Aq4u1VzYT81r17ptqpd3YxUNi7U9OuMmCFs67xp4YOWM91JR4GQFovojPawijjxwWnmqtYAF7xTP/GvtvbTdUSleHY+HWCEsj+IJ8PekdLaNcYjqqqUFONvD+c4vpjeJqqClcRjiFVwdsADF/RE26rNj4Y9hNX7+oHCRCH1Awc4I8J0AMJslKgB2oO4Eg0jROFQwkJjPpwN2Hs0rQ6iYX9TiwIC2oHmY+2hDDJ/MYTbIEyQcVqjx6MrJJzoh7kOp3tEYRkfaGuXB6iQeL1iysMd9Sc812GmkQG5vaAnxCiTRL734QZId/Z3sJv0YQCw22GbT2HAOXJtbngMJJqWixsAYjuumbxKBTd4uJaEM1LqioxvgtJ3zclNvX60MdCDQzcxkOTyD3CJmaGl1JA03AkUFd249VJrS7sH2IxjZi9N0NEYH0Zm5xwP+xtKpghwofDVVJmtHG1tgPP69MhDmgCPxOM5HJdarD4XS9fLx4KOrUF/L4KhYOgQpYW4PqF3+wMczNi7PRtAUWa9g4kXj++8A1lVjAMucApCsBhiRCSO+g6P0TZhLIpyDVbF5fvXmJTYwpW9W2o5PqcrYbcXNInt1Ns1ppp5WwsrcwFJ9XqkeUtXhfI4BI2gqNbnE4+lThP6/PzMyX4vjsSSsBSgkXdM4COSaz8khHJVTfCsGbs/IVQooFF3jnrK4IosNerZg7itQ0MGyTCI90iEUQhRJ0rGa+Ij1jCTgFqvf5LiZXmkEYv4Zyl/2Fjmr2vvBi1eFrcYUPcXDeJgvDszBhiwCZ2+VyJBMB51Jn2cGMxAfgE46MEwoflR1PU2lWB+XMaEQswP2T7kd1W1sjD8X098K+CfkZjlZRzrlyRSubmmzEt/USK3e8zTfhQObh9nJeZo9OAwzXsRlxp0boyq4e1JA80oQ/9UgjbbatrwrrRBhbFZw08nDdxZM/S7E3RuPNjT9TDQ/isyVsg+kCTBXMWnjXyI04RJy+/lWjhg4j6Tw+lBEfv7OSxHRNxnc2FTuwebi3GtIH9DXnaEpZQUo/yYki6kvw7MBML9Cww7qSK8RWJjdrRJ/9+a9iFR8aeW/PtEaGqHyaT2fikeADeFXVTubwKUPpA/XH1zvmET/LWsv1WjU6eSU5oPSGSSYkW/qHGvk/PkBAXu+U7egfQaXFTnIZq/mhzSsEy00s8ndSXmP2awokexoWzsC1ix8q2Y1J8kdFG6ea3BHnQSsLz40L9kXLiolWg3Fh+25Kux2eXQWMpYfMCS32OZCXLCb5PipVlVWzNFwaRBkOJ5APsWOAUex3DW0A1qAt+32LWDHXVvdIBaLD5kydfggIJcrDONSvNtCIt78y+k57qAh0Pcgch/kgsonBc/JOU/K1+pIry3SjFOKnqIk+SBenQYDUVR/IZKaZpo8poE1sQevGhvb9qb7NORYrdbFdceQ2nCcyk2eY9hVVx3HKdJN2YwIwdp8PybtE8Sj7oMWj8Qpi2bUHrmtMRTxKMvQWriDvFl7AriWvGYBNZNm6zmkmjXi8cuYjTZ1hAbtsn+vUQ8Kavp5nu5Qk3sF0gPPzmBddM3KnYU+uukeEpS0W0vJqnKvYxwT3JwMB7VeVCa4xQKyX7bQiu25vtn8x5ixIziZbCVlKQygIFFHDK2nDzVt+ep9D7EpcmTvDxPAt/BvDjQ35FHB9jiYT33RNMxml6Rb2qal030iy4jXKle2mjELSbI31/aijzaDocuprh9zTWX+SLKDCn+HC7dZg5xL4sdEs4mYf4S3FYqytTEPwWKHuaj3+O/UXwMV0MjmPzeXcx9YiJ/kCDqWBnU/9DiQncQ2NTVCS1htYwru9l4D+F7vzVqhealk1g8IH8vxSNhmG/4jExzzeKfLFyf0ZDJ658t8TllYGpGRMW4NZavUF2XBv1B1ukPKVyoU+JEPU+8CSOOa72+H9ZDtGHM78gdGJcMqDXsOcgCXVB+YllDGv3c7NpnxYC64Xl4Ms3urKYV3fj8GD4A8fIaS416IQ7Z6Z0QMvqmohtf1IfGwMlAQCNk6E/lqprAOUAAiLGdZalRFYJe3NIncrRduYDQRFXiVETzckv8Wm47bem5YFpXXYLUj67DrvMnL9z3ZHVNUovVZm8ubVbFjfm6JmlqlHI14lHi4bmqJrhLY6C+4jHiEWlFN/q6rn6a8DjxyKymm4NdRABZYPCErKrb79EPaBQpnphHaJp/E6kQBPuWlE81sG7pZgtTNkmCW4+hNOEu+12PxgfRDHHrF6S8LY/QNHu65wRJqtsXUZpunzcTMDOo5XhSj3bhz7JVxxJ/v8wT+FzoYxSvzyhK49lsfHAZLj9wnOZyjN6QEWUtA25bEyg7DBQ694PHacIx9me0ZiRvlNyKEZPCJmN4Z8way68s7Yd4LHK2j2WGXm5tjxkJYH41tesD92MGp0ebot9m0Jxiivxxg1RzSrFvN1gIF+E0FJ0m806DRFdaaTHtnzI43VWKfpdBs6sU+dMGqbpKse822EDJV6PjxUX5GWsfe4veptM1mYlHiJsuh9eq0Y75KjydjCgJuGBT0Y0vUXXOCw4aY7iQr2uSoUK1e306eZAc5OuaBB0CVYYk4HqUkYqquF8hz831TwVq4kjVdWtFfFaqai0dtmGIDv5AN8FFqwgja3hQN+AwjRjrnPhDXdVhAuqf0/U29iFs0MHgAT51TvzVAlr17+HsHmNIf62b8gPXTRXx70zT/mDYN4+uT8d8hfZvdIsZlhIhsP9+AauVAOi/1WjFRvEPouEuFufvND7ZafGIqIvvxVkGSB8h4jSO7qHo74fQv0+j1Y8ZmuI3dc2M2UgKPX3cOhiMMGkcQm3xW0jU3J9UPmFBHcwVAQ/5Kg7+HpqXztYHzKSlDa/JGkroZy/zWnBk3yszVuoU/hEpfjiHC/EUrh7enENVsluIH5FRL32FfFO8JUfVxoYeTQ+jQCUNMelfQpyuUjloVPRtnHUyFH+VsSZ+ORuruXL4uER8DtVPMvYhmoQvfjXXVYg0y3hOmX04T9nooYL/lIf5NYlK0pKbwUeYlkDWUdWxZ0JQwx5T2B/NdRDsj+fDfgCVmTnqpQy6jN/PhuplrGPxN5b8StakRIEVUpki8Q+W+B9SJxIZ0kJd5adNfSHb+DdS/lmyNjxJg4f4e4nMWIpzcboF5r9mmDpmqg7B4h+l+FqGV09jI8Wu+t8yLJ7XuH/McGWYLYSlhhqL/yzl/8raGDalubqvSfG/JY6wx35DfVL8F43tQPLGiFfFf8cKq8PcZW6A3ynFvz508yaMBksKkxMPWiOo87F76XdIDHIHeKTZdy7UsfnMmZT9nCW+wxoigoQKHg6ii4r2ZbZ4o6UGZwJDhJtSvDlJOpYxdTjkON0lfgTxYT8at6EM2zAa8UpL/Czt9GCi2P2rJX7OuqhygLz/xkmVSQXxWkt8fw5d1r88XBavN8iKnipua2fTKPlh4mss8QOmvdzbwXnBAcMYa45TtXiDafFGk/ksTb1/yhI/ahq4zyLRDNt5q8HUxodwI0oTXm2Jn8DV65bCB3C+F7jAmN5PGtpGNOv1OaFPW5iixrmHXAnxSUt+l8G0sW/Ddx81otFcu9MHLfndlpKWP76Y+LxYvMUS79do+Jf5wWih5Zd0Cx7QuhFj10Y2QCE1+Rb3AYX+ZSTDYFM4U7mj+UGV+oejxuct8T+1HaOhgmEnDV+wxLcj1QAHisU+oQC9j72gp35cOIJGYdans5puLlG22iG6I46DruLMJUhNXI5URi1RFXPVdcWlWE3uxjA8D+YzVa9gwBKuX8RosvrBAPOpD1CA5AYUpqabGzNaF5zLBTgREDwsX9ckrW2owMLPcZ8gHnccp0nvhmZAC/IhBUKNx1+K1eTncc7rI6Wpfr+K/sQzxNOOoTThfXoRApwsgYsRC8inL6I0HWwE2QYlhJh72XPEMxYxmmwbVgeHzuxfjCBAfkOuril29Ms11AHsOuLmrKrb+7t0Ig2ceXDGVzKEqOJLkJoYtqj6HlchAyl4FE2qmuBQz6WEVdd6kTwP6otMC8GZfF7KV0usnNJNagHaXitjtftlPze6W/wYPBbj4+BgPJ7h1p9CfZuhw2k4xq3HffCLuseQixPjapQAGP68IYSgIKcdlenGmop7xPvANsVh9GDyixLXvEgyMlKZRqPKgB6N9/PvN1xSd/JliXRXz1zEfUWK30x8sk6zEV1XEtg0HrmIbXmEZ5EOQVU5/89I8VsqiTY8dtf/CYn/mwZucjMwTggwyt9O2rLV9biKmAkJPinx/0sonOxG/dNS/I4igHKou517xR+ptehhP5wG8wnX0ST8GYU72PiUAOj/v6iDtjJ4okusG+VxTvx5xiA2HB6CwZfkhegIeZK9PazsP1pYycMxohaXLrS9P0XODOv9l5IjpUfHUX6/FO2Op4hukIbhBO+V/8Gke+vYsmLxVSn/o5xB3EyucOXFFy3xnyAQDHS/hWQw7BQDxS45hl9EjgkwBvKd2PHiWRY8vsqKDrajvmLwLxY2JmSM9htRf6BfPfyYLV5nQSkgZ0oZwzOahB3sB614cDAZIsZPXo5p90bRkNN9i7U/O1AZwi/a4j0WUzE+/Iz4ki1+3urtYJIqkVLvbSMluibeax2SBBjV6YO2eF+KKcPXzA8wHwZqE+yQ4hfTNp5mSkcBtie0vMlCJjlpIQ6N8Aq2/GAei0j3fVL8SoryIxwmocFaBW2kgpMWDkUl/GGztvhVCyHDqN9LNJI9vsMSv23Qyf5I9Lst7IkHA2RiSRhguXA6/rItfgc7bO7uCcv0KQsLjS0b4fS/SvG72JkQbGMT3WUC/q9t8UeWFicWXUne64v3SOxum1DhLOSw7B784gRVsJQHYNmrj/kLP1za4pjMjuwGsY42FbHa1m+FiLbTCXgDiAvjdX5ggPhugrQa+gfVdqdpoIIhY7WbYovqq07Vlr+lrx6XVL3klDcMYlkh1M30CnZuxAm5yMNawmRx0htgT2TCBYZG48kQ+deoe1N1T6QbIUzMrABckHtEY4uDuKUf0/Ul3W/FeKuFsAo3uVRHRPW8LYRFKxsHaOWu5ilXS8JYpwPow+ssKRcbXbQcgRWsHPqcvSiwmVMmkOV4vAE8jrW6aAITmyGsehcAgwCrjIaWkeqnpnijJezNBYy4vuEFgad+GCjKLZ/fjvGditfhaxSSXxRa9/mBLP5QX1NZGdJrVlz1hQIb9+WtDbe7lXxLoYCL+vJG7qmiRrSdCj+jkLxwxS9N5bD6TYTlRWTyFsLKIjp9TWF10wu8Up3KdYIvuKiPHaGytoVbXP5Y72T6hYdT6VeU2JUaRPf4nE8v0qjeLyE6kxHpcVye19lLyC7P7opSy68AwQ7TJbzSIM2TKf4qg1c9ptirDVZ3kKKvUZ8eaIZd/ljV9UPPZX/X6qUstzp8zy0npesS5aA7TH1lpoZvzqlhnsRFO3Qx1TZgYR9wnalCkhqoe4UVsopwvayC87yHzPp5K/p5SDoXROxs0Ae77K0T2M/iI9zDQJ5j+/ZL2BoaFwQZyxhIOBDLUc66bToAWY7VO8HqknYXjRmbiWngyDSph1OO2jqEZT4bIZKPmBlm+Z0h6+xn085y7S4as86IxN6Z9JTQwWPyXIIhyBk7fhcocFyAd2smArFnSHTgAIFt5b2WKBziNkZV3meJ4sE8Huyo2vstsaRZhym5JWeE69FoD4k2eB9NsJlwsBC2zLAlw0VmrY2UJVzpeLSHMWBwMQY1C8GtEYPUwh1cdveK+11hFUcYr3ZZYNWPdvEclOmB8cH2IKqanzs09VTtnfzjzfTBD2J6+bepiuXL04lC5lJE3qVIviPpexV4vW6gPmHXxTAgTa9Zc30v7PKVu27An5HrBnuhh+wSGXNPpgALoff/CASzQFzhrFe0cEd6Xji9QqF6w83kCRs7UnYLtyYKuNPNHvf4bFGJ/aOQXn7my5Mp3z9AlKZ4xbiNEysL3Ss8dhee+DQMY2YAqSu4QlWv/ugalGjh4ZB98m1a9WNctYQoZPIuK5YLDqhZdrt8wRSIxafbx8YGPYEZjPZMdU3KgYkg+ba1wX7ckpaXQy8yAY8Zx/QJSzC0xlJ9HeKQlJBGq9FuNfX+JjBeRDH8SBrHK3WAoOJxbG36SyrmAylCveiLUnLaXbcCtdCvqFlOCLdbcyvQEJDwgzBBV38mk83YQztwyuypk8cXdGeLqRphmy/UiNDvNMtO6AKU6ht85qUt8y5Z5ggW3k3U8CaOG9AchTJJmaZWNXtL1SgOnOLTFI1emmWnbN72FoHLaEB/lTGTL797ZZbDVshu4NaxFapWExcCKmKoXCkTb+U7Q/obZ9vxlEcTqLaFuE4BGPoMGolYCqCZYv45DhJmMzEoM5v8MwNQqGl8BvYz2FE8C5o7MgyWLMaqa1wiKxxaYTmhvleGDSzjBm0XSFgLtr+FDKE4G55vu0HZ99Rv20W5TQFJ85Nvqxxw67XPOZtOSlOohQ2aSPFcoNZzScVVdxG13D4f1hRyZZ3B8Gqg0CeCLU+FTmsbLb6fB+ik3wmIOVVy1McLTiMw5+eJlNGd8RifInng5jJecGR1qpZMGivQkKQRXh2F8oQOjuT8QtJDvtgEwUwMEmuiXRkt1ArhKeo4OpKxsApDgNAycNueD+GElAC+DJc3wFkRZ2KudPLGi/p9V3OOc+YUtYLmNNIRrbUyBKie/gpM+TJPW/0kK9IbIqAXX4WUF1GcM8z2r7EZ9McXRzh48fUcnC7gL4uiCI2IMdpotHOUYZc4ASzEdGaSKUWxzPf9prEaW2u3jnZox0opm54oqIhM2bDoNLOKTMNmRAHduv4igk0++rmikh9wwjyT0MiUS4KxVPhwV6el7N+uuQ6aARUqC1MGYV19L0D46rMbcrHZrAh8YkN/RAskwr07hbMfbJAyyaFYhQE3GImFx8N/C2HqBuT4Lbn41nL6vKtoreVBxicEGjcvkGWKWrhigYqkDbkbFhtuPMwyJAhbLkmQFJG4giz5ACMLJJrw3NIBz7Y15OCAQn05HdumiVRDFR7BDDC992LTK49HOHaDSW/oqFFwR+oZCFPFGdAQqANXys9RJMK6MRsGQwyYARYtw4UgxVWYlWHys1y4CCtkNBy9nlBulpe9UOKPKHjZgnbFps3fJCQYfT22wgM2zqaXyaOtXpqPO5F1iH0TdzK527g1Pd4q7kLYLlblSZjvtKcJjO3cJ07N1BonK66W5PQibpOuRHzSFmeUwMxivsoSZ8HOdO+j95nObiQjRuYc7mjUmQ69UTO6iGAfqCsXWYu/s8RViyjlXCC9q1VnwYXBJBxzibG+16So0pFzoGLZVXEtllDLPMZj8rq0munI31vy+mND1auQG+sNxwi8RNUPozQiYoLsxlSpAoybme+2ujHD4d9scEhe5V7qzN6tx05urKSCW6udCN5lwz2fvPcNt7TRxD6Nk2ATB/h6XTkPeXepdXcXoQ9gqx3cjsLGrhOWazxFolbYyGxPJTG4F8aiKKHWCmv6+hp8Qg2D1i9eWdZc/f5Xvf4IgVvYr9UYLVvV5YGuR31e9Hl9kFopqnSUIm0XW4NOQVonDct4utNRkDUbzCBhUM2S38HrhsJF3gJBdMV9dU0EaCkioxADRPtySu8dYDOv9WL+tmVlF+oP4eZxq5Pp+BBKx5z3CdxW7A0gde5SqK9hHXJyOAlxmas9y54nE+CpCCIMTB6JKES4IFycZh2LBgNL7xqtlbmaiUymyK03GYi92HHhsrMpXmY2S4uUW2aVji9HsmYrmxgOM9dw/zu90WEvZnI4ebkGxjbB5cDQDBuaa6l6JaKWq6Scfmhdq0ChwS+pkpVOrj1NSN2umNbHOz01n/uElUMH2FdgIuMRf16+fZxjeYjrSCF5KsY5caLMBM8Hx0xPXfyC3txZpJ7JCiFQaDDCP+0ThVS/8ARkepD741k8Gc9M1YpxfjBwYmrpw1puxbGuGaqvxwAS1XbuJZ5gPDJtBfNYCX5xguPQzOvz/eEi1jqGlSBPiUAIa2ltY/cLdpCxZFyP7kzvsXiNjbgsdThpCCCElaVjhe/iiKsyujLkG2KIqtp4ehun6+RHH8tjbDKqs9faQo6ii2nFumSMFY7RBpTMBhjMZRDXNKU3akYXj00Bk+qng3udjfg7OarN6Kt520Guy16GRpbBDK4Ys6Z6kce7TYYXLPDB6OKETw5dUL9eEW+2RZHGXdYaatnxovoZhTVCUu+INqFapm6HqAfJE8eehsvcRvTwdZ9fXPu2GpKw+bUrD2c+JTEHmT8N4gDWaHihrliLj25ER+qeEmOYKC6YGN8n2cPa8208OE7zqyJU7ICLiBwT3/aHecYLKyOHvXiWKIfmLl4P4V+KDsAGtxlvseGOc+wLUE8YXcrf3l7Ul0RlPYT398OMrVjRp0aaror+BQ408tKuOaLLDDRIR2SYmkHE4m22XByk8h3IbmVeCPcECbcq11KzhL4u4aF0vZC9tOUy2nD21r/nQ/IBYoWzxYLDMcLnhbpubTJqzY7oDCUZmeF6FRktj9uArOFKcrYd9WYQKezUZQ5CpRNECTnctCY72DjQKQdk3RSjZ4wZywknmDLFSC0TMCBFhssj8WKYIv27jgOLdNrKub8cVneAcUbiFbZYTpUW14or4210dIh5imW52o+woURNzfMEbBZmrDxwLF5pyzW9xInXjcWrbH5sZNFH4trGlqfQ1RSjXROnlcwSmpo2WFjCmQV8+zJ+Eo/fy+jQkCTsK1xZuL4rJqhlSoNksC2v3MlJ6R22uOpwQR7vREAI89yaImeAtbuGHwiqIjYLIG0okRTX5lxH4oJwV4OAcAYBG5fxRltcz2qQruKbbHFDKhRHnUQCCOrG3fHOPG6NQhCbZ6V42H4q/3fZ4qYAK4zDeG+yf9c8Uunf2ESE9BpYAESCE5gpjIYIM6R0RpbcHkKA6nBvzAkKojvzI72OINI6oaMNjs6ke1cGcbsHSVGR5Ax4PzroISc52tNZW4gEkRDwqmrPAFGoy6KAjkrMEBRNxncZJ2rI04fCYD37AbAhqDGXg4l6eDkGqsPPPCAIa2QpY5hgNgQ8QMmBCJ3zAUBQ7a/PGXtPMBvjpp8s0t3TzFAuGA40GW2l6bjX3wFP5NIXmncWl+298CkzdDUV74O/mySMxQds+JJEX9t5tE6vi/fD2BpgjKkI65Gkoj3nu7KgtgpQl31GqPztUgFLYaw+Fu+2ZVGJV7xMyiVCpV4MC9FO9BHMPfeGxlaXezs76EAUxErMLEeQZv5Wk3rIgbxAnEjq5THGPdLoF4k19ctXDKooTirQqBMOd6qKm1fuOWB4Wnfc7h0NsZBAnIkXlFhdcNjybG5qqb6+xxZX7ILTpk5UYhpXKu4etABaDyd51JrP4kE/ckc7Q/gZnD3pmSHaqxRhG4sKP3qvuHoQl3FehhUP4dCHnVF/HOCy/IL4kC2vVSg/yqGu206kHosP2vL6abSjDTaIXjqPYPEmQbUsblD9lBBX7ewH6ke9VQxYT/1G1ebiaIjcGtftZZZ42GSMVNLRaMdRaoNsmbgp/UUcbggiFRjywzwPRxQ0O+IbGZ7O+9cxJMzgkZXB7m55f84z1Vpu1eCQpd7bl5gGUz9Sb6IZigJ/r8IMtRQFDRt5F3XNi5UrhaDQw9IOuceO+rkC1jTcx+oRhS6Wt3HE5/JDF2oDON/pzv4RupArk0txq5cjTuZ3YnJ5/Brnl6gL7q8whWSGYKk9GFUcczTrEIsPY/dmtcT+SFbYJtRWPTQXORQnl8Mu+cmrLEpSwjJftK50Uaiv74vkT7TIlLRCJbVwTAVc0wcqOU0aFZ+PwivkswwKiTwhrkZcpwlmolpvOSFKiTt0fQtrOXVP/eUmnTwHwO80+C7u6VVCuNhQqf+l/BXUctKJH+lXVLLOlr5+Z2kfmmsxz3Up4eqMdNYXm8BD3AitCWsXEjM1xJBILfZiZtAKKtbQ+BeLYnT/ZArXA93XqE/D/R2YexzxWYYb5u0VjXkPsqpu+kiaWRJX8D2A9BrC/EUQXeXfB+D35PV393WmVV2NmD9PVPEoSUAF966OU+dKF5stXNOwhsoSLmb4947Uki2nlS7uMRKSlXWff7ILV/ZoQH01X88TntAfAl5TS3wSvaA4pRffq3I0p/FUU/9JiDMYb7eBi+FuvdXaUDdNZ7OpQ8+itJKuw6cQ5mZoZ7o3Z85EZaVSvWskq6uSNZCUTtSDJtNN0GD7U/hYfMbOrvmpRwjRVQvzcbIPhFKsj+Nx9LuobZ/A3pc8GuD6CUaGpwf0O+k1JnbN/K1lSk8mm+wHGdb07vsLx8aiCVy0Mvo5AH9oKpgf5mjUzPT9DW5L4cMQSpnJYYOSvHTh22aibj6BIRwfN3J1qoTkH5nRamQ1nU0UtmO+2FOo8bOcxdqt+Hepdhv+Xa7djn9XavwU52rtDvx7osaInJJbS5PxJ6st5OcJnYLOQjcDgKdJc6ZG7FmYNoorFnL5V6qr06s6/PfqhtvsoLymzm8TX1sh7rpKiH+vr1C5bqh66x3F40ZAZadtJvCwhr5HuAkKj+LhvMJ+hMt3Zh4JDWwp839U0HDUZ2IezVE9Bgl/8nnsXfjncZUqn368UypxmE8wF1lP9Nnzk3xO4MnmYvwp/FMUKJ/KP8yG8mnQZBRPD/SfY3vGhv4qNcwUxc2BWqBbOJlbibiNk7vdfIL5mSX1BeY7ShVK5llBW9nXnWoIz95SxXPaXjnUE35u0Or46rsUz/ManM/zcUbiDF9Qd0rq7wu90Gu21Z/CeFGpE4ZqXRx9GwmoxPGbu5Ryqx0mwqsA1mvo8h7NgXEDrrY6oea1jkQoLF5JstYADYfFPydUr+gPZJ2ru+v61neDPsjn64zCT9QtHYks19zyBtKtgC1+gcf8aTkbN3tcjAIlD5FwRsUEzj2zlOD4KhFZL6cDX0mGWFKiWE0oTuDyEZlejV0LXMcv1zSzk/nLXP6tPq2+p4O210xHfEZnggGdDR0K7woUkJFa6yu5WJrZVaHvuhwZ4KuRlyi1NP4azhLltVx1jbqOk0B5PUs9rhvUaBNp3IguSA7wYWSL8iaWhtXDnTavqpIvkD0iM+ZHLpjUozLLeLRZ58dg8+s0mqmpPrbCL5En28rjKtATAz++4vFlrpZy1E+oZH9n8Yluo12Di6AqPKnqqtzLk2GGWj+fAi1wffWN+6cm03kau4P/B/h0rbTP8JqBi1Grnr7BTPVmlmYFb0EkwjW/NdG125o6P387dhSWz6Tk1OUxKnfAoeS/yfYsX/3ptztRJGN4NmAOQzF7TpB4g+fCQqEf+nL6ebBT5AKT6vMpBfb1AgyBg3qhMfoXhYgvtNygPC3uswBLJYd/iA5QGeJv112ul97nKrxuQM1rVqmRrjHZqnFX6/C7/CqZHnwNKQ8NeVpZAZ1zcFPBMW3UWxx2Hb7jro5SjIZ+fwIQ+DdU/y1FXfEcTdxOobsax167tWQ/7pf5Cwf1UQ/1FzbVWVnvjhE2HW5JX8WWlG9ygcdmpL6syK1ol3gcDVRGrDFGXDrASfT4wcEuMyxqm/d3kaL212lPouIFuAA+323fhor8P68FAACFVF1sFFUUPndmd8umtDVpy25bf0ojCgi71ARooDOD6CzBEDTAAy/TuIHyk9QVyywCxhZaioXdoPFBEgIJmY1GoyaIEMJ2iyCaKhVlBxIiv1o0zGIQrS9NJOh37oAQX2w6e85895zvfOeee0cIhVQaf+X40f3llZ1Pr1i+zF69saNl+YJFi2dsSK5saU+lqZpqSNRSAz1CgYAgUigggs+9siL9cnvKppAY101EYXqIBhUiQZKRJlJACb6YXN3e2Hw/ZDwb/Ekj46vZrRKvcaIiE5s4cWHKbu9MJTsaX0h1bGp8NpnakFxPIfp/ml2CBdQwk4CEiuCslpZmqu0h2tIITZP7iN5Wpkh6WtK+Ot2R7CSaKmRUoJfoOCJ/DIKkx3NeV3rpwKC6ts6yAwyX4eelIIUC+IdaGaISL20B2uWaBgmhbKV5Vx9cEaGuG85cXumheZceXFHuriios27lgytq6I0bzkUaFw4L8R+tSrddnKnWnOsdGRpTp61qObNgQtdfv+5Xq0ILAxTcH6LxEM/tB6iMxhFViMpuzKwqQFIYJHAx6hZbhNiKNgX1CtomqE/QdkFvCuoXtEPQeyA5JWhYqKcFfYcIhXYrIiTAyVsdpvJ7m+UPA4mmnEefIK/CH0o9vz+iPEqP0RMCfHhjROUfnCBBT9LDVCnqtuK9gSbRNIqJPkSF1L1BEtmYo+e9poLqmhndNSOFeH6NHs97c9UBb46O4q2JSK2ey3Rpai5zRXPN77V4/oBWcp7S1bzXoxGtQ34PgI98IBG5jLQPAAhDTUROa+lijZEuhhE1kYHpeiISNwa8Nn3Am2mAtB/lWg2kSAsdQ9IpOVd1y55lqNnYGITNAIdqZGOTOKXcSETqAVQgqtxQXPOWzg7YS3o2FjVc8zxyGw3Vsr8C2eS77JMNtc3eJJ2SswCCapl9AgSpIKtF6he6UnIapKMSzQBrEc0sQv+XdDVqrQFwHWL6YG8y8C6cP1HqQ2lR7hvpEP0Me02H1Dt6ungWKWWocERHd1UQsxcA23U+MOBNRYUy2BFNLTl/6212Evt3TY9ah1rVdHEIq7HCvUn5Mys5GQ39HpWOaw5DxFFOvgzq61o25qGJeh1DHEW/87DXo1CFeuwkIm+B0QPgcBNXABxGrW/xHGfNeZAO48nhGeaId6Rj2b3g+lJH2bXIPQaOJahykCNakfs+ouLg2s0HoQkR/awXUSkfyMbmI2I2ngZdjecXAbiB4/IqxOU1ROzESgbSHWnp8xCJdHEfcxQQzsesqeCas2F7WlHyNnKna1GrgOeQhoiNmmWHQboZR87kChsRkQbgaLnMLh7o1zi7DnoIADygY2cnYTqDULgYzZ3QFXZKzknusA7oKSgbxSB+0rGxn2kD3hi6PITdxlFjwLLrMNWbiHjcAHsNyOIYYgIjkOd2M0q1ImKftACOSafknPcjEpE/ZAqPXHJkY2UGk/JxkVUY8MveQQR05DK/SWFR6xyAk7rCDmvHigeyQVQY87vD59Tgdl0zbMj+E5FK3BvekEqIwg4xwFuGb4HBjaGH25jfdK3NvurvciJyEk5TgXtg60+Ex4OlI9LhMx+1PtawmxeRzPf9FwAB3t5bqMUH4XfY530gatmI4oidfG4uoJs90D2EJ8eaD2P1E7zskxaKtksnl1kFUEY8g5c9IJ3mc+S9CXBstBnxqzDAZXOZqViAjlxGB8dpjGkFACiNWtukdK7C9l5XZ1nip9JxzROwF/m+nIFzDcV/QM1RPlYjoCeMZQRg2JCAa1bjOl+ArecvWBF1JmKPTyASH6yodRACpgDgrqYYkNgvnVym049wzaUyha+I5EhEmuFUYzzNfhUGuGwuM9/XEbWWSWElZz0eKLXsHXDOItzvhZaS4C9TNjbHUNjB958U3Ir7Ti7TZOAE2b6DA4urFPAd12wwZMy/6ewQ/QM=(/figma)--&gt;&quot;&gt;&lt;/span&gt;&lt;span style=&quot;&quot;&gt;6881&lt;/span&gt;" style="ellipse;whiteSpace=wrap;html=1;aspect=fixed;" vertex="1" parent="1">
                    <mxGeometry x="450" y="270" width="60" height="60" as="geometry"/>
                </mxCell>
                <mxCell id="32" value="" style="edgeStyle=none;html=1;" edge="1" parent="1" source="29" target="31">
                    <mxGeometry relative="1" as="geometry"/>
                </mxCell>
                <mxCell id="29" value="&lt;span data-metadata=&quot;&lt;!--(figmeta)eyJmaWxlS2V5IjoicjJjWFR0Z3hsOFhHTE4wdmFkOGVudSIsInBhc3RlSUQiOjE2NTc0NDAyODksImRhdGFUeXBlIjoic2NlbmUifQo=(/figmeta)--&gt;&quot;&gt;&lt;/span&gt;&lt;span data-buffer=&quot;&lt;!--(figma)ZmlnLWtpd2kZAAAAdzcAALV9eZwsSV1nRGZVH6/fNffBcN+nczEMN1lVWV35uq7JzOqeNztSU92V3V286qqisqrf9HghIiIiIiIiIiIiIioiIiIiIiIiIuKIiIosIrqu67q7Luu6ruvu9xsReVS/N+z+s3yYF7/4xS9/cfyO+MUvsrK/JhtRHPf2ovBoEglx9lzLa3aD0PFDgf81WxW3W645zXU3QFV2AtfP1S1F7TYrgO3AW286dUCFIDxfdwEUFdANXPJaUrSKczfY8Npd3623HD653GyFXvV8N6i1OvVKt9Ne950Kn18xYLfSarK+mtR9t+q7QQ2oE0HZbbpdoNu17l0d1z8P5Foe6bvtOpEnK161ivJUue65zbBb8tF72Qk4ttO5sZ1rdXzMw+XIzjj3D2JM827Agkyks7OD5QLKd51Kt9VUrIWqbPleyFHK5rgftfd7cQSyMppCxQtEjdamAuXWYNQfjPb8+ZA0zVbzHtdvoUG0KqqdHLQ8HoVGFyhRaZU7DYwboCw7zU0nAGSt+61OG4Bd9Z0G6QqlVqvuOs1uq+36Tui1mkAWN91y2PIBLXGOKJfrnmK74tbrXjsguOqDCIJVkjvhu+uduuN32636+XXFZA1dNStuBQua0Z0M3bs5pFNB3SsTcTo43yi1qAVnvCY6ayrs2SD0yhtcqiuCmtN2u1teWOuaZ68st5pN8FQDvKpMjSvVW+UN1K7e8irrSnuuAa8GZ3ptw614DoDrat56rY7/2Hx9AAZ6sjcYsIvF9usOO71xywlqXjdEz6g9bNPxPaekxn9TaICHK6Bbxnqg9oiExOjuI4P93iTaGsz2w+j+mZbMyeCujuO7aBV4yCyixNgaLWUPVggWXCYoNKp2Wq20tjjOwuXWs9h2fKdeh2VAeRtd30xvaRFdd6vELrvN9W7Fwcgd1fkK67CBDiurrFQ9xfWEglv1isslXisNo1G/ARXDcredIOiGNYxlneYkmi2/oYxYVhx/w+VArUanHnraiGzqDdSiBBtBtVBu1VtpraikoZ5ZCqD4ClKahicqLUgS9RX9SFJdzaR0ImhVw67igdpazfEraU0Zr+u7Wp1OuXeX650AQkbldE3N90zghJ1U48+qXgBcUe80vGYr8EJ2cWW7NxgZ+a0ErbpHQQmsacWDaaE3DhUYmaJYqvWAqQEkCrKiaQBnpzgQGbEXvIajZlaEuZ/zACxtehWX1r3sHcDPBju9YaRXH47Sd8OyWviqx3lKSEz1FmrJ2e7ubrRjRlzwYCc+3KQDFUKjqPitdlaV1RasFpJsVmBAHQ7QKjnljUWUTQ0uK+e01IJ+efB1QItOGw4Dpay3thSAIYR6DAE0ot4tO226nEJWg0r5ZeXQimRaiXbG095sMB7hmcRtoWfIF+sKWGK63oabaZtVj3r0g+F0cIBa8gx4d2uukbxszg+2o2lnNJjF4Os7nKpoe3e79QCAxKjh7ElplcejeDbNJLwMyQMv2K6mJBsOPbmFcZhlt4MyXD2AQhUcK139RNFUFPVSMJuOL0TOcLA3wgMpMwH/BsECkK1OaEBLE5d7E2hkMh9MV6mGTD2G5fh+a0vpGydh66p7V8erY7eAqQNZMDpFI9a7URHLB+WDC0lRS3knuJy5ue4tqK/k6reivpqr34b6iVz9dtTXcvVnon4yV78D9VNlzy/nez+tZ3tuPODKNLD9+cCKkrvpcgYymbhVGo+HUW/UmkSJghQ6TW2pWEY8Rp8NWAadUug7CrbuVgas9FUtfm08HTwwHs16QzxuXGBOttBltQrWuQ52m6qnRpg9vRlNZwOYHnGtNppyj5ZaYdhqALIa43kclefTeDzF+lTcqgPfhwZR9lsBLM3zAUv3vEvTg+qhZiEaUl21HUwFvrAMFUe90Fb+r4ii7NUBLTXoUfnIMkSMQArQSio/VV3dhLGPp43BdMoBpFakpI5SKgAeCJ4RPj2kCluVXryv/YlVxj4ElMgUXCqfo+2h0G6uAyXOtV2WMthkYbUrDIts9/7JeDo7bkM2Nme4dIRsxlBEgsDWrPqXCSI1WaveOxrPZ+vTQV8zKWizyq14NkBLW5mdPdPuzWbRdIQmUHltZSHw0cpXSyXP+WzsR/HgAbBOl0gNR61MOg6ZQhYfC6fz0Y5RP6viBdzfyVMgfvXUyshgdjSMgsjMHaLzg5bxj6HrUENkGdqldQUhKDbbZpkbix26jXbLd1T4WUjYYDFnUbqSl+w3AGWyW8Bx9HYuaDGmc6rBQd+D1VUjkNgoEUUpWFMrvUZ3l6yuXlKrBCWjiwFsqwfK4zkGNDXPLT3Uc1h2Ixzb6YTcuQo5VkXF6tw8ng12j9D0kFzaTtntwhXoGFmPINBCU/4VSMTEgXeP2w1bcCpqPRYQ0DHI1Gu0EVyixhbQ6Mm3x/GAssT2AZQZp3BKWOWODsMV2daUrhhbC8Jzpw20MKWEcEawNrDQ8llJVh1W7PIE0OXhB3XZ8dWal7CXorTL9ZYKtwqIDbtJoIh6sdNGMOZ2VYDa9TvN0FMh+RIMpOIxMFGyW/Yog16u59MIVmG5irtwqui9y0exq6AuGy0curpqkS0N6wYbT9UYPQEu6AbEASQr6poKO5dA1cai0ohwzlIzXKn4zjrKVbRtuOeTx06gutnSYfwaYD2PmpLLybQOY0H9VDjtjbQA9BxuxG6IKDbswn1jX+RsQSZgZhDIpgtQVnFyQ2nhqIAQv+q30kDWzqESN17I4bTDLuYwqcdeaneCmsYZZssZJuG1kqE0q9UMkXI6wdOZxhlOaxkm4XQyQ2lOpzJEyum0HijEBKKE2ZkFZMLv7AJWs7xiAZdyvVL1ZLCG6VV5XMLz6jxSs7wmj0o5Xgvf45W7bEPtOgR2OP46TbgkZUDXI4ZvIdTLMDe4vRj2piV+GifmcqfkldEgyDqpSMTbuapFv6HDZTxBI0qbCqRbwBT1swu4Je1y0/py0Pa1v15Zh9PBfpgiVg1pijihIWUCsFat/2uLyHCLruPkMWQN5xegTwU70/FwWBlMta/AoI0VfR3vjBVW3lM/C0czo71HfXikWYR29+42NirtAcvgwIhH1eR6B1uEtGLkGNAZ4GUhh2OELQq0yuMh4gJZmIpVIffwj7WNf+we/ino0AEP34+aPMI/lg8UqDPERfxj7+OfguIUzMYTPLBDWLxYyInxqSCwGr3ZdHC/kEsHN9+Mujy4+RYU1sHNt6KwD24hsnBwC5HFg1uIXGr3ptjtvFE/wnPW3nzQF/fmmK4JS8fyaDzsDecRnpFzFdffJKwqVqnZO4iEtHd7B4PhEehlzI0UgAUms3hnOpjMULNJu9mbDnp4ZH4QTQc71cHefIqlxdZpzq8Cagd5ApA4+KpEFGDVzeKjwaS3A6VeeLaN6K4FeRqXLXHENke+yzCoUricYJ4DXCXSJgpGsAN1VvLNP13uTWIoc/YI7E+d/SSKblKx2i7OYRy6DUQ3rTF+RvKKYBEoTHYd4FKOfztZ9/ywEF/jX4TZCG0AqPEEapEhnJTKg04rU5OI2JWDr0a9mVrgv5JtHM/QJMq3thWJGYVVbgfE2xwNSjVAlEWT2loKvCbjzOWWX2miXHGqPttXK03ljE40Ow0OaQ3RMNM7J7EjckqnKro8zTAZ5RmcJlmedRwVmV9R1uWVOJqwvCrQ9av9TZWUuIaGifLaYEslDK8rB1ssr4dwiL+hXFZ5pRsDHfI8rOaplOBNJtp4eMtvcnyP4KKgfCT2N4ryUZVQHUAfXa07nMdjGus+N/DHBtA1lI9DqM/+H19FZIryCTVdPrGm+31SqOtPvkuXT2nr8qk8vqB8Wr1aYv3prbYqn+GHqvyGtn7+5vZGk+t0Sx3uA+WtKDnO2/ywzvrtKFl/plPyN1He4ZQ2WX8WSo77zk3N59mbGBDK55TqW5TPc1GS7nkoSfd8Z6PGebygfE4dy15YripDeFG5repOueOTroStnvUynBvLSlXzd6vIMKCsorwV5TrK21DW0C3781CS/7mang96W+d46rXWOeoNwksVgTQ9BBIoW+faz7oTZftc+07yuetc+9k3o/TPtW++HWVQP9fgcyFSiKTvYFejXDYZvqDcQslx3N3YaBB/vllXgdc9zc5GiPLfYAPguO5FGaD8xk0sOMoXt4OQ+C5K4u/zN3zWe367xnLb75Qo950A4SrKfqjHEYVNdXDYhZgov71N5KlQ7m/q9sGmnvdLNjeUvlzY9EMf5RDlrSgPggCeV4gRStbHKG9DOUF5O8qXonwmyinKO1DGKJ+FcoaS6zRH+WyUh0EAny3ERZTkdz9K8jtCSX4PoCS/b0JJft+Mkvy+BSX5fStK8vs2lOT3MhkEt5Lht8vyphrhywmQ5XcQIM9XECDT7yRArq8kQLbfRYB8X0WAjL+bADm/GoAa6vcQIOfXECDn7yVAzq8lQM7fR4CcX0eAnL+fADm/ngA5/wABcn4DADXmHyRAzm8kQM4/RICc30SAnH+YADm/mQA5/wgBcn4LAXL+UQLk/FYAt5HzjxEg57cRIOcfJ0DObydAzj9BgJzfQYCcf5IAOb+TADn/FAFyfheA28n5pwmQ87sJkPPPECDnnyVAzj9HgJzfQ4Ccf54AOb+XADn/AgFyfh+AZ5LzLxIg5/cTIOdfIkDOHyBAzr9MgJw/SICcf4UAOX+IADn/KgFy/jCAO8j51wiQ80cIkPOvEyDnjxIg598gQM4fI0DOv0mAnD9OgJx/iwA5fwLAs8j5twmQ8ycJkPPvECDnTxEg598lQM6fJkDOv0eAnD9DgJx/nwA5fxbAneT8BwTI+UEC5PyHBMj5cwTI+Y8IkPPnCZDzHxMg5y8QIOc/IUDOfwpAuag/I0DOXyRAzn9OgJy/RICc/y0Bcv4yAXL+CwLk/BUC5PyXBMj5q/J40gah1QzbtbhdyCTEshhTNnqTCYMcae1OxwcMy2Zj/GuVhuNtIeX20SyKhS11tkhYNm6v9lkfMSJD/NXvzXqKdlnYm4N+NBaWldDEt3WmQxJVB0OcbMuMJp3+S5AgEHJlxkEhzov3e/3xxRigtT/Y20cGYh9xHyLJfjTrDYaAChHmEjPIQER5iAxFhDQQ4KVZdKDyhrpp+XCwjbPnDuEVlc7X3ZpbTGGd+P/b5Q4ipmkPc1sVq9tT8hyhZ9ROqMEI6xolgLNC7nAhEFZbY0aYMwbg9uEgHmwj2pKigMLcwpwWxRiReCz6cgm8R/HueHogdsXyQEnj5VKsKCjcR/g84tCBWu2NgMShwmMTMWc1BiEfIlKIbVlcgXr+wuFKcWI6xhkEJBjMWswGACd31QqWOV4juFdKcWrC+VRVE7y0OB0djF8yKINPG/lerOSyPHOoVOEVUlyJ3OzeYIRzCnvcGvRn++j/qgVsLeJqAX31DntCmCoetMU1DEEbkEgFKias4oXoSAyF3AW2PhglD0GGxFQGexFGZ+OMgJoOXO8XBVa2NGERyXvUwHyg52nZPdzhhr09dCwJNrk20NbEPlSKWHd+dme/x2A+msagkGlNdeRVOGUrJtw6jKbIVEZhD1IUr7CkPVTpS5Xeug+yxf3KEKOPseXI4t7waLIfY6+RS/30jiTGTiOXt3G4u/DS+Zjm92Ypz2o2mxgASDDilV1MJl2d10i5utsbDreR2KqiIRZDeWIf6jZFZxdK4/vB5fVSrqEG6EuWPDlLc544e07N2awoThl81E/X9/RwvMf8uCIJx+Vk7q3d3TiawX+IVXmmlutLWIVt5BP7sYAHmWsPYM589n5Ch5C2iOyhWQ5hLcPe9KnkPiEvKjWBaNl2HoBNIB1RgTUn3sGZErXl3cE0nqXDwtoUYT/5+tI611lYSzvjg4MeBlbSDis7gd4ntPgwKvixXaygEhi6upR5r39oTH6pkgoNXm+KMzWmDLeXcqIXNVKEuh2ai4YS9Bsro9CN3hRLZhYrPwZ9aFfC5ZOsNKPZxTHIzeBH8AW9IYbZV2NNpnCpBtLNI3WOBZAUQyzulTI4OtgeDw37WFXQL7y/hhMmMRlYOIrT8QQYe1TFOsB5QSQJW2iA2kEsS4lYToBD2INjIzzCejSiu8QKmb7Gec5yHkdVyHKdWxTmcTRSB26JbWWwu9saDY98+BbYo6K2KzhUH9KvHcxnnJ3yZpqvtcgXFWMnlhNDS/1oFzT0ILDepBFqCd2foffxfOL1QcDl4RR6yTPvkqTBqnoP3awWzHvIduVwMFgs7/+FIohmD00UQAW5QuwMuAgJFeigtbo7GEYbel6xagQLbN9mjrUedmLkRciyDbkYWcUIOWUh2duLwwF2sekRBRqOg/k28ynbICNCfKuk2UzGI1ib7mh5Ptod8iqGKfY8x5VB3Emaoj7EuKpHXU6eb/RiGJGWmL2TYDVXOZlvDwfxPpixX442HIdR76CejY6dWMc7sT3EOLTIFiZNFQhmnHWmamTV2g0uYqRQHkNMDcVGvDCERSW6PN/NW/+fOMPue8MgJ5DkEc1aX94La0WFBFdzJNj4VEigvCqs2Z7iBnzO+KGQxQZFFGlssBRPplGvD4rleH98EWuNqKYUYQX7ND2Qr4QMGpSL80a7DM1Uf6GQ/bm2SjxstbH1j9lQiQ4HO8mVYJLM5GlXXVvKMvIPKiNjKRzym8yDoQ7D5IN+EkHA9M3D5fJWV0W48lgn2CNYQbAPvTXuC7PB1L0+5DHYHcDZQnHxlOb5MQRGLawh9sG28dohGYiV9H5JIKWd5L8l4bTFYi3JgttIwmIeCWXBVFPiokEk9LidbXbUSX/ZDKCEXXYPTmMEmUOf4RExGvSSzpr3QEgp67sbZtfNSwDyEgZ6DumTyGR4lW7yisql5A4UDVsRtcyytlO04vIpLGWGKicK1ewhflVrqKhEselsIpGmcoUCCX7zjo0MtlT2zmLJF94UgW0y/eoOreAiKJ7OAsTCMNIYziee7+4iFQzjHTCOUx3APhAJJ6eObxZ2fLhHi1fRFYSIKk4d1M8Hoc+oteYz7ucMttAOZ4M1RQRD74/6Miiq4+kOrI9vFMCDXIiBXsHO4WzH4+F8Fpn9E+7GDHBz3fQgLK/abbquyag79S3nfABA1lU0xTtlzGLGYd8Bf4sYUFjwnam52aP5QQBDxeLFAuGKMU6cCWKNDai6CAT25nBHU1Nb3jFrvzKhl8KF9Z1idR0eGEJTMSc6kSmrxN3bbTgTEFyE+WJ51RuAKwKOYSFk0Xs8XApChIBgyMEzWawViG9goEBm2W9tEGOZd+lst1rVr1IUkIdr+YSK5u58Ca4Dblrxy+0tui/tGpNN02woyXZEAogEk6SIMfqYGPNIDFkktoq6lW1V5v4DvgrKiaUCQukZZYMp4Aq4u1VzYT81r17ptqpd3YxUNi7U9OuMmCFs67xp4YOWM91JR4GQFovojPawijjxwWnmqtYAF7xTP/GvtvbTdUSleHY+HWCEsj+IJ8PekdLaNcYjqqqUFONvD+c4vpjeJqqClcRjiFVwdsADF/RE26rNj4Y9hNX7+oHCRCH1Awc4I8J0AMJslKgB2oO4Eg0jROFQwkJjPpwN2Hs0rQ6iYX9TiwIC2oHmY+2hDDJ/MYTbIEyQcVqjx6MrJJzoh7kOp3tEYRkfaGuXB6iQeL1iysMd9Sc812GmkQG5vaAnxCiTRL734QZId/Z3sJv0YQCw22GbT2HAOXJtbngMJJqWixsAYjuumbxKBTd4uJaEM1LqioxvgtJ3zclNvX60MdCDQzcxkOTyD3CJmaGl1JA03AkUFd249VJrS7sH2IxjZi9N0NEYH0Zm5xwP+xtKpghwofDVVJmtHG1tgPP69MhDmgCPxOM5HJdarD4XS9fLx4KOrUF/L4KhYOgQpYW4PqF3+wMczNi7PRtAUWa9g4kXj++8A1lVjAMucApCsBhiRCSO+g6P0TZhLIpyDVbF5fvXmJTYwpW9W2o5PqcrYbcXNInt1Ns1ppp5WwsrcwFJ9XqkeUtXhfI4BI2gqNbnE4+lThP6/PzMyX4vjsSSsBSgkXdM4COSaz8khHJVTfCsGbs/IVQooFF3jnrK4IosNerZg7itQ0MGyTCI90iEUQhRJ0rGa+Ij1jCTgFqvf5LiZXmkEYv4Zyl/2Fjmr2vvBi1eFrcYUPcXDeJgvDszBhiwCZ2+VyJBMB51Jn2cGMxAfgE46MEwoflR1PU2lWB+XMaEQswP2T7kd1W1sjD8X098K+CfkZjlZRzrlyRSubmmzEt/USK3e8zTfhQObh9nJeZo9OAwzXsRlxp0boyq4e1JA80oQ/9UgjbbatrwrrRBhbFZw08nDdxZM/S7E3RuPNjT9TDQ/isyVsg+kCTBXMWnjXyI04RJy+/lWjhg4j6Tw+lBEfv7OSxHRNxnc2FTuwebi3GtIH9DXnaEpZQUo/yYki6kvw7MBML9Cww7qSK8RWJjdrRJ/9+a9iFR8aeW/PtEaGqHyaT2fikeADeFXVTubwKUPpA/XH1zvmET/LWsv1WjU6eSU5oPSGSSYkW/qHGvk/PkBAXu+U7egfQaXFTnIZq/mhzSsEy00s8ndSXmP2awokexoWzsC1ix8q2Y1J8kdFG6ea3BHnQSsLz40L9kXLiolWg3Fh+25Kux2eXQWMpYfMCS32OZCXLCb5PipVlVWzNFwaRBkOJ5APsWOAUex3DW0A1qAt+32LWDHXVvdIBaLD5kydfggIJcrDONSvNtCIt78y+k57qAh0Pcgch/kgsonBc/JOU/K1+pIry3SjFOKnqIk+SBenQYDUVR/IZKaZpo8poE1sQevGhvb9qb7NORYrdbFdceQ2nCcyk2eY9hVVx3HKdJN2YwIwdp8PybtE8Sj7oMWj8Qpi2bUHrmtMRTxKMvQWriDvFl7AriWvGYBNZNm6zmkmjXi8cuYjTZ1hAbtsn+vUQ8Kavp5nu5Qk3sF0gPPzmBddM3KnYU+uukeEpS0W0vJqnKvYxwT3JwMB7VeVCa4xQKyX7bQiu25vtn8x5ixIziZbCVlKQygIFFHDK2nDzVt+ep9D7EpcmTvDxPAt/BvDjQ35FHB9jiYT33RNMxml6Rb2qal030iy4jXKle2mjELSbI31/aijzaDocuprh9zTWX+SLKDCn+HC7dZg5xL4sdEs4mYf4S3FYqytTEPwWKHuaj3+O/UXwMV0MjmPzeXcx9YiJ/kCDqWBnU/9DiQncQ2NTVCS1htYwru9l4D+F7vzVqhealk1g8IH8vxSNhmG/4jExzzeKfLFyf0ZDJ658t8TllYGpGRMW4NZavUF2XBv1B1ukPKVyoU+JEPU+8CSOOa72+H9ZDtGHM78gdGJcMqDXsOcgCXVB+YllDGv3c7NpnxYC64Xl4Ms3urKYV3fj8GD4A8fIaS416IQ7Z6Z0QMvqmohtf1IfGwMlAQCNk6E/lqprAOUAAiLGdZalRFYJe3NIncrRduYDQRFXiVETzckv8Wm47bem5YFpXXYLUj67DrvMnL9z3ZHVNUovVZm8ubVbFjfm6JmlqlHI14lHi4bmqJrhLY6C+4jHiEWlFN/q6rn6a8DjxyKymm4NdRABZYPCErKrb79EPaBQpnphHaJp/E6kQBPuWlE81sG7pZgtTNkmCW4+hNOEu+12PxgfRDHHrF6S8LY/QNHu65wRJqtsXUZpunzcTMDOo5XhSj3bhz7JVxxJ/v8wT+FzoYxSvzyhK49lsfHAZLj9wnOZyjN6QEWUtA25bEyg7DBQ694PHacIx9me0ZiRvlNyKEZPCJmN4Z8way68s7Yd4LHK2j2WGXm5tjxkJYH41tesD92MGp0ebot9m0Jxiivxxg1RzSrFvN1gIF+E0FJ0m806DRFdaaTHtnzI43VWKfpdBs6sU+dMGqbpKse822EDJV6PjxUX5GWsfe4veptM1mYlHiJsuh9eq0Y75KjydjCgJuGBT0Y0vUXXOCw4aY7iQr2uSoUK1e306eZAc5OuaBB0CVYYk4HqUkYqquF8hz831TwVq4kjVdWtFfFaqai0dtmGIDv5AN8FFqwgja3hQN+AwjRjrnPhDXdVhAuqf0/U29iFs0MHgAT51TvzVAlr17+HsHmNIf62b8gPXTRXx70zT/mDYN4+uT8d8hfZvdIsZlhIhsP9+AauVAOi/1WjFRvEPouEuFufvND7ZafGIqIvvxVkGSB8h4jSO7qHo74fQv0+j1Y8ZmuI3dc2M2UgKPX3cOhiMMGkcQm3xW0jU3J9UPmFBHcwVAQ/5Kg7+HpqXztYHzKSlDa/JGkroZy/zWnBk3yszVuoU/hEpfjiHC/EUrh7enENVsluIH5FRL32FfFO8JUfVxoYeTQ+jQCUNMelfQpyuUjloVPRtnHUyFH+VsSZ+ORuruXL4uER8DtVPMvYhmoQvfjXXVYg0y3hOmX04T9nooYL/lIf5NYlK0pKbwUeYlkDWUdWxZ0JQwx5T2B/NdRDsj+fDfgCVmTnqpQy6jN/PhuplrGPxN5b8StakRIEVUpki8Q+W+B9SJxIZ0kJd5adNfSHb+DdS/lmyNjxJg4f4e4nMWIpzcboF5r9mmDpmqg7B4h+l+FqGV09jI8Wu+t8yLJ7XuH/McGWYLYSlhhqL/yzl/8raGDalubqvSfG/JY6wx35DfVL8F43tQPLGiFfFf8cKq8PcZW6A3ynFvz508yaMBksKkxMPWiOo87F76XdIDHIHeKTZdy7UsfnMmZT9nCW+wxoigoQKHg6ii4r2ZbZ4o6UGZwJDhJtSvDlJOpYxdTjkON0lfgTxYT8at6EM2zAa8UpL/Czt9GCi2P2rJX7OuqhygLz/xkmVSQXxWkt8fw5d1r88XBavN8iKnipua2fTKPlh4mss8QOmvdzbwXnBAcMYa45TtXiDafFGk/ksTb1/yhI/ahq4zyLRDNt5q8HUxodwI0oTXm2Jn8DV65bCB3C+F7jAmN5PGtpGNOv1OaFPW5iixrmHXAnxSUt+l8G0sW/Ddx81otFcu9MHLfndlpKWP76Y+LxYvMUS79do+Jf5wWih5Zd0Cx7QuhFj10Y2QCE1+Rb3AYX+ZSTDYFM4U7mj+UGV+oejxuct8T+1HaOhgmEnDV+wxLcj1QAHisU+oQC9j72gp35cOIJGYdans5puLlG22iG6I46DruLMJUhNXI5URi1RFXPVdcWlWE3uxjA8D+YzVa9gwBKuX8RosvrBAPOpD1CA5AYUpqabGzNaF5zLBTgREDwsX9ckrW2owMLPcZ8gHnccp0nvhmZAC/IhBUKNx1+K1eTncc7rI6Wpfr+K/sQzxNOOoTThfXoRApwsgYsRC8inL6I0HWwE2QYlhJh72XPEMxYxmmwbVgeHzuxfjCBAfkOuril29Ms11AHsOuLmrKrb+7t0Ig2ceXDGVzKEqOJLkJoYtqj6HlchAyl4FE2qmuBQz6WEVdd6kTwP6otMC8GZfF7KV0usnNJNagHaXitjtftlPze6W/wYPBbj4+BgPJ7h1p9CfZuhw2k4xq3HffCLuseQixPjapQAGP68IYSgIKcdlenGmop7xPvANsVh9GDyixLXvEgyMlKZRqPKgB6N9/PvN1xSd/JliXRXz1zEfUWK30x8sk6zEV1XEtg0HrmIbXmEZ5EOQVU5/89I8VsqiTY8dtf/CYn/mwZucjMwTggwyt9O2rLV9biKmAkJPinx/0sonOxG/dNS/I4igHKou517xR+ptehhP5wG8wnX0ST8GYU72PiUAOj/v6iDtjJ4okusG+VxTvx5xiA2HB6CwZfkhegIeZK9PazsP1pYycMxohaXLrS9P0XODOv9l5IjpUfHUX6/FO2Op4hukIbhBO+V/8Gke+vYsmLxVSn/o5xB3EyucOXFFy3xnyAQDHS/hWQw7BQDxS45hl9EjgkwBvKd2PHiWRY8vsqKDrajvmLwLxY2JmSM9htRf6BfPfyYLV5nQSkgZ0oZwzOahB3sB614cDAZIsZPXo5p90bRkNN9i7U/O1AZwi/a4j0WUzE+/Iz4ki1+3urtYJIqkVLvbSMluibeax2SBBjV6YO2eF+KKcPXzA8wHwZqE+yQ4hfTNp5mSkcBtie0vMlCJjlpIQ6N8Aq2/GAei0j3fVL8SoryIxwmocFaBW2kgpMWDkUl/GGztvhVCyHDqN9LNJI9vsMSv23Qyf5I9Lst7IkHA2RiSRhguXA6/rItfgc7bO7uCcv0KQsLjS0b4fS/SvG72JkQbGMT3WUC/q9t8UeWFicWXUne64v3SOxum1DhLOSw7B784gRVsJQHYNmrj/kLP1za4pjMjuwGsY42FbHa1m+FiLbTCXgDiAvjdX5ggPhugrQa+gfVdqdpoIIhY7WbYovqq07Vlr+lrx6XVL3klDcMYlkh1M30CnZuxAm5yMNawmRx0htgT2TCBYZG48kQ+deoe1N1T6QbIUzMrABckHtEY4uDuKUf0/Ul3W/FeKuFsAo3uVRHRPW8LYRFKxsHaOWu5ilXS8JYpwPow+ssKRcbXbQcgRWsHPqcvSiwmVMmkOV4vAE8jrW6aAITmyGsehcAgwCrjIaWkeqnpnijJezNBYy4vuEFgad+GCjKLZ/fjvGditfhaxSSXxRa9/mBLP5QX1NZGdJrVlz1hQIb9+WtDbe7lXxLoYCL+vJG7qmiRrSdCj+jkLxwxS9N5bD6TYTlRWTyFsLKIjp9TWF10wu8Up3KdYIvuKiPHaGytoVbXP5Y72T6hYdT6VeU2JUaRPf4nE8v0qjeLyE6kxHpcVye19lLyC7P7opSy68AwQ7TJbzSIM2TKf4qg1c9ptirDVZ3kKKvUZ8eaIZd/ljV9UPPZX/X6qUstzp8zy0npesS5aA7TH1lpoZvzqlhnsRFO3Qx1TZgYR9wnalCkhqoe4UVsopwvayC87yHzPp5K/p5SDoXROxs0Ae77K0T2M/iI9zDQJ5j+/ZL2BoaFwQZyxhIOBDLUc66bToAWY7VO8HqknYXjRmbiWngyDSph1OO2jqEZT4bIZKPmBlm+Z0h6+xn085y7S4as86IxN6Z9JTQwWPyXIIhyBk7fhcocFyAd2smArFnSHTgAIFt5b2WKBziNkZV3meJ4sE8Huyo2vstsaRZhym5JWeE69FoD4k2eB9NsJlwsBC2zLAlw0VmrY2UJVzpeLSHMWBwMQY1C8GtEYPUwh1cdveK+11hFUcYr3ZZYNWPdvEclOmB8cH2IKqanzs09VTtnfzjzfTBD2J6+bepiuXL04lC5lJE3qVIviPpexV4vW6gPmHXxTAgTa9Zc30v7PKVu27An5HrBnuhh+wSGXNPpgALoff/CASzQFzhrFe0cEd6Xji9QqF6w83kCRs7UnYLtyYKuNPNHvf4bFGJ/aOQXn7my5Mp3z9AlKZ4xbiNEysL3Ss8dhee+DQMY2YAqSu4QlWv/ugalGjh4ZB98m1a9WNctYQoZPIuK5YLDqhZdrt8wRSIxafbx8YGPYEZjPZMdU3KgYkg+ba1wX7ckpaXQy8yAY8Zx/QJSzC0xlJ9HeKQlJBGq9FuNfX+JjBeRDH8SBrHK3WAoOJxbG36SyrmAylCveiLUnLaXbcCtdCvqFlOCLdbcyvQEJDwgzBBV38mk83YQztwyuypk8cXdGeLqRphmy/UiNDvNMtO6AKU6ht85qUt8y5Z5ggW3k3U8CaOG9AchTJJmaZWNXtL1SgOnOLTFI1emmWnbN72FoHLaEB/lTGTL797ZZbDVshu4NaxFapWExcCKmKoXCkTb+U7Q/obZ9vxlEcTqLaFuE4BGPoMGolYCqCZYv45DhJmMzEoM5v8MwNQqGl8BvYz2FE8C5o7MgyWLMaqa1wiKxxaYTmhvleGDSzjBm0XSFgLtr+FDKE4G55vu0HZ99Rv20W5TQFJ85Nvqxxw67XPOZtOSlOohQ2aSPFcoNZzScVVdxG13D4f1hRyZZ3B8Gqg0CeCLU+FTmsbLb6fB+ik3wmIOVVy1McLTiMw5+eJlNGd8RifInng5jJecGR1qpZMGivQkKQRXh2F8oQOjuT8QtJDvtgEwUwMEmuiXRkt1ArhKeo4OpKxsApDgNAycNueD+GElAC+DJc3wFkRZ2KudPLGi/p9V3OOc+YUtYLmNNIRrbUyBKie/gpM+TJPW/0kK9IbIqAXX4WUF1GcM8z2r7EZ9McXRzh48fUcnC7gL4uiCI2IMdpotHOUYZc4ASzEdGaSKUWxzPf9prEaW2u3jnZox0opm54oqIhM2bDoNLOKTMNmRAHduv4igk0++rmikh9wwjyT0MiUS4KxVPhwV6el7N+uuQ6aARUqC1MGYV19L0D46rMbcrHZrAh8YkN/RAskwr07hbMfbJAyyaFYhQE3GImFx8N/C2HqBuT4Lbn41nL6vKtoreVBxicEGjcvkGWKWrhigYqkDbkbFhtuPMwyJAhbLkmQFJG4giz5ACMLJJrw3NIBz7Y15OCAQn05HdumiVRDFR7BDDC992LTK49HOHaDSW/oqFFwR+oZCFPFGdAQqANXys9RJMK6MRsGQwyYARYtw4UgxVWYlWHys1y4CCtkNBy9nlBulpe9UOKPKHjZgnbFps3fJCQYfT22wgM2zqaXyaOtXpqPO5F1iH0TdzK527g1Pd4q7kLYLlblSZjvtKcJjO3cJ07N1BonK66W5PQibpOuRHzSFmeUwMxivsoSZ8HOdO+j95nObiQjRuYc7mjUmQ69UTO6iGAfqCsXWYu/s8RViyjlXCC9q1VnwYXBJBxzibG+16So0pFzoGLZVXEtllDLPMZj8rq0munI31vy+mND1auQG+sNxwi8RNUPozQiYoLsxlSpAoybme+2ujHD4d9scEhe5V7qzN6tx05urKSCW6udCN5lwz2fvPcNt7TRxD6Nk2ATB/h6XTkPeXepdXcXoQ9gqx3cjsLGrhOWazxFolbYyGxPJTG4F8aiKKHWCmv6+hp8Qg2D1i9eWdZc/f5Xvf4IgVvYr9UYLVvV5YGuR31e9Hl9kFopqnSUIm0XW4NOQVonDct4utNRkDUbzCBhUM2S38HrhsJF3gJBdMV9dU0EaCkioxADRPtySu8dYDOv9WL+tmVlF+oP4eZxq5Pp+BBKx5z3CdxW7A0gde5SqK9hHXJyOAlxmas9y54nE+CpCCIMTB6JKES4IFycZh2LBgNL7xqtlbmaiUymyK03GYi92HHhsrMpXmY2S4uUW2aVji9HsmYrmxgOM9dw/zu90WEvZnI4ebkGxjbB5cDQDBuaa6l6JaKWq6Scfmhdq0ChwS+pkpVOrj1NSN2umNbHOz01n/uElUMH2FdgIuMRf16+fZxjeYjrSCF5KsY5caLMBM8Hx0xPXfyC3txZpJ7JCiFQaDDCP+0ThVS/8ARkepD741k8Gc9M1YpxfjBwYmrpw1puxbGuGaqvxwAS1XbuJZ5gPDJtBfNYCX5xguPQzOvz/eEi1jqGlSBPiUAIa2ltY/cLdpCxZFyP7kzvsXiNjbgsdThpCCCElaVjhe/iiKsyujLkG2KIqtp4ehun6+RHH8tjbDKqs9faQo6ii2nFumSMFY7RBpTMBhjMZRDXNKU3akYXj00Bk+qng3udjfg7OarN6Kt520Guy16GRpbBDK4Ys6Z6kce7TYYXLPDB6OKETw5dUL9eEW+2RZHGXdYaatnxovoZhTVCUu+INqFapm6HqAfJE8eehsvcRvTwdZ9fXPu2GpKw+bUrD2c+JTEHmT8N4gDWaHihrliLj25ER+qeEmOYKC6YGN8n2cPa8208OE7zqyJU7ICLiBwT3/aHecYLKyOHvXiWKIfmLl4P4V+KDsAGtxlvseGOc+wLUE8YXcrf3l7Ul0RlPYT398OMrVjRp0aaror+BQ408tKuOaLLDDRIR2SYmkHE4m22XByk8h3IbmVeCPcECbcq11KzhL4u4aF0vZC9tOUy2nD21r/nQ/IBYoWzxYLDMcLnhbpubTJqzY7oDCUZmeF6FRktj9uArOFKcrYd9WYQKezUZQ5CpRNECTnctCY72DjQKQdk3RSjZ4wZywknmDLFSC0TMCBFhssj8WKYIv27jgOLdNrKub8cVneAcUbiFbZYTpUW14or4210dIh5imW52o+woURNzfMEbBZmrDxwLF5pyzW9xInXjcWrbH5sZNFH4trGlqfQ1RSjXROnlcwSmpo2WFjCmQV8+zJ+Eo/fy+jQkCTsK1xZuL4rJqhlSoNksC2v3MlJ6R22uOpwQR7vREAI89yaImeAtbuGHwiqIjYLIG0okRTX5lxH4oJwV4OAcAYBG5fxRltcz2qQruKbbHFDKhRHnUQCCOrG3fHOPG6NQhCbZ6V42H4q/3fZ4qYAK4zDeG+yf9c8Uunf2ESE9BpYAESCE5gpjIYIM6R0RpbcHkKA6nBvzAkKojvzI72OINI6oaMNjs6ke1cGcbsHSVGR5Ax4PzroISc52tNZW4gEkRDwqmrPAFGoy6KAjkrMEBRNxncZJ2rI04fCYD37AbAhqDGXg4l6eDkGqsPPPCAIa2QpY5hgNgQ8QMmBCJ3zAUBQ7a/PGXtPMBvjpp8s0t3TzFAuGA40GW2l6bjX3wFP5NIXmncWl+298CkzdDUV74O/mySMxQds+JJEX9t5tE6vi/fD2BpgjKkI65Gkoj3nu7KgtgpQl31GqPztUgFLYaw+Fu+2ZVGJV7xMyiVCpV4MC9FO9BHMPfeGxlaXezs76EAUxErMLEeQZv5Wk3rIgbxAnEjq5THGPdLoF4k19ctXDKooTirQqBMOd6qKm1fuOWB4Wnfc7h0NsZBAnIkXlFhdcNjybG5qqb6+xxZX7ILTpk5UYhpXKu4etABaDyd51JrP4kE/ckc7Q/gZnD3pmSHaqxRhG4sKP3qvuHoQl3FehhUP4dCHnVF/HOCy/IL4kC2vVSg/yqGu206kHosP2vL6abSjDTaIXjqPYPEmQbUsblD9lBBX7ewH6ke9VQxYT/1G1ebiaIjcGtftZZZ42GSMVNLRaMdRaoNsmbgp/UUcbggiFRjywzwPRxQ0O+IbGZ7O+9cxJMzgkZXB7m55f84z1Vpu1eCQpd7bl5gGUz9Sb6IZigJ/r8IMtRQFDRt5F3XNi5UrhaDQw9IOuceO+rkC1jTcx+oRhS6Wt3HE5/JDF2oDON/pzv4RupArk0txq5cjTuZ3YnJ5/Brnl6gL7q8whWSGYKk9GFUcczTrEIsPY/dmtcT+SFbYJtRWPTQXORQnl8Mu+cmrLEpSwjJftK50Uaiv74vkT7TIlLRCJbVwTAVc0wcqOU0aFZ+PwivkswwKiTwhrkZcpwlmolpvOSFKiTt0fQtrOXVP/eUmnTwHwO80+C7u6VVCuNhQqf+l/BXUctKJH+lXVLLOlr5+Z2kfmmsxz3Up4eqMdNYXm8BD3AitCWsXEjM1xJBILfZiZtAKKtbQ+BeLYnT/ZArXA93XqE/D/R2YexzxWYYb5u0VjXkPsqpu+kiaWRJX8D2A9BrC/EUQXeXfB+D35PV393WmVV2NmD9PVPEoSUAF966OU+dKF5stXNOwhsoSLmb4947Uki2nlS7uMRKSlXWff7ILV/ZoQH01X88TntAfAl5TS3wSvaA4pRffq3I0p/FUU/9JiDMYb7eBi+FuvdXaUDdNZ7OpQ8+itJKuw6cQ5mZoZ7o3Z85EZaVSvWskq6uSNZCUTtSDJtNN0GD7U/hYfMbOrvmpRwjRVQvzcbIPhFKsj+Nx9LuobZ/A3pc8GuD6CUaGpwf0O+k1JnbN/K1lSk8mm+wHGdb07vsLx8aiCVy0Mvo5AH9oKpgf5mjUzPT9DW5L4cMQSpnJYYOSvHTh22aibj6BIRwfN3J1qoTkH5nRamQ1nU0UtmO+2FOo8bOcxdqt+Hepdhv+Xa7djn9XavwU52rtDvx7osaInJJbS5PxJ6st5OcJnYLOQjcDgKdJc6ZG7FmYNoorFnL5V6qr06s6/PfqhtvsoLymzm8TX1sh7rpKiH+vr1C5bqh66x3F40ZAZadtJvCwhr5HuAkKj+LhvMJ+hMt3Zh4JDWwp839U0HDUZ2IezVE9Bgl/8nnsXfjncZUqn368UypxmE8wF1lP9Nnzk3xO4MnmYvwp/FMUKJ/KP8yG8mnQZBRPD/SfY3vGhv4qNcwUxc2BWqBbOJlbibiNk7vdfIL5mSX1BeY7ShVK5llBW9nXnWoIz95SxXPaXjnUE35u0Or46rsUz/ManM/zcUbiDF9Qd0rq7wu90Gu21Z/CeFGpE4ZqXRx9GwmoxPGbu5Ryqx0mwqsA1mvo8h7NgXEDrrY6oea1jkQoLF5JstYADYfFPydUr+gPZJ2ru+v61neDPsjn64zCT9QtHYks19zyBtKtgC1+gcf8aTkbN3tcjAIlD5FwRsUEzj2zlOD4KhFZL6cDX0mGWFKiWE0oTuDyEZlejV0LXMcv1zSzk/nLXP6tPq2+p4O210xHfEZnggGdDR0K7woUkJFa6yu5WJrZVaHvuhwZ4KuRlyi1NP4azhLltVx1jbqOk0B5PUs9rhvUaBNp3IguSA7wYWSL8iaWhtXDnTavqpIvkD0iM+ZHLpjUozLLeLRZ58dg8+s0mqmpPrbCL5En28rjKtATAz++4vFlrpZy1E+oZH9n8Yluo12Di6AqPKnqqtzLk2GGWj+fAi1wffWN+6cm03kau4P/B/h0rbTP8JqBi1Grnr7BTPVmlmYFb0EkwjW/NdG125o6P387dhSWz6Tk1OUxKnfAoeS/yfYsX/3ptztRJGN4NmAOQzF7TpB4g+fCQqEf+nL6ebBT5AKT6vMpBfb1AgyBg3qhMfoXhYgvtNygPC3uswBLJYd/iA5QGeJv112ul97nKrxuQM1rVqmRrjHZqnFX6/C7/CqZHnwNKQ8NeVpZAZ1zcFPBMW3UWxx2Hb7jro5SjIZ+fwIQ+DdU/y1FXfEcTdxOobsax167tWQ/7pf5Cwf1UQ/1FzbVWVnvjhE2HW5JX8WWlG9ygcdmpL6syK1ol3gcDVRGrDFGXDrASfT4wcEuMyxqm/d3kaL212lPouIFuAA+323fhor8PzAGAACFVmtsFFUUPndmd/ugpfIoW8BiRQFF2FYjsSk7M/XRRQyiBX40MUtcsFS0rKbuFkTtk1Zwt0QwAcUoZVcEEURiQ+puEVhDMMXWttQoFaWKgWkFSVAEYkj8zh2aNv6h6fSce+453/nOYyYVQiGV0hLNvXvTRlc8sLxkSaBsTXl+ybwFC/Mqfc/ll/qDNI7Gk8ikyZRNNpsgUsgm7I+9tDy4qtQfIIdIriaiFLqNDilEgiQi3Uk2xf60r6w05/5hlzQW+JFC+o9jNUOs5kBFBk7lwPn+QGmF31ee85S//NWcR33+St8r5KBbw2wUTCCTkQQopNsfXDbHR5l1RDU54HRPA9Hbyr0SnhaVlgXLfRVEM4X0stUT9cOz3w6QOjPymlJPL59UV070BmxsTsKfZ+3ksOEXbKWLSnxVA2tVXuxxEkKppSMXRt4IR1WgWwMppY76fx95oziqeooeIqEiT2HZyBuV0XIoOSVFiP9xVaoD3XPU8b31vx2/ps5akd81b0LVv380qxmO+TayNzsoDeS5fBslUTJRuhhdjZll2EgSAwVORtWiRohalCmoXtA6QQ2CGgW9KWi9oA2CdgKkXdAJoXYI6oSHQlsV4RDA5Fan0KihZlnDQOweOY8GQWa6NZRJfM5WptAdNF0ADye2qPwHGyRoBt1Oo8XEWpwn0zSaRS7RAC+HbSeGGA35tdxYlq6wEjeX6Yo3cFQPuwoMJct7eljxBrINJexqtxSPM1tHgC6V3NjzHJVpjFBuArJCwuPs0JGc4N2h9xTlcliHHuwuthSZg+jasAJfyxmS6AKWLMvbokElcGnRbvrlDQXk6XFzUFcwZamoubFCXF3WlwaK8dzQ1WhoGXjbDI+zVo+ZyYbqcW6CId3I8u6VUh2IfCeVaGhQH4jYDGAoxkDkKuimGj1FP+hqsHuMETcPgvYYI2a+ZRk8Tk16gLQmQzzOVSh6UPc4D7lVoi7wKGjzOPdJqYZdm6VCVAecY3ORdjkoJ9xh1yKEaIxRCKVJ41oGIp9q6MLsYQUNsDoAiVc5GnLhLsT1uXBXgsiHYZihA3cxeF0CzGqMp1VTvYEmVF4Hwy4pQSUhlbCrFyFxTc3ynkP8FW1p4BIozeQuXsPNM4hniSyseJyf4HAJxiNsOIct+BFPr87h4JGA8jdS75ISfW6SSjRUidDzuho3F4FpH+ILcZHgEBfS7YGHVQu1YtoxcxvITW1Dj4NSiYYegXvArfYUZbABPe4H9T2aGjMjmjcggP4BDAW6Euyexj3mVDOBmIRnMW47uLev4xDSGJ0l0A9IZSDyNfIf1NC277Ewv2rB7jPAmKCjS4Og68ZhEJ4vWoawayO8zqDKHZylF7EtYJeAx2Fei/2orh1h76Kwdh0MG5H/BAa+Eh7H2KMI7kcQxlNr1eVEsTC8wUlAx05HQ4oxQpluKNw4qeTG8hH5C786mlSwZksAfB6HSsiL3NMwlL9AcLuUmP5RqYRdp2E8y3O5Ck4nYVDlUoNkKt5a7noq77Bl4FbGTH4PftKQ5R/UVYIm9yHTZ24szFe4ndrG7WRJrXYScbMCvSnmyWlSiYbGItPPc0Gqk2PdA5H3MQFsIG6xx11YuGItGpqiS0M0tBDoG7Usb7mODC1Y2AamjpE0cR0T0bktMBjw2sbjWIHcH+LQiNcX4yBqBsuP0Oz98PyYm30YVe4Gh+Mw7OXmdML9czydmE+Mv1OduGmzbvhVt0LO6Vi2A4i7gnTvSAmwlVKJmx4Ysc5Ed8O1DyGZMLbrmM56FHTK4h43L8P9BooiA2B3gVkSvjALkTvVUMOuteCcjvFulhLbt10qHucBAI7ib1AChHggJ8HQzh5n4UHA+BPAF7ll1+FxCp2+bq2SpeArwcVAWkpP0VYNW/atVED6G+CXoqWH0LyxvPZfwLfGnRuLoJpYAercBMjitqFp4r8GqmEX/pC8JxV+Z4l2a+haG5QuvITH0JOkoTbOQJGdQHtiqMFhbt8J0N6AmwQMjTzPL8GkHjXtg6zl79YOgNXgdgs83+ARhOC+FoZ16N4aNpThEJDI0dALjDEbrj7kngyMJ3knUjGLAnik4pk0ZOjDKt0Hz338IVjAWbB9VlFE/wE=(/figma)--&gt;&quot;&gt;&lt;/span&gt;&lt;span style=&quot;&quot;&gt;4b5a&lt;/span&gt;" style="ellipse;whiteSpace=wrap;html=1;aspect=fixed;" vertex="1" parent="1">
                    <mxGeometry x="590" y="270" width="60" height="60" as="geometry"/>
                </mxCell>
                <mxCell id="34" value="" style="edgeStyle=none;html=1;" edge="1" parent="1" source="31" target="33">
                    <mxGeometry relative="1" as="geometry"/>
                </mxCell>
                <mxCell id="31" value="&lt;span data-metadata=&quot;&lt;!--(figmeta)eyJmaWxlS2V5IjoicjJjWFR0Z3hsOFhHTE4wdmFkOGVudSIsInBhc3RlSUQiOjIwNDcwMjczMDQsImRhdGFUeXBlIjoic2NlbmUifQo=(/figmeta)--&gt;&quot;&gt;&lt;/span&gt;&lt;span data-buffer=&quot;&lt;!--(figma)ZmlnLWtpd2kZAAAAdzcAALV9eZwsSV1nRGZVH6/fNffBcN+nczEMN1lVWV35uq7JzOqeNztSU92V3V286qqisqrf9HghIiIiIiIiIiIiIioiIiIiIiIiIuKIiIosIrqu67q7Luu6ruvu9xsReVS/N+z+s3yYF7/4xS9/cfyO+MUvsrK/JhtRHPf2ovBoEglx9lzLa3aD0PFDgf81WxW3W645zXU3QFV2AtfP1S1F7TYrgO3AW286dUCFIDxfdwEUFdANXPJaUrSKczfY8Npd3623HD653GyFXvV8N6i1OvVKt9Ne950Kn18xYLfSarK+mtR9t+q7QQ2oE0HZbbpdoNu17l0d1z8P5Foe6bvtOpEnK161ivJUue65zbBb8tF72Qk4ttO5sZ1rdXzMw+XIzjj3D2JM827Agkyks7OD5QLKd51Kt9VUrIWqbPleyFHK5rgftfd7cQSyMppCxQtEjdamAuXWYNQfjPb8+ZA0zVbzHtdvoUG0KqqdHLQ8HoVGFyhRaZU7DYwboCw7zU0nAGSt+61OG4Bd9Z0G6QqlVqvuOs1uq+36Tui1mkAWN91y2PIBLXGOKJfrnmK74tbrXjsguOqDCIJVkjvhu+uduuN32636+XXFZA1dNStuBQua0Z0M3bs5pFNB3SsTcTo43yi1qAVnvCY6ayrs2SD0yhtcqiuCmtN2u1teWOuaZ68st5pN8FQDvKpMjSvVW+UN1K7e8irrSnuuAa8GZ3ptw614DoDrat56rY7/2Hx9AAZ6sjcYsIvF9usOO71xywlqXjdEz6g9bNPxPaekxn9TaICHK6Bbxnqg9oiExOjuI4P93iTaGsz2w+j+mZbMyeCujuO7aBV4yCyixNgaLWUPVggWXCYoNKp2Wq20tjjOwuXWs9h2fKdeh2VAeRtd30xvaRFdd6vELrvN9W7Fwcgd1fkK67CBDiurrFQ9xfWEglv1isslXisNo1G/ARXDcredIOiGNYxlneYkmi2/oYxYVhx/w+VArUanHnraiGzqDdSiBBtBtVBu1VtpraikoZ5ZCqD4ClKahicqLUgS9RX9SFJdzaR0ImhVw67igdpazfEraU0Zr+u7Wp1OuXeX650AQkbldE3N90zghJ1U48+qXgBcUe80vGYr8EJ2cWW7NxgZ+a0ErbpHQQmsacWDaaE3DhUYmaJYqvWAqQEkCrKiaQBnpzgQGbEXvIajZlaEuZ/zACxtehWX1r3sHcDPBju9YaRXH47Sd8OyWviqx3lKSEz1FmrJ2e7ubrRjRlzwYCc+3KQDFUKjqPitdlaV1RasFpJsVmBAHQ7QKjnljUWUTQ0uK+e01IJ+efB1QItOGw4Dpay3thSAIYR6DAE0ot4tO226nEJWg0r5ZeXQimRaiXbG095sMB7hmcRtoWfIF+sKWGK63oabaZtVj3r0g+F0cIBa8gx4d2uukbxszg+2o2lnNJjF4Os7nKpoe3e79QCAxKjh7ElplcejeDbNJLwMyQMv2K6mJBsOPbmFcZhlt4MyXD2AQhUcK139RNFUFPVSMJuOL0TOcLA3wgMpMwH/BsECkK1OaEBLE5d7E2hkMh9MV6mGTD2G5fh+a0vpGydh66p7V8erY7eAqQNZMDpFI9a7URHLB+WDC0lRS3knuJy5ue4tqK/k6reivpqr34b6iVz9dtTXcvVnon4yV78D9VNlzy/nez+tZ3tuPODKNLD9+cCKkrvpcgYymbhVGo+HUW/UmkSJghQ6TW2pWEY8Rp8NWAadUug7CrbuVgas9FUtfm08HTwwHs16QzxuXGBOttBltQrWuQ52m6qnRpg9vRlNZwOYHnGtNppyj5ZaYdhqALIa43kclefTeDzF+lTcqgPfhwZR9lsBLM3zAUv3vEvTg+qhZiEaUl21HUwFvrAMFUe90Fb+r4ii7NUBLTXoUfnIMkSMQArQSio/VV3dhLGPp43BdMoBpFakpI5SKgAeCJ4RPj2kCluVXryv/YlVxj4ElMgUXCqfo+2h0G6uAyXOtV2WMthkYbUrDIts9/7JeDo7bkM2Nme4dIRsxlBEgsDWrPqXCSI1WaveOxrPZ+vTQV8zKWizyq14NkBLW5mdPdPuzWbRdIQmUHltZSHw0cpXSyXP+WzsR/HgAbBOl0gNR61MOg6ZQhYfC6fz0Y5RP6viBdzfyVMgfvXUyshgdjSMgsjMHaLzg5bxj6HrUENkGdqldQUhKDbbZpkbix26jXbLd1T4WUjYYDFnUbqSl+w3AGWyW8Bx9HYuaDGmc6rBQd+D1VUjkNgoEUUpWFMrvUZ3l6yuXlKrBCWjiwFsqwfK4zkGNDXPLT3Uc1h2Ixzb6YTcuQo5VkXF6tw8ng12j9D0kFzaTtntwhXoGFmPINBCU/4VSMTEgXeP2w1bcCpqPRYQ0DHI1Gu0EVyixhbQ6Mm3x/GAssT2AZQZp3BKWOWODsMV2daUrhhbC8Jzpw20MKWEcEawNrDQ8llJVh1W7PIE0OXhB3XZ8dWal7CXorTL9ZYKtwqIDbtJoIh6sdNGMOZ2VYDa9TvN0FMh+RIMpOIxMFGyW/Yog16u59MIVmG5irtwqui9y0exq6AuGy0curpqkS0N6wYbT9UYPQEu6AbEASQr6poKO5dA1cai0ohwzlIzXKn4zjrKVbRtuOeTx06gutnSYfwaYD2PmpLLybQOY0H9VDjtjbQA9BxuxG6IKDbswn1jX+RsQSZgZhDIpgtQVnFyQ2nhqIAQv+q30kDWzqESN17I4bTDLuYwqcdeaneCmsYZZssZJuG1kqE0q9UMkXI6wdOZxhlOaxkm4XQyQ2lOpzJEyum0HijEBKKE2ZkFZMLv7AJWs7xiAZdyvVL1ZLCG6VV5XMLz6jxSs7wmj0o5Xgvf45W7bEPtOgR2OP46TbgkZUDXI4ZvIdTLMDe4vRj2piV+GifmcqfkldEgyDqpSMTbuapFv6HDZTxBI0qbCqRbwBT1swu4Je1y0/py0Pa1v15Zh9PBfpgiVg1pijihIWUCsFat/2uLyHCLruPkMWQN5xegTwU70/FwWBlMta/AoI0VfR3vjBVW3lM/C0czo71HfXikWYR29+42NirtAcvgwIhH1eR6B1uEtGLkGNAZ4GUhh2OELQq0yuMh4gJZmIpVIffwj7WNf+we/ino0AEP34+aPMI/lg8UqDPERfxj7+OfguIUzMYTPLBDWLxYyInxqSCwGr3ZdHC/kEsHN9+Mujy4+RYU1sHNt6KwD24hsnBwC5HFg1uIXGr3ptjtvFE/wnPW3nzQF/fmmK4JS8fyaDzsDecRnpFzFdffJKwqVqnZO4iEtHd7B4PhEehlzI0UgAUms3hnOpjMULNJu9mbDnp4ZH4QTQc71cHefIqlxdZpzq8Cagd5ApA4+KpEFGDVzeKjwaS3A6VeeLaN6K4FeRqXLXHENke+yzCoUricYJ4DXCXSJgpGsAN1VvLNP13uTWIoc/YI7E+d/SSKblKx2i7OYRy6DUQ3rTF+RvKKYBEoTHYd4FKOfztZ9/ywEF/jX4TZCG0AqPEEapEhnJTKg04rU5OI2JWDr0a9mVrgv5JtHM/QJMq3thWJGYVVbgfE2xwNSjVAlEWT2loKvCbjzOWWX2miXHGqPttXK03ljE40Ow0OaQ3RMNM7J7EjckqnKro8zTAZ5RmcJlmedRwVmV9R1uWVOJqwvCrQ9av9TZWUuIaGifLaYEslDK8rB1ssr4dwiL+hXFZ5pRsDHfI8rOaplOBNJtp4eMtvcnyP4KKgfCT2N4ryUZVQHUAfXa07nMdjGus+N/DHBtA1lI9DqM/+H19FZIryCTVdPrGm+31SqOtPvkuXT2nr8qk8vqB8Wr1aYv3prbYqn+GHqvyGtn7+5vZGk+t0Sx3uA+WtKDnO2/ywzvrtKFl/plPyN1He4ZQ2WX8WSo77zk3N59mbGBDK55TqW5TPc1GS7nkoSfd8Z6PGebygfE4dy15YripDeFG5repOueOTroStnvUynBvLSlXzd6vIMKCsorwV5TrK21DW0C3781CS/7mang96W+d46rXWOeoNwksVgTQ9BBIoW+faz7oTZftc+07yuetc+9k3o/TPtW++HWVQP9fgcyFSiKTvYFejXDYZvqDcQslx3N3YaBB/vllXgdc9zc5GiPLfYAPguO5FGaD8xk0sOMoXt4OQ+C5K4u/zN3zWe367xnLb75Qo950A4SrKfqjHEYVNdXDYhZgov71N5KlQ7m/q9sGmnvdLNjeUvlzY9EMf5RDlrSgPggCeV4gRStbHKG9DOUF5O8qXonwmyinKO1DGKJ+FcoaS6zRH+WyUh0EAny3ERZTkdz9K8jtCSX4PoCS/b0JJft+Mkvy+BSX5fStK8vs2lOT3MhkEt5Lht8vyphrhywmQ5XcQIM9XECDT7yRArq8kQLbfRYB8X0WAjL+bADm/GoAa6vcQIOfXECDn7yVAzq8lQM7fR4CcX0eAnL+fADm/ngA5/wABcn4DADXmHyRAzm8kQM4/RICc30SAnH+YADm/mQA5/wgBcn4LAXL+UQLk/FYAt5HzjxEg57cRIOcfJ0DObydAzj9BgJzfQYCcf5IAOb+TADn/FAFyfheA28n5pwmQ87sJkPPPECDnnyVAzj9HgJzfQ4Ccf54AOb+XADn/AgFyfh+AZ5LzLxIg5/cTIOdfIkDOHyBAzr9MgJw/SICcf4UAOX+IADn/KgFy/jCAO8j51wiQ80cIkPOvEyDnjxIg598gQM4fI0DOv0mAnD9OgJx/iwA5fwLAs8j5twmQ8ycJkPPvECDnTxEg598lQM6fJkDOv0eAnD9DgJx/nwA5fxbAneT8BwTI+UEC5PyHBMj5cwTI+Y8IkPPnCZDzHxMg5y8QIOc/IUDOfwpAuag/I0DOXyRAzn9OgJy/RICc/y0Bcv4yAXL+CwLk/BUC5PyXBMj5q/J40gah1QzbtbhdyCTEshhTNnqTCYMcae1OxwcMy2Zj/GuVhuNtIeX20SyKhS11tkhYNm6v9lkfMSJD/NXvzXqKdlnYm4N+NBaWldDEt3WmQxJVB0OcbMuMJp3+S5AgEHJlxkEhzov3e/3xxRigtT/Y20cGYh9xHyLJfjTrDYaAChHmEjPIQER5iAxFhDQQ4KVZdKDyhrpp+XCwjbPnDuEVlc7X3ZpbTGGd+P/b5Q4ipmkPc1sVq9tT8hyhZ9ROqMEI6xolgLNC7nAhEFZbY0aYMwbg9uEgHmwj2pKigMLcwpwWxRiReCz6cgm8R/HueHogdsXyQEnj5VKsKCjcR/g84tCBWu2NgMShwmMTMWc1BiEfIlKIbVlcgXr+wuFKcWI6xhkEJBjMWswGACd31QqWOV4juFdKcWrC+VRVE7y0OB0djF8yKINPG/lerOSyPHOoVOEVUlyJ3OzeYIRzCnvcGvRn++j/qgVsLeJqAX31DntCmCoetMU1DEEbkEgFKias4oXoSAyF3AW2PhglD0GGxFQGexFGZ+OMgJoOXO8XBVa2NGERyXvUwHyg52nZPdzhhr09dCwJNrk20NbEPlSKWHd+dme/x2A+msagkGlNdeRVOGUrJtw6jKbIVEZhD1IUr7CkPVTpS5Xeug+yxf3KEKOPseXI4t7waLIfY6+RS/30jiTGTiOXt3G4u/DS+Zjm92Ypz2o2mxgASDDilV1MJl2d10i5utsbDreR2KqiIRZDeWIf6jZFZxdK4/vB5fVSrqEG6EuWPDlLc544e07N2awoThl81E/X9/RwvMf8uCIJx+Vk7q3d3TiawX+IVXmmlutLWIVt5BP7sYAHmWsPYM589n5Ch5C2iOyhWQ5hLcPe9KnkPiEvKjWBaNl2HoBNIB1RgTUn3sGZErXl3cE0nqXDwtoUYT/5+tI611lYSzvjg4MeBlbSDis7gd4ntPgwKvixXaygEhi6upR5r39oTH6pkgoNXm+KMzWmDLeXcqIXNVKEuh2ai4YS9Bsro9CN3hRLZhYrPwZ9aFfC5ZOsNKPZxTHIzeBH8AW9IYbZV2NNpnCpBtLNI3WOBZAUQyzulTI4OtgeDw37WFXQL7y/hhMmMRlYOIrT8QQYe1TFOsB5QSQJW2iA2kEsS4lYToBD2INjIzzCejSiu8QKmb7Gec5yHkdVyHKdWxTmcTRSB26JbWWwu9saDY98+BbYo6K2KzhUH9KvHcxnnJ3yZpqvtcgXFWMnlhNDS/1oFzT0ILDepBFqCd2foffxfOL1QcDl4RR6yTPvkqTBqnoP3awWzHvIduVwMFgs7/+FIohmD00UQAW5QuwMuAgJFeigtbo7GEYbel6xagQLbN9mjrUedmLkRciyDbkYWcUIOWUh2duLwwF2sekRBRqOg/k28ynbICNCfKuk2UzGI1ib7mh5Ptod8iqGKfY8x5VB3Emaoj7EuKpHXU6eb/RiGJGWmL2TYDVXOZlvDwfxPpixX442HIdR76CejY6dWMc7sT3EOLTIFiZNFQhmnHWmamTV2g0uYqRQHkNMDcVGvDCERSW6PN/NW/+fOMPue8MgJ5DkEc1aX94La0WFBFdzJNj4VEigvCqs2Z7iBnzO+KGQxQZFFGlssBRPplGvD4rleH98EWuNqKYUYQX7ND2Qr4QMGpSL80a7DM1Uf6GQ/bm2SjxstbH1j9lQiQ4HO8mVYJLM5GlXXVvKMvIPKiNjKRzym8yDoQ7D5IN+EkHA9M3D5fJWV0W48lgn2CNYQbAPvTXuC7PB1L0+5DHYHcDZQnHxlOb5MQRGLawh9sG28dohGYiV9H5JIKWd5L8l4bTFYi3JgttIwmIeCWXBVFPiokEk9LidbXbUSX/ZDKCEXXYPTmMEmUOf4RExGvSSzpr3QEgp67sbZtfNSwDyEgZ6DumTyGR4lW7yisql5A4UDVsRtcyytlO04vIpLGWGKicK1ewhflVrqKhEselsIpGmcoUCCX7zjo0MtlT2zmLJF94UgW0y/eoOreAiKJ7OAsTCMNIYziee7+4iFQzjHTCOUx3APhAJJ6eObxZ2fLhHi1fRFYSIKk4d1M8Hoc+oteYz7ucMttAOZ4M1RQRD74/6Miiq4+kOrI9vFMCDXIiBXsHO4WzH4+F8Fpn9E+7GDHBz3fQgLK/abbquyag79S3nfABA1lU0xTtlzGLGYd8Bf4sYUFjwnam52aP5QQBDxeLFAuGKMU6cCWKNDai6CAT25nBHU1Nb3jFrvzKhl8KF9Z1idR0eGEJTMSc6kSmrxN3bbTgTEFyE+WJ51RuAKwKOYSFk0Xs8XApChIBgyMEzWawViG9goEBm2W9tEGOZd+lst1rVr1IUkIdr+YSK5u58Ca4Dblrxy+0tui/tGpNN02woyXZEAogEk6SIMfqYGPNIDFkktoq6lW1V5v4DvgrKiaUCQukZZYMp4Aq4u1VzYT81r17ptqpd3YxUNi7U9OuMmCFs67xp4YOWM91JR4GQFovojPawijjxwWnmqtYAF7xTP/GvtvbTdUSleHY+HWCEsj+IJ8PekdLaNcYjqqqUFONvD+c4vpjeJqqClcRjiFVwdsADF/RE26rNj4Y9hNX7+oHCRCH1Awc4I8J0AMJslKgB2oO4Eg0jROFQwkJjPpwN2Hs0rQ6iYX9TiwIC2oHmY+2hDDJ/MYTbIEyQcVqjx6MrJJzoh7kOp3tEYRkfaGuXB6iQeL1iysMd9Sc812GmkQG5vaAnxCiTRL734QZId/Z3sJv0YQCw22GbT2HAOXJtbngMJJqWixsAYjuumbxKBTd4uJaEM1LqioxvgtJ3zclNvX60MdCDQzcxkOTyD3CJmaGl1JA03AkUFd249VJrS7sH2IxjZi9N0NEYH0Zm5xwP+xtKpghwofDVVJmtHG1tgPP69MhDmgCPxOM5HJdarD4XS9fLx4KOrUF/L4KhYOgQpYW4PqF3+wMczNi7PRtAUWa9g4kXj++8A1lVjAMucApCsBhiRCSO+g6P0TZhLIpyDVbF5fvXmJTYwpW9W2o5PqcrYbcXNInt1Ns1ppp5WwsrcwFJ9XqkeUtXhfI4BI2gqNbnE4+lThP6/PzMyX4vjsSSsBSgkXdM4COSaz8khHJVTfCsGbs/IVQooFF3jnrK4IosNerZg7itQ0MGyTCI90iEUQhRJ0rGa+Ij1jCTgFqvf5LiZXmkEYv4Zyl/2Fjmr2vvBi1eFrcYUPcXDeJgvDszBhiwCZ2+VyJBMB51Jn2cGMxAfgE46MEwoflR1PU2lWB+XMaEQswP2T7kd1W1sjD8X098K+CfkZjlZRzrlyRSubmmzEt/USK3e8zTfhQObh9nJeZo9OAwzXsRlxp0boyq4e1JA80oQ/9UgjbbatrwrrRBhbFZw08nDdxZM/S7E3RuPNjT9TDQ/isyVsg+kCTBXMWnjXyI04RJy+/lWjhg4j6Tw+lBEfv7OSxHRNxnc2FTuwebi3GtIH9DXnaEpZQUo/yYki6kvw7MBML9Cww7qSK8RWJjdrRJ/9+a9iFR8aeW/PtEaGqHyaT2fikeADeFXVTubwKUPpA/XH1zvmET/LWsv1WjU6eSU5oPSGSSYkW/qHGvk/PkBAXu+U7egfQaXFTnIZq/mhzSsEy00s8ndSXmP2awokexoWzsC1ix8q2Y1J8kdFG6ea3BHnQSsLz40L9kXLiolWg3Fh+25Kux2eXQWMpYfMCS32OZCXLCb5PipVlVWzNFwaRBkOJ5APsWOAUex3DW0A1qAt+32LWDHXVvdIBaLD5kydfggIJcrDONSvNtCIt78y+k57qAh0Pcgch/kgsonBc/JOU/K1+pIry3SjFOKnqIk+SBenQYDUVR/IZKaZpo8poE1sQevGhvb9qb7NORYrdbFdceQ2nCcyk2eY9hVVx3HKdJN2YwIwdp8PybtE8Sj7oMWj8Qpi2bUHrmtMRTxKMvQWriDvFl7AriWvGYBNZNm6zmkmjXi8cuYjTZ1hAbtsn+vUQ8Kavp5nu5Qk3sF0gPPzmBddM3KnYU+uukeEpS0W0vJqnKvYxwT3JwMB7VeVCa4xQKyX7bQiu25vtn8x5ixIziZbCVlKQygIFFHDK2nDzVt+ep9D7EpcmTvDxPAt/BvDjQ35FHB9jiYT33RNMxml6Rb2qal030iy4jXKle2mjELSbI31/aijzaDocuprh9zTWX+SLKDCn+HC7dZg5xL4sdEs4mYf4S3FYqytTEPwWKHuaj3+O/UXwMV0MjmPzeXcx9YiJ/kCDqWBnU/9DiQncQ2NTVCS1htYwru9l4D+F7vzVqhealk1g8IH8vxSNhmG/4jExzzeKfLFyf0ZDJ658t8TllYGpGRMW4NZavUF2XBv1B1ukPKVyoU+JEPU+8CSOOa72+H9ZDtGHM78gdGJcMqDXsOcgCXVB+YllDGv3c7NpnxYC64Xl4Ms3urKYV3fj8GD4A8fIaS416IQ7Z6Z0QMvqmohtf1IfGwMlAQCNk6E/lqprAOUAAiLGdZalRFYJe3NIncrRduYDQRFXiVETzckv8Wm47bem5YFpXXYLUj67DrvMnL9z3ZHVNUovVZm8ubVbFjfm6JmlqlHI14lHi4bmqJrhLY6C+4jHiEWlFN/q6rn6a8DjxyKymm4NdRABZYPCErKrb79EPaBQpnphHaJp/E6kQBPuWlE81sG7pZgtTNkmCW4+hNOEu+12PxgfRDHHrF6S8LY/QNHu65wRJqtsXUZpunzcTMDOo5XhSj3bhz7JVxxJ/v8wT+FzoYxSvzyhK49lsfHAZLj9wnOZyjN6QEWUtA25bEyg7DBQ694PHacIx9me0ZiRvlNyKEZPCJmN4Z8way68s7Yd4LHK2j2WGXm5tjxkJYH41tesD92MGp0ebot9m0Jxiivxxg1RzSrFvN1gIF+E0FJ0m806DRFdaaTHtnzI43VWKfpdBs6sU+dMGqbpKse822EDJV6PjxUX5GWsfe4veptM1mYlHiJsuh9eq0Y75KjydjCgJuGBT0Y0vUXXOCw4aY7iQr2uSoUK1e306eZAc5OuaBB0CVYYk4HqUkYqquF8hz831TwVq4kjVdWtFfFaqai0dtmGIDv5AN8FFqwgja3hQN+AwjRjrnPhDXdVhAuqf0/U29iFs0MHgAT51TvzVAlr17+HsHmNIf62b8gPXTRXx70zT/mDYN4+uT8d8hfZvdIsZlhIhsP9+AauVAOi/1WjFRvEPouEuFufvND7ZafGIqIvvxVkGSB8h4jSO7qHo74fQv0+j1Y8ZmuI3dc2M2UgKPX3cOhiMMGkcQm3xW0jU3J9UPmFBHcwVAQ/5Kg7+HpqXztYHzKSlDa/JGkroZy/zWnBk3yszVuoU/hEpfjiHC/EUrh7enENVsluIH5FRL32FfFO8JUfVxoYeTQ+jQCUNMelfQpyuUjloVPRtnHUyFH+VsSZ+ORuruXL4uER8DtVPMvYhmoQvfjXXVYg0y3hOmX04T9nooYL/lIf5NYlK0pKbwUeYlkDWUdWxZ0JQwx5T2B/NdRDsj+fDfgCVmTnqpQy6jN/PhuplrGPxN5b8StakRIEVUpki8Q+W+B9SJxIZ0kJd5adNfSHb+DdS/lmyNjxJg4f4e4nMWIpzcboF5r9mmDpmqg7B4h+l+FqGV09jI8Wu+t8yLJ7XuH/McGWYLYSlhhqL/yzl/8raGDalubqvSfG/JY6wx35DfVL8F43tQPLGiFfFf8cKq8PcZW6A3ynFvz508yaMBksKkxMPWiOo87F76XdIDHIHeKTZdy7UsfnMmZT9nCW+wxoigoQKHg6ii4r2ZbZ4o6UGZwJDhJtSvDlJOpYxdTjkON0lfgTxYT8at6EM2zAa8UpL/Czt9GCi2P2rJX7OuqhygLz/xkmVSQXxWkt8fw5d1r88XBavN8iKnipua2fTKPlh4mss8QOmvdzbwXnBAcMYa45TtXiDafFGk/ksTb1/yhI/ahq4zyLRDNt5q8HUxodwI0oTXm2Jn8DV65bCB3C+F7jAmN5PGtpGNOv1OaFPW5iixrmHXAnxSUt+l8G0sW/Ddx81otFcu9MHLfndlpKWP76Y+LxYvMUS79do+Jf5wWih5Zd0Cx7QuhFj10Y2QCE1+Rb3AYX+ZSTDYFM4U7mj+UGV+oejxuct8T+1HaOhgmEnDV+wxLcj1QAHisU+oQC9j72gp35cOIJGYdans5puLlG22iG6I46DruLMJUhNXI5URi1RFXPVdcWlWE3uxjA8D+YzVa9gwBKuX8RosvrBAPOpD1CA5AYUpqabGzNaF5zLBTgREDwsX9ckrW2owMLPcZ8gHnccp0nvhmZAC/IhBUKNx1+K1eTncc7rI6Wpfr+K/sQzxNOOoTThfXoRApwsgYsRC8inL6I0HWwE2QYlhJh72XPEMxYxmmwbVgeHzuxfjCBAfkOuril29Ms11AHsOuLmrKrb+7t0Ig2ceXDGVzKEqOJLkJoYtqj6HlchAyl4FE2qmuBQz6WEVdd6kTwP6otMC8GZfF7KV0usnNJNagHaXitjtftlPze6W/wYPBbj4+BgPJ7h1p9CfZuhw2k4xq3HffCLuseQixPjapQAGP68IYSgIKcdlenGmop7xPvANsVh9GDyixLXvEgyMlKZRqPKgB6N9/PvN1xSd/JliXRXz1zEfUWK30x8sk6zEV1XEtg0HrmIbXmEZ5EOQVU5/89I8VsqiTY8dtf/CYn/mwZucjMwTggwyt9O2rLV9biKmAkJPinx/0sonOxG/dNS/I4igHKou517xR+ptehhP5wG8wnX0ST8GYU72PiUAOj/v6iDtjJ4okusG+VxTvx5xiA2HB6CwZfkhegIeZK9PazsP1pYycMxohaXLrS9P0XODOv9l5IjpUfHUX6/FO2Op4hukIbhBO+V/8Gke+vYsmLxVSn/o5xB3EyucOXFFy3xnyAQDHS/hWQw7BQDxS45hl9EjgkwBvKd2PHiWRY8vsqKDrajvmLwLxY2JmSM9htRf6BfPfyYLV5nQSkgZ0oZwzOahB3sB614cDAZIsZPXo5p90bRkNN9i7U/O1AZwi/a4j0WUzE+/Iz4ki1+3urtYJIqkVLvbSMluibeax2SBBjV6YO2eF+KKcPXzA8wHwZqE+yQ4hfTNp5mSkcBtie0vMlCJjlpIQ6N8Aq2/GAei0j3fVL8SoryIxwmocFaBW2kgpMWDkUl/GGztvhVCyHDqN9LNJI9vsMSv23Qyf5I9Lst7IkHA2RiSRhguXA6/rItfgc7bO7uCcv0KQsLjS0b4fS/SvG72JkQbGMT3WUC/q9t8UeWFicWXUne64v3SOxum1DhLOSw7B784gRVsJQHYNmrj/kLP1za4pjMjuwGsY42FbHa1m+FiLbTCXgDiAvjdX5ggPhugrQa+gfVdqdpoIIhY7WbYovqq07Vlr+lrx6XVL3klDcMYlkh1M30CnZuxAm5yMNawmRx0htgT2TCBYZG48kQ+deoe1N1T6QbIUzMrABckHtEY4uDuKUf0/Ul3W/FeKuFsAo3uVRHRPW8LYRFKxsHaOWu5ilXS8JYpwPow+ssKRcbXbQcgRWsHPqcvSiwmVMmkOV4vAE8jrW6aAITmyGsehcAgwCrjIaWkeqnpnijJezNBYy4vuEFgad+GCjKLZ/fjvGditfhaxSSXxRa9/mBLP5QX1NZGdJrVlz1hQIb9+WtDbe7lXxLoYCL+vJG7qmiRrSdCj+jkLxwxS9N5bD6TYTlRWTyFsLKIjp9TWF10wu8Up3KdYIvuKiPHaGytoVbXP5Y72T6hYdT6VeU2JUaRPf4nE8v0qjeLyE6kxHpcVye19lLyC7P7opSy68AwQ7TJbzSIM2TKf4qg1c9ptirDVZ3kKKvUZ8eaIZd/ljV9UPPZX/X6qUstzp8zy0npesS5aA7TH1lpoZvzqlhnsRFO3Qx1TZgYR9wnalCkhqoe4UVsopwvayC87yHzPp5K/p5SDoXROxs0Ae77K0T2M/iI9zDQJ5j+/ZL2BoaFwQZyxhIOBDLUc66bToAWY7VO8HqknYXjRmbiWngyDSph1OO2jqEZT4bIZKPmBlm+Z0h6+xn085y7S4as86IxN6Z9JTQwWPyXIIhyBk7fhcocFyAd2smArFnSHTgAIFt5b2WKBziNkZV3meJ4sE8Huyo2vstsaRZhym5JWeE69FoD4k2eB9NsJlwsBC2zLAlw0VmrY2UJVzpeLSHMWBwMQY1C8GtEYPUwh1cdveK+11hFUcYr3ZZYNWPdvEclOmB8cH2IKqanzs09VTtnfzjzfTBD2J6+bepiuXL04lC5lJE3qVIviPpexV4vW6gPmHXxTAgTa9Zc30v7PKVu27An5HrBnuhh+wSGXNPpgALoff/CASzQFzhrFe0cEd6Xji9QqF6w83kCRs7UnYLtyYKuNPNHvf4bFGJ/aOQXn7my5Mp3z9AlKZ4xbiNEysL3Ss8dhee+DQMY2YAqSu4QlWv/ugalGjh4ZB98m1a9WNctYQoZPIuK5YLDqhZdrt8wRSIxafbx8YGPYEZjPZMdU3KgYkg+ba1wX7ckpaXQy8yAY8Zx/QJSzC0xlJ9HeKQlJBGq9FuNfX+JjBeRDH8SBrHK3WAoOJxbG36SyrmAylCveiLUnLaXbcCtdCvqFlOCLdbcyvQEJDwgzBBV38mk83YQztwyuypk8cXdGeLqRphmy/UiNDvNMtO6AKU6ht85qUt8y5Z5ggW3k3U8CaOG9AchTJJmaZWNXtL1SgOnOLTFI1emmWnbN72FoHLaEB/lTGTL797ZZbDVshu4NaxFapWExcCKmKoXCkTb+U7Q/obZ9vxlEcTqLaFuE4BGPoMGolYCqCZYv45DhJmMzEoM5v8MwNQqGl8BvYz2FE8C5o7MgyWLMaqa1wiKxxaYTmhvleGDSzjBm0XSFgLtr+FDKE4G55vu0HZ99Rv20W5TQFJ85Nvqxxw67XPOZtOSlOohQ2aSPFcoNZzScVVdxG13D4f1hRyZZ3B8Gqg0CeCLU+FTmsbLb6fB+ik3wmIOVVy1McLTiMw5+eJlNGd8RifInng5jJecGR1qpZMGivQkKQRXh2F8oQOjuT8QtJDvtgEwUwMEmuiXRkt1ArhKeo4OpKxsApDgNAycNueD+GElAC+DJc3wFkRZ2KudPLGi/p9V3OOc+YUtYLmNNIRrbUyBKie/gpM+TJPW/0kK9IbIqAXX4WUF1GcM8z2r7EZ9McXRzh48fUcnC7gL4uiCI2IMdpotHOUYZc4ASzEdGaSKUWxzPf9prEaW2u3jnZox0opm54oqIhM2bDoNLOKTMNmRAHduv4igk0++rmikh9wwjyT0MiUS4KxVPhwV6el7N+uuQ6aARUqC1MGYV19L0D46rMbcrHZrAh8YkN/RAskwr07hbMfbJAyyaFYhQE3GImFx8N/C2HqBuT4Lbn41nL6vKtoreVBxicEGjcvkGWKWrhigYqkDbkbFhtuPMwyJAhbLkmQFJG4giz5ACMLJJrw3NIBz7Y15OCAQn05HdumiVRDFR7BDDC992LTK49HOHaDSW/oqFFwR+oZCFPFGdAQqANXys9RJMK6MRsGQwyYARYtw4UgxVWYlWHys1y4CCtkNBy9nlBulpe9UOKPKHjZgnbFps3fJCQYfT22wgM2zqaXyaOtXpqPO5F1iH0TdzK527g1Pd4q7kLYLlblSZjvtKcJjO3cJ07N1BonK66W5PQibpOuRHzSFmeUwMxivsoSZ8HOdO+j95nObiQjRuYc7mjUmQ69UTO6iGAfqCsXWYu/s8RViyjlXCC9q1VnwYXBJBxzibG+16So0pFzoGLZVXEtllDLPMZj8rq0munI31vy+mND1auQG+sNxwi8RNUPozQiYoLsxlSpAoybme+2ujHD4d9scEhe5V7qzN6tx05urKSCW6udCN5lwz2fvPcNt7TRxD6Nk2ATB/h6XTkPeXepdXcXoQ9gqx3cjsLGrhOWazxFolbYyGxPJTG4F8aiKKHWCmv6+hp8Qg2D1i9eWdZc/f5Xvf4IgVvYr9UYLVvV5YGuR31e9Hl9kFopqnSUIm0XW4NOQVonDct4utNRkDUbzCBhUM2S38HrhsJF3gJBdMV9dU0EaCkioxADRPtySu8dYDOv9WL+tmVlF+oP4eZxq5Pp+BBKx5z3CdxW7A0gde5SqK9hHXJyOAlxmas9y54nE+CpCCIMTB6JKES4IFycZh2LBgNL7xqtlbmaiUymyK03GYi92HHhsrMpXmY2S4uUW2aVji9HsmYrmxgOM9dw/zu90WEvZnI4ebkGxjbB5cDQDBuaa6l6JaKWq6Scfmhdq0ChwS+pkpVOrj1NSN2umNbHOz01n/uElUMH2FdgIuMRf16+fZxjeYjrSCF5KsY5caLMBM8Hx0xPXfyC3txZpJ7JCiFQaDDCP+0ThVS/8ARkepD741k8Gc9M1YpxfjBwYmrpw1puxbGuGaqvxwAS1XbuJZ5gPDJtBfNYCX5xguPQzOvz/eEi1jqGlSBPiUAIa2ltY/cLdpCxZFyP7kzvsXiNjbgsdThpCCCElaVjhe/iiKsyujLkG2KIqtp4ehun6+RHH8tjbDKqs9faQo6ii2nFumSMFY7RBpTMBhjMZRDXNKU3akYXj00Bk+qng3udjfg7OarN6Kt520Guy16GRpbBDK4Ys6Z6kce7TYYXLPDB6OKETw5dUL9eEW+2RZHGXdYaatnxovoZhTVCUu+INqFapm6HqAfJE8eehsvcRvTwdZ9fXPu2GpKw+bUrD2c+JTEHmT8N4gDWaHihrliLj25ER+qeEmOYKC6YGN8n2cPa8208OE7zqyJU7ICLiBwT3/aHecYLKyOHvXiWKIfmLl4P4V+KDsAGtxlvseGOc+wLUE8YXcrf3l7Ul0RlPYT398OMrVjRp0aaror+BQ408tKuOaLLDDRIR2SYmkHE4m22XByk8h3IbmVeCPcECbcq11KzhL4u4aF0vZC9tOUy2nD21r/nQ/IBYoWzxYLDMcLnhbpubTJqzY7oDCUZmeF6FRktj9uArOFKcrYd9WYQKezUZQ5CpRNECTnctCY72DjQKQdk3RSjZ4wZywknmDLFSC0TMCBFhssj8WKYIv27jgOLdNrKub8cVneAcUbiFbZYTpUW14or4210dIh5imW52o+woURNzfMEbBZmrDxwLF5pyzW9xInXjcWrbH5sZNFH4trGlqfQ1RSjXROnlcwSmpo2WFjCmQV8+zJ+Eo/fy+jQkCTsK1xZuL4rJqhlSoNksC2v3MlJ6R22uOpwQR7vREAI89yaImeAtbuGHwiqIjYLIG0okRTX5lxH4oJwV4OAcAYBG5fxRltcz2qQruKbbHFDKhRHnUQCCOrG3fHOPG6NQhCbZ6V42H4q/3fZ4qYAK4zDeG+yf9c8Uunf2ESE9BpYAESCE5gpjIYIM6R0RpbcHkKA6nBvzAkKojvzI72OINI6oaMNjs6ke1cGcbsHSVGR5Ax4PzroISc52tNZW4gEkRDwqmrPAFGoy6KAjkrMEBRNxncZJ2rI04fCYD37AbAhqDGXg4l6eDkGqsPPPCAIa2QpY5hgNgQ8QMmBCJ3zAUBQ7a/PGXtPMBvjpp8s0t3TzFAuGA40GW2l6bjX3wFP5NIXmncWl+298CkzdDUV74O/mySMxQds+JJEX9t5tE6vi/fD2BpgjKkI65Gkoj3nu7KgtgpQl31GqPztUgFLYaw+Fu+2ZVGJV7xMyiVCpV4MC9FO9BHMPfeGxlaXezs76EAUxErMLEeQZv5Wk3rIgbxAnEjq5THGPdLoF4k19ctXDKooTirQqBMOd6qKm1fuOWB4Wnfc7h0NsZBAnIkXlFhdcNjybG5qqb6+xxZX7ILTpk5UYhpXKu4etABaDyd51JrP4kE/ckc7Q/gZnD3pmSHaqxRhG4sKP3qvuHoQl3FehhUP4dCHnVF/HOCy/IL4kC2vVSg/yqGu206kHosP2vL6abSjDTaIXjqPYPEmQbUsblD9lBBX7ewH6ke9VQxYT/1G1ebiaIjcGtftZZZ42GSMVNLRaMdRaoNsmbgp/UUcbggiFRjywzwPRxQ0O+IbGZ7O+9cxJMzgkZXB7m55f84z1Vpu1eCQpd7bl5gGUz9Sb6IZigJ/r8IMtRQFDRt5F3XNi5UrhaDQw9IOuceO+rkC1jTcx+oRhS6Wt3HE5/JDF2oDON/pzv4RupArk0txq5cjTuZ3YnJ5/Brnl6gL7q8whWSGYKk9GFUcczTrEIsPY/dmtcT+SFbYJtRWPTQXORQnl8Mu+cmrLEpSwjJftK50Uaiv74vkT7TIlLRCJbVwTAVc0wcqOU0aFZ+PwivkswwKiTwhrkZcpwlmolpvOSFKiTt0fQtrOXVP/eUmnTwHwO80+C7u6VVCuNhQqf+l/BXUctKJH+lXVLLOlr5+Z2kfmmsxz3Up4eqMdNYXm8BD3AitCWsXEjM1xJBILfZiZtAKKtbQ+BeLYnT/ZArXA93XqE/D/R2YexzxWYYb5u0VjXkPsqpu+kiaWRJX8D2A9BrC/EUQXeXfB+D35PV393WmVV2NmD9PVPEoSUAF966OU+dKF5stXNOwhsoSLmb4947Uki2nlS7uMRKSlXWff7ILV/ZoQH01X88TntAfAl5TS3wSvaA4pRffq3I0p/FUU/9JiDMYb7eBi+FuvdXaUDdNZ7OpQ8+itJKuw6cQ5mZoZ7o3Z85EZaVSvWskq6uSNZCUTtSDJtNN0GD7U/hYfMbOrvmpRwjRVQvzcbIPhFKsj+Nx9LuobZ/A3pc8GuD6CUaGpwf0O+k1JnbN/K1lSk8mm+wHGdb07vsLx8aiCVy0Mvo5AH9oKpgf5mjUzPT9DW5L4cMQSpnJYYOSvHTh22aibj6BIRwfN3J1qoTkH5nRamQ1nU0UtmO+2FOo8bOcxdqt+Hepdhv+Xa7djn9XavwU52rtDvx7osaInJJbS5PxJ6st5OcJnYLOQjcDgKdJc6ZG7FmYNoorFnL5V6qr06s6/PfqhtvsoLymzm8TX1sh7rpKiH+vr1C5bqh66x3F40ZAZadtJvCwhr5HuAkKj+LhvMJ+hMt3Zh4JDWwp839U0HDUZ2IezVE9Bgl/8nnsXfjncZUqn368UypxmE8wF1lP9Nnzk3xO4MnmYvwp/FMUKJ/KP8yG8mnQZBRPD/SfY3vGhv4qNcwUxc2BWqBbOJlbibiNk7vdfIL5mSX1BeY7ShVK5llBW9nXnWoIz95SxXPaXjnUE35u0Or46rsUz/ManM/zcUbiDF9Qd0rq7wu90Gu21Z/CeFGpE4ZqXRx9GwmoxPGbu5Ryqx0mwqsA1mvo8h7NgXEDrrY6oea1jkQoLF5JstYADYfFPydUr+gPZJ2ru+v61neDPsjn64zCT9QtHYks19zyBtKtgC1+gcf8aTkbN3tcjAIlD5FwRsUEzj2zlOD4KhFZL6cDX0mGWFKiWE0oTuDyEZlejV0LXMcv1zSzk/nLXP6tPq2+p4O210xHfEZnggGdDR0K7woUkJFa6yu5WJrZVaHvuhwZ4KuRlyi1NP4azhLltVx1jbqOk0B5PUs9rhvUaBNp3IguSA7wYWSL8iaWhtXDnTavqpIvkD0iM+ZHLpjUozLLeLRZ58dg8+s0mqmpPrbCL5En28rjKtATAz++4vFlrpZy1E+oZH9n8Yluo12Di6AqPKnqqtzLk2GGWj+fAi1wffWN+6cm03kau4P/B/h0rbTP8JqBi1Grnr7BTPVmlmYFb0EkwjW/NdG125o6P387dhSWz6Tk1OUxKnfAoeS/yfYsX/3ptztRJGN4NmAOQzF7TpB4g+fCQqEf+nL6ebBT5AKT6vMpBfb1AgyBg3qhMfoXhYgvtNygPC3uswBLJYd/iA5QGeJv112ul97nKrxuQM1rVqmRrjHZqnFX6/C7/CqZHnwNKQ8NeVpZAZ1zcFPBMW3UWxx2Hb7jro5SjIZ+fwIQ+DdU/y1FXfEcTdxOobsax167tWQ/7pf5Cwf1UQ/1FzbVWVnvjhE2HW5JX8WWlG9ygcdmpL6syK1ol3gcDVRGrDFGXDrASfT4wcEuMyxqm/d3kaL212lPouIFuAA+323fhor8P/0EAACFVGtsU2UYfr9z2m4NuxA31g5Ex9zQkdk6EtiiO+dMtAWMQSP82J9DbOaYJrOacYp4ye5DsA3xn2HJknEa9YeSeA2m3WaWhYCYkbUs4sDEOWNyOiMCv5Y4L8/7HdDFPzQ9fd/v+d7L815OhVBIpZK506fGy8t6tne0H7C6jna3tO9+et8jR2IvtHTGE1RBlSQ20CbaTB6PIFLII7xPvtKReLkzbpFPFPcRkZ/W06RCJEhGpC3kUbzPxro6a5r+MylhgY8U0r6C1XLxGjsq0rGWHffGrc6eeKy75pl49+s1T8TiR2KHyUd3D3NSMIEqjiRAodTb0ry9mTYMEvXXgNNDI0TvKg0yPD3X2ZXojvUQbRPSyjNENAfLRS+CDDr2m8oQ3TinvlRtWh6Gi/DzvJd8HnzBVpqoxFf9QHuX7cdICGWA2hbW3ghfb9CsAykFxwtrbxRfr5XbwT5D1Na+9kZ1fYr9fiH+x1Xpg49aOT+0dH5FbTzUMre7qvePX8fVct9eD3nHfVQC8ly+h4qomKhUlPVhZuUeksRAgZNRn+gXYgBlChoSNCxoRNAxQW8LOi7ohKD3EeSioG+FOivoEiwUek8RPoGY3Go/rbvTLHcYI4LekvOA4pS6Q9nI583KfXQ/bRWIhxMjKv9ggwQ9SPdSmagewHkT1VMjhcQIrHzq1z4SidyYnnFqJ9Rw5lWp5CPNkIOtatBc1aKBh7WgOYHnCw0WRzXT8uup0BtaIhfRJRANJADYWjp5UldRthbO2Ho44wH4ia4mcvV6Ijepp5P7dNOa1hVWCvaMrkYD1UAv6lnnllawf9LVgv25lnVWdE6Vj6wzJGBa1UYi9xss6gxEr0SwsJF1ono+stNQQQSpWmExJiWAKakU7CuuRTRwU7oU7L+RFjFSoSKDg+YjRXiQhQE37V+wAI908rokFjTnAczoCivMHTcOgk0iw4pbHRbW4HLzEb8h648Gygy3IWUghQ4xwC1Dtw0uDDWs6tzUg9aPbpejgRkotRNcA0t3IgU7qeHqrFRM6xuw+VhDN6/BeRbN/wWAh9v7O3LVIvwNyKdcIGhasGKLd3QM8SqqGQXv83jSzPlL3J7BYUxKMDomlXTyEEBp8TgOowja6MbIOFVQLJQZcLMwwGnTyW24AI90UkeMWYypAwCYBs1hSZ2zsLxT1WWm+KlU8pFpyGu6mnXmoPyM5AvIeYvXagnhCWNZAug3JJCPVBhEVyE3Gmo+kkOeLejxNCzrDeT7DAQaAHBVDQYoHpdKOtnjWuQj+6VLKrTLjRENNEGpwHia3CwMcNp0cpfLI2gekMQK9mE8YGpaJ6BchrlbC+0nEc5c0PBikRLOfI/NqDOkkgptNRRsgLZGedRQCrYKAreVaKDeULIOJ5PubhwawV9qKjQqDworWBNNMa3TYPshb9RZvDNTKO4c6pljAESIO7WgH7RucvsWMRnCZi7CCoWxknHuwb5fAYDSiS4hGLdvEkzRnIJ9BjcN6MUpKWExLBWiF1Ep3puguQcuNZjJTqQNGhhjPd6K9YjBb7jXwB/KOMbtZd9xVFuFff8B/wq17FsCyiEAbTDdwYQstKrVyDijUiJ/VipZZ961SIWuS5d0chUMHzDQei/YBfB40Ti/CxTsP+EmwHJZh8sqyv4OvViGnOLF5oF8AOArUB7W0eI9KOYjTSrMEkoxnP9VbjccEp9/AA==(/figma)--&gt;&quot;&gt;&lt;/span&gt;&lt;span style=&quot;&quot;&gt;8727&lt;/span&gt;" style="ellipse;whiteSpace=wrap;html=1;aspect=fixed;" vertex="1" parent="1">
                    <mxGeometry x="730" y="270" width="60" height="60" as="geometry"/>
                </mxCell>
                <mxCell id="40" value="" style="edgeStyle=none;html=1;" edge="1" parent="1" source="33" target="39">
                    <mxGeometry relative="1" as="geometry"/>
                </mxCell>
                <mxCell id="65" style="edgeStyle=none;html=1;exitX=0;exitY=1;exitDx=0;exitDy=0;entryX=0.775;entryY=0;entryDx=0;entryDy=0;entryPerimeter=0;" edge="1" parent="1" source="33" target="38">
                    <mxGeometry relative="1" as="geometry"/>
                </mxCell>
                <mxCell id="67" style="edgeStyle=none;html=1;exitX=1;exitY=1;exitDx=0;exitDy=0;" edge="1" parent="1" source="33" target="50">
                    <mxGeometry relative="1" as="geometry"/>
                </mxCell>
                <mxCell id="70" value="" style="edgeStyle=none;html=1;" edge="1" parent="1" source="33" target="69">
                    <mxGeometry relative="1" as="geometry"/>
                </mxCell>
                <mxCell id="33" value="&lt;span data-metadata=&quot;&lt;!--(figmeta)eyJmaWxlS2V5IjoicjJjWFR0Z3hsOFhHTE4wdmFkOGVudSIsInBhc3RlSUQiOjY2NDY0ODIwMSwiZGF0YVR5cGUiOiJzY2VuZSJ9Cg==(/figmeta)--&gt;&quot;&gt;&lt;/span&gt;&lt;span data-buffer=&quot;&lt;!--(figma)ZmlnLWtpd2kZAAAAdzcAALV9eZwsSV1nRGZVH6/fNffBcN+nczEMN1lVWV35uq7JzOqeNztSU92V3V286qqisqrf9HghIiIiIiIiIiIiIioiIiIiIiIiIuKIiIosIrqu67q7Luu6ruvu9xsReVS/N+z+s3yYF7/4xS9/cfyO+MUvsrK/JhtRHPf2ovBoEglx9lzLa3aD0PFDgf81WxW3W645zXU3QFV2AtfP1S1F7TYrgO3AW286dUCFIDxfdwEUFdANXPJaUrSKczfY8Npd3623HD653GyFXvV8N6i1OvVKt9Ne950Kn18xYLfSarK+mtR9t+q7QQ2oE0HZbbpdoNu17l0d1z8P5Foe6bvtOpEnK161ivJUue65zbBb8tF72Qk4ttO5sZ1rdXzMw+XIzjj3D2JM827Agkyks7OD5QLKd51Kt9VUrIWqbPleyFHK5rgftfd7cQSyMppCxQtEjdamAuXWYNQfjPb8+ZA0zVbzHtdvoUG0KqqdHLQ8HoVGFyhRaZU7DYwboCw7zU0nAGSt+61OG4Bd9Z0G6QqlVqvuOs1uq+36Tui1mkAWN91y2PIBLXGOKJfrnmK74tbrXjsguOqDCIJVkjvhu+uduuN32636+XXFZA1dNStuBQua0Z0M3bs5pFNB3SsTcTo43yi1qAVnvCY6ayrs2SD0yhtcqiuCmtN2u1teWOuaZ68st5pN8FQDvKpMjSvVW+UN1K7e8irrSnuuAa8GZ3ptw614DoDrat56rY7/2Hx9AAZ6sjcYsIvF9usOO71xywlqXjdEz6g9bNPxPaekxn9TaICHK6Bbxnqg9oiExOjuI4P93iTaGsz2w+j+mZbMyeCujuO7aBV4yCyixNgaLWUPVggWXCYoNKp2Wq20tjjOwuXWs9h2fKdeh2VAeRtd30xvaRFdd6vELrvN9W7Fwcgd1fkK67CBDiurrFQ9xfWEglv1isslXisNo1G/ARXDcredIOiGNYxlneYkmi2/oYxYVhx/w+VArUanHnraiGzqDdSiBBtBtVBu1VtpraikoZ5ZCqD4ClKahicqLUgS9RX9SFJdzaR0ImhVw67igdpazfEraU0Zr+u7Wp1OuXeX650AQkbldE3N90zghJ1U48+qXgBcUe80vGYr8EJ2cWW7NxgZ+a0ErbpHQQmsacWDaaE3DhUYmaJYqvWAqQEkCrKiaQBnpzgQGbEXvIajZlaEuZ/zACxtehWX1r3sHcDPBju9YaRXH47Sd8OyWviqx3lKSEz1FmrJ2e7ubrRjRlzwYCc+3KQDFUKjqPitdlaV1RasFpJsVmBAHQ7QKjnljUWUTQ0uK+e01IJ+efB1QItOGw4Dpay3thSAIYR6DAE0ot4tO226nEJWg0r5ZeXQimRaiXbG095sMB7hmcRtoWfIF+sKWGK63oabaZtVj3r0g+F0cIBa8gx4d2uukbxszg+2o2lnNJjF4Os7nKpoe3e79QCAxKjh7ElplcejeDbNJLwMyQMv2K6mJBsOPbmFcZhlt4MyXD2AQhUcK139RNFUFPVSMJuOL0TOcLA3wgMpMwH/BsECkK1OaEBLE5d7E2hkMh9MV6mGTD2G5fh+a0vpGydh66p7V8erY7eAqQNZMDpFI9a7URHLB+WDC0lRS3knuJy5ue4tqK/k6reivpqr34b6iVz9dtTXcvVnon4yV78D9VNlzy/nez+tZ3tuPODKNLD9+cCKkrvpcgYymbhVGo+HUW/UmkSJghQ6TW2pWEY8Rp8NWAadUug7CrbuVgas9FUtfm08HTwwHs16QzxuXGBOttBltQrWuQ52m6qnRpg9vRlNZwOYHnGtNppyj5ZaYdhqALIa43kclefTeDzF+lTcqgPfhwZR9lsBLM3zAUv3vEvTg+qhZiEaUl21HUwFvrAMFUe90Fb+r4ii7NUBLTXoUfnIMkSMQArQSio/VV3dhLGPp43BdMoBpFakpI5SKgAeCJ4RPj2kCluVXryv/YlVxj4ElMgUXCqfo+2h0G6uAyXOtV2WMthkYbUrDIts9/7JeDo7bkM2Nme4dIRsxlBEgsDWrPqXCSI1WaveOxrPZ+vTQV8zKWizyq14NkBLW5mdPdPuzWbRdIQmUHltZSHw0cpXSyXP+WzsR/HgAbBOl0gNR61MOg6ZQhYfC6fz0Y5RP6viBdzfyVMgfvXUyshgdjSMgsjMHaLzg5bxj6HrUENkGdqldQUhKDbbZpkbix26jXbLd1T4WUjYYDFnUbqSl+w3AGWyW8Bx9HYuaDGmc6rBQd+D1VUjkNgoEUUpWFMrvUZ3l6yuXlKrBCWjiwFsqwfK4zkGNDXPLT3Uc1h2Ixzb6YTcuQo5VkXF6tw8ng12j9D0kFzaTtntwhXoGFmPINBCU/4VSMTEgXeP2w1bcCpqPRYQ0DHI1Gu0EVyixhbQ6Mm3x/GAssT2AZQZp3BKWOWODsMV2daUrhhbC8Jzpw20MKWEcEawNrDQ8llJVh1W7PIE0OXhB3XZ8dWal7CXorTL9ZYKtwqIDbtJoIh6sdNGMOZ2VYDa9TvN0FMh+RIMpOIxMFGyW/Yog16u59MIVmG5irtwqui9y0exq6AuGy0curpqkS0N6wYbT9UYPQEu6AbEASQr6poKO5dA1cai0ohwzlIzXKn4zjrKVbRtuOeTx06gutnSYfwaYD2PmpLLybQOY0H9VDjtjbQA9BxuxG6IKDbswn1jX+RsQSZgZhDIpgtQVnFyQ2nhqIAQv+q30kDWzqESN17I4bTDLuYwqcdeaneCmsYZZssZJuG1kqE0q9UMkXI6wdOZxhlOaxkm4XQyQ2lOpzJEyum0HijEBKKE2ZkFZMLv7AJWs7xiAZdyvVL1ZLCG6VV5XMLz6jxSs7wmj0o5Xgvf45W7bEPtOgR2OP46TbgkZUDXI4ZvIdTLMDe4vRj2piV+GifmcqfkldEgyDqpSMTbuapFv6HDZTxBI0qbCqRbwBT1swu4Je1y0/py0Pa1v15Zh9PBfpgiVg1pijihIWUCsFat/2uLyHCLruPkMWQN5xegTwU70/FwWBlMta/AoI0VfR3vjBVW3lM/C0czo71HfXikWYR29+42NirtAcvgwIhH1eR6B1uEtGLkGNAZ4GUhh2OELQq0yuMh4gJZmIpVIffwj7WNf+we/ino0AEP34+aPMI/lg8UqDPERfxj7+OfguIUzMYTPLBDWLxYyInxqSCwGr3ZdHC/kEsHN9+Mujy4+RYU1sHNt6KwD24hsnBwC5HFg1uIXGr3ptjtvFE/wnPW3nzQF/fmmK4JS8fyaDzsDecRnpFzFdffJKwqVqnZO4iEtHd7B4PhEehlzI0UgAUms3hnOpjMULNJu9mbDnp4ZH4QTQc71cHefIqlxdZpzq8Cagd5ApA4+KpEFGDVzeKjwaS3A6VeeLaN6K4FeRqXLXHENke+yzCoUricYJ4DXCXSJgpGsAN1VvLNP13uTWIoc/YI7E+d/SSKblKx2i7OYRy6DUQ3rTF+RvKKYBEoTHYd4FKOfztZ9/ywEF/jX4TZCG0AqPEEapEhnJTKg04rU5OI2JWDr0a9mVrgv5JtHM/QJMq3thWJGYVVbgfE2xwNSjVAlEWT2loKvCbjzOWWX2miXHGqPttXK03ljE40Ow0OaQ3RMNM7J7EjckqnKro8zTAZ5RmcJlmedRwVmV9R1uWVOJqwvCrQ9av9TZWUuIaGifLaYEslDK8rB1ssr4dwiL+hXFZ5pRsDHfI8rOaplOBNJtp4eMtvcnyP4KKgfCT2N4ryUZVQHUAfXa07nMdjGus+N/DHBtA1lI9DqM/+H19FZIryCTVdPrGm+31SqOtPvkuXT2nr8qk8vqB8Wr1aYv3prbYqn+GHqvyGtn7+5vZGk+t0Sx3uA+WtKDnO2/ywzvrtKFl/plPyN1He4ZQ2WX8WSo77zk3N59mbGBDK55TqW5TPc1GS7nkoSfd8Z6PGebygfE4dy15YripDeFG5repOueOTroStnvUynBvLSlXzd6vIMKCsorwV5TrK21DW0C3781CS/7mang96W+d46rXWOeoNwksVgTQ9BBIoW+faz7oTZftc+07yuetc+9k3o/TPtW++HWVQP9fgcyFSiKTvYFejXDYZvqDcQslx3N3YaBB/vllXgdc9zc5GiPLfYAPguO5FGaD8xk0sOMoXt4OQ+C5K4u/zN3zWe367xnLb75Qo950A4SrKfqjHEYVNdXDYhZgov71N5KlQ7m/q9sGmnvdLNjeUvlzY9EMf5RDlrSgPggCeV4gRStbHKG9DOUF5O8qXonwmyinKO1DGKJ+FcoaS6zRH+WyUh0EAny3ERZTkdz9K8jtCSX4PoCS/b0JJft+Mkvy+BSX5fStK8vs2lOT3MhkEt5Lht8vyphrhywmQ5XcQIM9XECDT7yRArq8kQLbfRYB8X0WAjL+bADm/GoAa6vcQIOfXECDn7yVAzq8lQM7fR4CcX0eAnL+fADm/ngA5/wABcn4DADXmHyRAzm8kQM4/RICc30SAnH+YADm/mQA5/wgBcn4LAXL+UQLk/FYAt5HzjxEg57cRIOcfJ0DObydAzj9BgJzfQYCcf5IAOb+TADn/FAFyfheA28n5pwmQ87sJkPPPECDnnyVAzj9HgJzfQ4Ccf54AOb+XADn/AgFyfh+AZ5LzLxIg5/cTIOdfIkDOHyBAzr9MgJw/SICcf4UAOX+IADn/KgFy/jCAO8j51wiQ80cIkPOvEyDnjxIg598gQM4fI0DOv0mAnD9OgJx/iwA5fwLAs8j5twmQ8ycJkPPvECDnTxEg598lQM6fJkDOv0eAnD9DgJx/nwA5fxbAneT8BwTI+UEC5PyHBMj5cwTI+Y8IkPPnCZDzHxMg5y8QIOc/IUDOfwpAuag/I0DOXyRAzn9OgJy/RICc/y0Bcv4yAXL+CwLk/BUC5PyXBMj5q/J40gah1QzbtbhdyCTEshhTNnqTCYMcae1OxwcMy2Zj/GuVhuNtIeX20SyKhS11tkhYNm6v9lkfMSJD/NXvzXqKdlnYm4N+NBaWldDEt3WmQxJVB0OcbMuMJp3+S5AgEHJlxkEhzov3e/3xxRigtT/Y20cGYh9xHyLJfjTrDYaAChHmEjPIQER5iAxFhDQQ4KVZdKDyhrpp+XCwjbPnDuEVlc7X3ZpbTGGd+P/b5Q4ipmkPc1sVq9tT8hyhZ9ROqMEI6xolgLNC7nAhEFZbY0aYMwbg9uEgHmwj2pKigMLcwpwWxRiReCz6cgm8R/HueHogdsXyQEnj5VKsKCjcR/g84tCBWu2NgMShwmMTMWc1BiEfIlKIbVlcgXr+wuFKcWI6xhkEJBjMWswGACd31QqWOV4juFdKcWrC+VRVE7y0OB0djF8yKINPG/lerOSyPHOoVOEVUlyJ3OzeYIRzCnvcGvRn++j/qgVsLeJqAX31DntCmCoetMU1DEEbkEgFKias4oXoSAyF3AW2PhglD0GGxFQGexFGZ+OMgJoOXO8XBVa2NGERyXvUwHyg52nZPdzhhr09dCwJNrk20NbEPlSKWHd+dme/x2A+msagkGlNdeRVOGUrJtw6jKbIVEZhD1IUr7CkPVTpS5Xeug+yxf3KEKOPseXI4t7waLIfY6+RS/30jiTGTiOXt3G4u/DS+Zjm92Ypz2o2mxgASDDilV1MJl2d10i5utsbDreR2KqiIRZDeWIf6jZFZxdK4/vB5fVSrqEG6EuWPDlLc544e07N2awoThl81E/X9/RwvMf8uCIJx+Vk7q3d3TiawX+IVXmmlutLWIVt5BP7sYAHmWsPYM589n5Ch5C2iOyhWQ5hLcPe9KnkPiEvKjWBaNl2HoBNIB1RgTUn3sGZErXl3cE0nqXDwtoUYT/5+tI611lYSzvjg4MeBlbSDis7gd4ntPgwKvixXaygEhi6upR5r39oTH6pkgoNXm+KMzWmDLeXcqIXNVKEuh2ai4YS9Bsro9CN3hRLZhYrPwZ9aFfC5ZOsNKPZxTHIzeBH8AW9IYbZV2NNpnCpBtLNI3WOBZAUQyzulTI4OtgeDw37WFXQL7y/hhMmMRlYOIrT8QQYe1TFOsB5QSQJW2iA2kEsS4lYToBD2INjIzzCejSiu8QKmb7Gec5yHkdVyHKdWxTmcTRSB26JbWWwu9saDY98+BbYo6K2KzhUH9KvHcxnnJ3yZpqvtcgXFWMnlhNDS/1oFzT0ILDepBFqCd2foffxfOL1QcDl4RR6yTPvkqTBqnoP3awWzHvIduVwMFgs7/+FIohmD00UQAW5QuwMuAgJFeigtbo7GEYbel6xagQLbN9mjrUedmLkRciyDbkYWcUIOWUh2duLwwF2sekRBRqOg/k28ynbICNCfKuk2UzGI1ib7mh5Ptod8iqGKfY8x5VB3Emaoj7EuKpHXU6eb/RiGJGWmL2TYDVXOZlvDwfxPpixX442HIdR76CejY6dWMc7sT3EOLTIFiZNFQhmnHWmamTV2g0uYqRQHkNMDcVGvDCERSW6PN/NW/+fOMPue8MgJ5DkEc1aX94La0WFBFdzJNj4VEigvCqs2Z7iBnzO+KGQxQZFFGlssBRPplGvD4rleH98EWuNqKYUYQX7ND2Qr4QMGpSL80a7DM1Uf6GQ/bm2SjxstbH1j9lQiQ4HO8mVYJLM5GlXXVvKMvIPKiNjKRzym8yDoQ7D5IN+EkHA9M3D5fJWV0W48lgn2CNYQbAPvTXuC7PB1L0+5DHYHcDZQnHxlOb5MQRGLawh9sG28dohGYiV9H5JIKWd5L8l4bTFYi3JgttIwmIeCWXBVFPiokEk9LidbXbUSX/ZDKCEXXYPTmMEmUOf4RExGvSSzpr3QEgp67sbZtfNSwDyEgZ6DumTyGR4lW7yisql5A4UDVsRtcyytlO04vIpLGWGKicK1ewhflVrqKhEselsIpGmcoUCCX7zjo0MtlT2zmLJF94UgW0y/eoOreAiKJ7OAsTCMNIYziee7+4iFQzjHTCOUx3APhAJJ6eObxZ2fLhHi1fRFYSIKk4d1M8Hoc+oteYz7ucMttAOZ4M1RQRD74/6Miiq4+kOrI9vFMCDXIiBXsHO4WzH4+F8Fpn9E+7GDHBz3fQgLK/abbquyag79S3nfABA1lU0xTtlzGLGYd8Bf4sYUFjwnam52aP5QQBDxeLFAuGKMU6cCWKNDai6CAT25nBHU1Nb3jFrvzKhl8KF9Z1idR0eGEJTMSc6kSmrxN3bbTgTEFyE+WJ51RuAKwKOYSFk0Xs8XApChIBgyMEzWawViG9goEBm2W9tEGOZd+lst1rVr1IUkIdr+YSK5u58Ca4Dblrxy+0tui/tGpNN02woyXZEAogEk6SIMfqYGPNIDFkktoq6lW1V5v4DvgrKiaUCQukZZYMp4Aq4u1VzYT81r17ptqpd3YxUNi7U9OuMmCFs67xp4YOWM91JR4GQFovojPawijjxwWnmqtYAF7xTP/GvtvbTdUSleHY+HWCEsj+IJ8PekdLaNcYjqqqUFONvD+c4vpjeJqqClcRjiFVwdsADF/RE26rNj4Y9hNX7+oHCRCH1Awc4I8J0AMJslKgB2oO4Eg0jROFQwkJjPpwN2Hs0rQ6iYX9TiwIC2oHmY+2hDDJ/MYTbIEyQcVqjx6MrJJzoh7kOp3tEYRkfaGuXB6iQeL1iysMd9Sc812GmkQG5vaAnxCiTRL734QZId/Z3sJv0YQCw22GbT2HAOXJtbngMJJqWixsAYjuumbxKBTd4uJaEM1LqioxvgtJ3zclNvX60MdCDQzcxkOTyD3CJmaGl1JA03AkUFd249VJrS7sH2IxjZi9N0NEYH0Zm5xwP+xtKpghwofDVVJmtHG1tgPP69MhDmgCPxOM5HJdarD4XS9fLx4KOrUF/L4KhYOgQpYW4PqF3+wMczNi7PRtAUWa9g4kXj++8A1lVjAMucApCsBhiRCSO+g6P0TZhLIpyDVbF5fvXmJTYwpW9W2o5PqcrYbcXNInt1Ns1ppp5WwsrcwFJ9XqkeUtXhfI4BI2gqNbnE4+lThP6/PzMyX4vjsSSsBSgkXdM4COSaz8khHJVTfCsGbs/IVQooFF3jnrK4IosNerZg7itQ0MGyTCI90iEUQhRJ0rGa+Ij1jCTgFqvf5LiZXmkEYv4Zyl/2Fjmr2vvBi1eFrcYUPcXDeJgvDszBhiwCZ2+VyJBMB51Jn2cGMxAfgE46MEwoflR1PU2lWB+XMaEQswP2T7kd1W1sjD8X098K+CfkZjlZRzrlyRSubmmzEt/USK3e8zTfhQObh9nJeZo9OAwzXsRlxp0boyq4e1JA80oQ/9UgjbbatrwrrRBhbFZw08nDdxZM/S7E3RuPNjT9TDQ/isyVsg+kCTBXMWnjXyI04RJy+/lWjhg4j6Tw+lBEfv7OSxHRNxnc2FTuwebi3GtIH9DXnaEpZQUo/yYki6kvw7MBML9Cww7qSK8RWJjdrRJ/9+a9iFR8aeW/PtEaGqHyaT2fikeADeFXVTubwKUPpA/XH1zvmET/LWsv1WjU6eSU5oPSGSSYkW/qHGvk/PkBAXu+U7egfQaXFTnIZq/mhzSsEy00s8ndSXmP2awokexoWzsC1ix8q2Y1J8kdFG6ea3BHnQSsLz40L9kXLiolWg3Fh+25Kux2eXQWMpYfMCS32OZCXLCb5PipVlVWzNFwaRBkOJ5APsWOAUex3DW0A1qAt+32LWDHXVvdIBaLD5kydfggIJcrDONSvNtCIt78y+k57qAh0Pcgch/kgsonBc/JOU/K1+pIry3SjFOKnqIk+SBenQYDUVR/IZKaZpo8poE1sQevGhvb9qb7NORYrdbFdceQ2nCcyk2eY9hVVx3HKdJN2YwIwdp8PybtE8Sj7oMWj8Qpi2bUHrmtMRTxKMvQWriDvFl7AriWvGYBNZNm6zmkmjXi8cuYjTZ1hAbtsn+vUQ8Kavp5nu5Qk3sF0gPPzmBddM3KnYU+uukeEpS0W0vJqnKvYxwT3JwMB7VeVCa4xQKyX7bQiu25vtn8x5ixIziZbCVlKQygIFFHDK2nDzVt+ep9D7EpcmTvDxPAt/BvDjQ35FHB9jiYT33RNMxml6Rb2qal030iy4jXKle2mjELSbI31/aijzaDocuprh9zTWX+SLKDCn+HC7dZg5xL4sdEs4mYf4S3FYqytTEPwWKHuaj3+O/UXwMV0MjmPzeXcx9YiJ/kCDqWBnU/9DiQncQ2NTVCS1htYwru9l4D+F7vzVqhealk1g8IH8vxSNhmG/4jExzzeKfLFyf0ZDJ658t8TllYGpGRMW4NZavUF2XBv1B1ukPKVyoU+JEPU+8CSOOa72+H9ZDtGHM78gdGJcMqDXsOcgCXVB+YllDGv3c7NpnxYC64Xl4Ms3urKYV3fj8GD4A8fIaS416IQ7Z6Z0QMvqmohtf1IfGwMlAQCNk6E/lqprAOUAAiLGdZalRFYJe3NIncrRduYDQRFXiVETzckv8Wm47bem5YFpXXYLUj67DrvMnL9z3ZHVNUovVZm8ubVbFjfm6JmlqlHI14lHi4bmqJrhLY6C+4jHiEWlFN/q6rn6a8DjxyKymm4NdRABZYPCErKrb79EPaBQpnphHaJp/E6kQBPuWlE81sG7pZgtTNkmCW4+hNOEu+12PxgfRDHHrF6S8LY/QNHu65wRJqtsXUZpunzcTMDOo5XhSj3bhz7JVxxJ/v8wT+FzoYxSvzyhK49lsfHAZLj9wnOZyjN6QEWUtA25bEyg7DBQ694PHacIx9me0ZiRvlNyKEZPCJmN4Z8way68s7Yd4LHK2j2WGXm5tjxkJYH41tesD92MGp0ebot9m0Jxiivxxg1RzSrFvN1gIF+E0FJ0m806DRFdaaTHtnzI43VWKfpdBs6sU+dMGqbpKse822EDJV6PjxUX5GWsfe4veptM1mYlHiJsuh9eq0Y75KjydjCgJuGBT0Y0vUXXOCw4aY7iQr2uSoUK1e306eZAc5OuaBB0CVYYk4HqUkYqquF8hz831TwVq4kjVdWtFfFaqai0dtmGIDv5AN8FFqwgja3hQN+AwjRjrnPhDXdVhAuqf0/U29iFs0MHgAT51TvzVAlr17+HsHmNIf62b8gPXTRXx70zT/mDYN4+uT8d8hfZvdIsZlhIhsP9+AauVAOi/1WjFRvEPouEuFufvND7ZafGIqIvvxVkGSB8h4jSO7qHo74fQv0+j1Y8ZmuI3dc2M2UgKPX3cOhiMMGkcQm3xW0jU3J9UPmFBHcwVAQ/5Kg7+HpqXztYHzKSlDa/JGkroZy/zWnBk3yszVuoU/hEpfjiHC/EUrh7enENVsluIH5FRL32FfFO8JUfVxoYeTQ+jQCUNMelfQpyuUjloVPRtnHUyFH+VsSZ+ORuruXL4uER8DtVPMvYhmoQvfjXXVYg0y3hOmX04T9nooYL/lIf5NYlK0pKbwUeYlkDWUdWxZ0JQwx5T2B/NdRDsj+fDfgCVmTnqpQy6jN/PhuplrGPxN5b8StakRIEVUpki8Q+W+B9SJxIZ0kJd5adNfSHb+DdS/lmyNjxJg4f4e4nMWIpzcboF5r9mmDpmqg7B4h+l+FqGV09jI8Wu+t8yLJ7XuH/McGWYLYSlhhqL/yzl/8raGDalubqvSfG/JY6wx35DfVL8F43tQPLGiFfFf8cKq8PcZW6A3ynFvz508yaMBksKkxMPWiOo87F76XdIDHIHeKTZdy7UsfnMmZT9nCW+wxoigoQKHg6ii4r2ZbZ4o6UGZwJDhJtSvDlJOpYxdTjkON0lfgTxYT8at6EM2zAa8UpL/Czt9GCi2P2rJX7OuqhygLz/xkmVSQXxWkt8fw5d1r88XBavN8iKnipua2fTKPlh4mss8QOmvdzbwXnBAcMYa45TtXiDafFGk/ksTb1/yhI/ahq4zyLRDNt5q8HUxodwI0oTXm2Jn8DV65bCB3C+F7jAmN5PGtpGNOv1OaFPW5iixrmHXAnxSUt+l8G0sW/Ddx81otFcu9MHLfndlpKWP76Y+LxYvMUS79do+Jf5wWih5Zd0Cx7QuhFj10Y2QCE1+Rb3AYX+ZSTDYFM4U7mj+UGV+oejxuct8T+1HaOhgmEnDV+wxLcj1QAHisU+oQC9j72gp35cOIJGYdans5puLlG22iG6I46DruLMJUhNXI5URi1RFXPVdcWlWE3uxjA8D+YzVa9gwBKuX8RosvrBAPOpD1CA5AYUpqabGzNaF5zLBTgREDwsX9ckrW2owMLPcZ8gHnccp0nvhmZAC/IhBUKNx1+K1eTncc7rI6Wpfr+K/sQzxNOOoTThfXoRApwsgYsRC8inL6I0HWwE2QYlhJh72XPEMxYxmmwbVgeHzuxfjCBAfkOuril29Ms11AHsOuLmrKrb+7t0Ig2ceXDGVzKEqOJLkJoYtqj6HlchAyl4FE2qmuBQz6WEVdd6kTwP6otMC8GZfF7KV0usnNJNagHaXitjtftlPze6W/wYPBbj4+BgPJ7h1p9CfZuhw2k4xq3HffCLuseQixPjapQAGP68IYSgIKcdlenGmop7xPvANsVh9GDyixLXvEgyMlKZRqPKgB6N9/PvN1xSd/JliXRXz1zEfUWK30x8sk6zEV1XEtg0HrmIbXmEZ5EOQVU5/89I8VsqiTY8dtf/CYn/mwZucjMwTggwyt9O2rLV9biKmAkJPinx/0sonOxG/dNS/I4igHKou517xR+ptehhP5wG8wnX0ST8GYU72PiUAOj/v6iDtjJ4okusG+VxTvx5xiA2HB6CwZfkhegIeZK9PazsP1pYycMxohaXLrS9P0XODOv9l5IjpUfHUX6/FO2Op4hukIbhBO+V/8Gke+vYsmLxVSn/o5xB3EyucOXFFy3xnyAQDHS/hWQw7BQDxS45hl9EjgkwBvKd2PHiWRY8vsqKDrajvmLwLxY2JmSM9htRf6BfPfyYLV5nQSkgZ0oZwzOahB3sB614cDAZIsZPXo5p90bRkNN9i7U/O1AZwi/a4j0WUzE+/Iz4ki1+3urtYJIqkVLvbSMluibeax2SBBjV6YO2eF+KKcPXzA8wHwZqE+yQ4hfTNp5mSkcBtie0vMlCJjlpIQ6N8Aq2/GAei0j3fVL8SoryIxwmocFaBW2kgpMWDkUl/GGztvhVCyHDqN9LNJI9vsMSv23Qyf5I9Lst7IkHA2RiSRhguXA6/rItfgc7bO7uCcv0KQsLjS0b4fS/SvG72JkQbGMT3WUC/q9t8UeWFicWXUne64v3SOxum1DhLOSw7B784gRVsJQHYNmrj/kLP1za4pjMjuwGsY42FbHa1m+FiLbTCXgDiAvjdX5ggPhugrQa+gfVdqdpoIIhY7WbYovqq07Vlr+lrx6XVL3klDcMYlkh1M30CnZuxAm5yMNawmRx0htgT2TCBYZG48kQ+deoe1N1T6QbIUzMrABckHtEY4uDuKUf0/Ul3W/FeKuFsAo3uVRHRPW8LYRFKxsHaOWu5ilXS8JYpwPow+ssKRcbXbQcgRWsHPqcvSiwmVMmkOV4vAE8jrW6aAITmyGsehcAgwCrjIaWkeqnpnijJezNBYy4vuEFgad+GCjKLZ/fjvGditfhaxSSXxRa9/mBLP5QX1NZGdJrVlz1hQIb9+WtDbe7lXxLoYCL+vJG7qmiRrSdCj+jkLxwxS9N5bD6TYTlRWTyFsLKIjp9TWF10wu8Up3KdYIvuKiPHaGytoVbXP5Y72T6hYdT6VeU2JUaRPf4nE8v0qjeLyE6kxHpcVye19lLyC7P7opSy68AwQ7TJbzSIM2TKf4qg1c9ptirDVZ3kKKvUZ8eaIZd/ljV9UPPZX/X6qUstzp8zy0npesS5aA7TH1lpoZvzqlhnsRFO3Qx1TZgYR9wnalCkhqoe4UVsopwvayC87yHzPp5K/p5SDoXROxs0Ae77K0T2M/iI9zDQJ5j+/ZL2BoaFwQZyxhIOBDLUc66bToAWY7VO8HqknYXjRmbiWngyDSph1OO2jqEZT4bIZKPmBlm+Z0h6+xn085y7S4as86IxN6Z9JTQwWPyXIIhyBk7fhcocFyAd2smArFnSHTgAIFt5b2WKBziNkZV3meJ4sE8Huyo2vstsaRZhym5JWeE69FoD4k2eB9NsJlwsBC2zLAlw0VmrY2UJVzpeLSHMWBwMQY1C8GtEYPUwh1cdveK+11hFUcYr3ZZYNWPdvEclOmB8cH2IKqanzs09VTtnfzjzfTBD2J6+bepiuXL04lC5lJE3qVIviPpexV4vW6gPmHXxTAgTa9Zc30v7PKVu27An5HrBnuhh+wSGXNPpgALoff/CASzQFzhrFe0cEd6Xji9QqF6w83kCRs7UnYLtyYKuNPNHvf4bFGJ/aOQXn7my5Mp3z9AlKZ4xbiNEysL3Ss8dhee+DQMY2YAqSu4QlWv/ugalGjh4ZB98m1a9WNctYQoZPIuK5YLDqhZdrt8wRSIxafbx8YGPYEZjPZMdU3KgYkg+ba1wX7ckpaXQy8yAY8Zx/QJSzC0xlJ9HeKQlJBGq9FuNfX+JjBeRDH8SBrHK3WAoOJxbG36SyrmAylCveiLUnLaXbcCtdCvqFlOCLdbcyvQEJDwgzBBV38mk83YQztwyuypk8cXdGeLqRphmy/UiNDvNMtO6AKU6ht85qUt8y5Z5ggW3k3U8CaOG9AchTJJmaZWNXtL1SgOnOLTFI1emmWnbN72FoHLaEB/lTGTL797ZZbDVshu4NaxFapWExcCKmKoXCkTb+U7Q/obZ9vxlEcTqLaFuE4BGPoMGolYCqCZYv45DhJmMzEoM5v8MwNQqGl8BvYz2FE8C5o7MgyWLMaqa1wiKxxaYTmhvleGDSzjBm0XSFgLtr+FDKE4G55vu0HZ99Rv20W5TQFJ85Nvqxxw67XPOZtOSlOohQ2aSPFcoNZzScVVdxG13D4f1hRyZZ3B8Gqg0CeCLU+FTmsbLb6fB+ik3wmIOVVy1McLTiMw5+eJlNGd8RifInng5jJecGR1qpZMGivQkKQRXh2F8oQOjuT8QtJDvtgEwUwMEmuiXRkt1ArhKeo4OpKxsApDgNAycNueD+GElAC+DJc3wFkRZ2KudPLGi/p9V3OOc+YUtYLmNNIRrbUyBKie/gpM+TJPW/0kK9IbIqAXX4WUF1GcM8z2r7EZ9McXRzh48fUcnC7gL4uiCI2IMdpotHOUYZc4ASzEdGaSKUWxzPf9prEaW2u3jnZox0opm54oqIhM2bDoNLOKTMNmRAHduv4igk0++rmikh9wwjyT0MiUS4KxVPhwV6el7N+uuQ6aARUqC1MGYV19L0D46rMbcrHZrAh8YkN/RAskwr07hbMfbJAyyaFYhQE3GImFx8N/C2HqBuT4Lbn41nL6vKtoreVBxicEGjcvkGWKWrhigYqkDbkbFhtuPMwyJAhbLkmQFJG4giz5ACMLJJrw3NIBz7Y15OCAQn05HdumiVRDFR7BDDC992LTK49HOHaDSW/oqFFwR+oZCFPFGdAQqANXys9RJMK6MRsGQwyYARYtw4UgxVWYlWHys1y4CCtkNBy9nlBulpe9UOKPKHjZgnbFps3fJCQYfT22wgM2zqaXyaOtXpqPO5F1iH0TdzK527g1Pd4q7kLYLlblSZjvtKcJjO3cJ07N1BonK66W5PQibpOuRHzSFmeUwMxivsoSZ8HOdO+j95nObiQjRuYc7mjUmQ69UTO6iGAfqCsXWYu/s8RViyjlXCC9q1VnwYXBJBxzibG+16So0pFzoGLZVXEtllDLPMZj8rq0munI31vy+mND1auQG+sNxwi8RNUPozQiYoLsxlSpAoybme+2ujHD4d9scEhe5V7qzN6tx05urKSCW6udCN5lwz2fvPcNt7TRxD6Nk2ATB/h6XTkPeXepdXcXoQ9gqx3cjsLGrhOWazxFolbYyGxPJTG4F8aiKKHWCmv6+hp8Qg2D1i9eWdZc/f5Xvf4IgVvYr9UYLVvV5YGuR31e9Hl9kFopqnSUIm0XW4NOQVonDct4utNRkDUbzCBhUM2S38HrhsJF3gJBdMV9dU0EaCkioxADRPtySu8dYDOv9WL+tmVlF+oP4eZxq5Pp+BBKx5z3CdxW7A0gde5SqK9hHXJyOAlxmas9y54nE+CpCCIMTB6JKES4IFycZh2LBgNL7xqtlbmaiUymyK03GYi92HHhsrMpXmY2S4uUW2aVji9HsmYrmxgOM9dw/zu90WEvZnI4ebkGxjbB5cDQDBuaa6l6JaKWq6Scfmhdq0ChwS+pkpVOrj1NSN2umNbHOz01n/uElUMH2FdgIuMRf16+fZxjeYjrSCF5KsY5caLMBM8Hx0xPXfyC3txZpJ7JCiFQaDDCP+0ThVS/8ARkepD741k8Gc9M1YpxfjBwYmrpw1puxbGuGaqvxwAS1XbuJZ5gPDJtBfNYCX5xguPQzOvz/eEi1jqGlSBPiUAIa2ltY/cLdpCxZFyP7kzvsXiNjbgsdThpCCCElaVjhe/iiKsyujLkG2KIqtp4ehun6+RHH8tjbDKqs9faQo6ii2nFumSMFY7RBpTMBhjMZRDXNKU3akYXj00Bk+qng3udjfg7OarN6Kt520Guy16GRpbBDK4Ys6Z6kce7TYYXLPDB6OKETw5dUL9eEW+2RZHGXdYaatnxovoZhTVCUu+INqFapm6HqAfJE8eehsvcRvTwdZ9fXPu2GpKw+bUrD2c+JTEHmT8N4gDWaHihrliLj25ER+qeEmOYKC6YGN8n2cPa8208OE7zqyJU7ICLiBwT3/aHecYLKyOHvXiWKIfmLl4P4V+KDsAGtxlvseGOc+wLUE8YXcrf3l7Ul0RlPYT398OMrVjRp0aaror+BQ408tKuOaLLDDRIR2SYmkHE4m22XByk8h3IbmVeCPcECbcq11KzhL4u4aF0vZC9tOUy2nD21r/nQ/IBYoWzxYLDMcLnhbpubTJqzY7oDCUZmeF6FRktj9uArOFKcrYd9WYQKezUZQ5CpRNECTnctCY72DjQKQdk3RSjZ4wZywknmDLFSC0TMCBFhssj8WKYIv27jgOLdNrKub8cVneAcUbiFbZYTpUW14or4210dIh5imW52o+woURNzfMEbBZmrDxwLF5pyzW9xInXjcWrbH5sZNFH4trGlqfQ1RSjXROnlcwSmpo2WFjCmQV8+zJ+Eo/fy+jQkCTsK1xZuL4rJqhlSoNksC2v3MlJ6R22uOpwQR7vREAI89yaImeAtbuGHwiqIjYLIG0okRTX5lxH4oJwV4OAcAYBG5fxRltcz2qQruKbbHFDKhRHnUQCCOrG3fHOPG6NQhCbZ6V42H4q/3fZ4qYAK4zDeG+yf9c8Uunf2ESE9BpYAESCE5gpjIYIM6R0RpbcHkKA6nBvzAkKojvzI72OINI6oaMNjs6ke1cGcbsHSVGR5Ax4PzroISc52tNZW4gEkRDwqmrPAFGoy6KAjkrMEBRNxncZJ2rI04fCYD37AbAhqDGXg4l6eDkGqsPPPCAIa2QpY5hgNgQ8QMmBCJ3zAUBQ7a/PGXtPMBvjpp8s0t3TzFAuGA40GW2l6bjX3wFP5NIXmncWl+298CkzdDUV74O/mySMxQds+JJEX9t5tE6vi/fD2BpgjKkI65Gkoj3nu7KgtgpQl31GqPztUgFLYaw+Fu+2ZVGJV7xMyiVCpV4MC9FO9BHMPfeGxlaXezs76EAUxErMLEeQZv5Wk3rIgbxAnEjq5THGPdLoF4k19ctXDKooTirQqBMOd6qKm1fuOWB4Wnfc7h0NsZBAnIkXlFhdcNjybG5qqb6+xxZX7ILTpk5UYhpXKu4etABaDyd51JrP4kE/ckc7Q/gZnD3pmSHaqxRhG4sKP3qvuHoQl3FehhUP4dCHnVF/HOCy/IL4kC2vVSg/yqGu206kHosP2vL6abSjDTaIXjqPYPEmQbUsblD9lBBX7ewH6ke9VQxYT/1G1ebiaIjcGtftZZZ42GSMVNLRaMdRaoNsmbgp/UUcbggiFRjywzwPRxQ0O+IbGZ7O+9cxJMzgkZXB7m55f84z1Vpu1eCQpd7bl5gGUz9Sb6IZigJ/r8IMtRQFDRt5F3XNi5UrhaDQw9IOuceO+rkC1jTcx+oRhS6Wt3HE5/JDF2oDON/pzv4RupArk0txq5cjTuZ3YnJ5/Brnl6gL7q8whWSGYKk9GFUcczTrEIsPY/dmtcT+SFbYJtRWPTQXORQnl8Mu+cmrLEpSwjJftK50Uaiv74vkT7TIlLRCJbVwTAVc0wcqOU0aFZ+PwivkswwKiTwhrkZcpwlmolpvOSFKiTt0fQtrOXVP/eUmnTwHwO80+C7u6VVCuNhQqf+l/BXUctKJH+lXVLLOlr5+Z2kfmmsxz3Up4eqMdNYXm8BD3AitCWsXEjM1xJBILfZiZtAKKtbQ+BeLYnT/ZArXA93XqE/D/R2YexzxWYYb5u0VjXkPsqpu+kiaWRJX8D2A9BrC/EUQXeXfB+D35PV393WmVV2NmD9PVPEoSUAF966OU+dKF5stXNOwhsoSLmb4947Uki2nlS7uMRKSlXWff7ILV/ZoQH01X88TntAfAl5TS3wSvaA4pRffq3I0p/FUU/9JiDMYb7eBi+FuvdXaUDdNZ7OpQ8+itJKuw6cQ5mZoZ7o3Z85EZaVSvWskq6uSNZCUTtSDJtNN0GD7U/hYfMbOrvmpRwjRVQvzcbIPhFKsj+Nx9LuobZ/A3pc8GuD6CUaGpwf0O+k1JnbN/K1lSk8mm+wHGdb07vsLx8aiCVy0Mvo5AH9oKpgf5mjUzPT9DW5L4cMQSpnJYYOSvHTh22aibj6BIRwfN3J1qoTkH5nRamQ1nU0UtmO+2FOo8bOcxdqt+Hepdhv+Xa7djn9XavwU52rtDvx7osaInJJbS5PxJ6st5OcJnYLOQjcDgKdJc6ZG7FmYNoorFnL5V6qr06s6/PfqhtvsoLymzm8TX1sh7rpKiH+vr1C5bqh66x3F40ZAZadtJvCwhr5HuAkKj+LhvMJ+hMt3Zh4JDWwp839U0HDUZ2IezVE9Bgl/8nnsXfjncZUqn368UypxmE8wF1lP9Nnzk3xO4MnmYvwp/FMUKJ/KP8yG8mnQZBRPD/SfY3vGhv4qNcwUxc2BWqBbOJlbibiNk7vdfIL5mSX1BeY7ShVK5llBW9nXnWoIz95SxXPaXjnUE35u0Or46rsUz/ManM/zcUbiDF9Qd0rq7wu90Gu21Z/CeFGpE4ZqXRx9GwmoxPGbu5Ryqx0mwqsA1mvo8h7NgXEDrrY6oea1jkQoLF5JstYADYfFPydUr+gPZJ2ru+v61neDPsjn64zCT9QtHYks19zyBtKtgC1+gcf8aTkbN3tcjAIlD5FwRsUEzj2zlOD4KhFZL6cDX0mGWFKiWE0oTuDyEZlejV0LXMcv1zSzk/nLXP6tPq2+p4O210xHfEZnggGdDR0K7woUkJFa6yu5WJrZVaHvuhwZ4KuRlyi1NP4azhLltVx1jbqOk0B5PUs9rhvUaBNp3IguSA7wYWSL8iaWhtXDnTavqpIvkD0iM+ZHLpjUozLLeLRZ58dg8+s0mqmpPrbCL5En28rjKtATAz++4vFlrpZy1E+oZH9n8Yluo12Di6AqPKnqqtzLk2GGWj+fAi1wffWN+6cm03kau4P/B/h0rbTP8JqBi1Grnr7BTPVmlmYFb0EkwjW/NdG125o6P387dhSWz6Tk1OUxKnfAoeS/yfYsX/3ptztRJGN4NmAOQzF7TpB4g+fCQqEf+nL6ebBT5AKT6vMpBfb1AgyBg3qhMfoXhYgvtNygPC3uswBLJYd/iA5QGeJv112ul97nKrxuQM1rVqmRrjHZqnFX6/C7/CqZHnwNKQ8NeVpZAZ1zcFPBMW3UWxx2Hb7jro5SjIZ+fwIQ+DdU/y1FXfEcTdxOobsax167tWQ/7pf5Cwf1UQ/1FzbVWVnvjhE2HW5JX8WWlG9ygcdmpL6syK1ol3gcDVRGrDFGXDrASfT4wcEuMyxqm/d3kaL212lPouIFuAA+323fhor8PwAGAACFVGtsFFUUPndmuu0W2poU2C0IlsaiVNgFBW1qZwbRXYIxKI+Q+mMJtRRCLNWUWUQ0LbQUgd0Qoz9smjTirMT4QEULkm0LQiVoSQm7LRCpCBSBXUxVHtEaifidOxIb/9B09px7nt953CuEQiqNfis19KeWW/dwVcUSa9X6mtKKec8smLGuckVpdW2Y8mkMibE0gSaSpgkihTSR8dRLVeE11bUWuURWAxG56R7qUogEyYg0mTQl47nKVdWFM/8zGc0Ef5JI+3xm88Qr7KhIxyJ2nF9rVdfVVtYUPltb82rhk5W16yrXkovuHmaHYAAejiQAISdjdmlVFY1tJNpYCEwPNhO9qUyV4WlR9apwTWUdUYmQVloT0QlYns9AkMaU/ZrSRDsPqasLQpbG4kz8LM8gl4Z/oJUmKrFqI6T1ycBjJISyieb0jdQIV/1V+3GAUhppzqmRGsVVbyUmsqaJli8dqVEdTZbbLcT/sCoNVmK2Oqa/afDosDptZemJeePq//p5p5rnmq9Rxk4XjQZ4Ll+jTMoiyhG5DZhZnkYSGCBwMmoQG4XYhDIFNQnaLKhZ0BZBbwjaKmiboF0I0iPomFB7BR2HhULvKMIlEJNb7aZRd5rlDAOnGXIezYJu5jhDGc/nicokuo+mCMTDiSUq/2CDBD1A91KuKNiE8wQqpmnkE82wcqn7Mb14qtWIp4o61XAiLJlYZK7hDVnlajKQxwLdHz+vR30f6Wo8ZeshSxhBTxsEZYYSThQbzKgdqRIjbWfiWwxtr67646/jENE5OlNE3yOZtN1txCL7dDVtnzSWWRf0cOIcYowz1KjvqkFUjsNVWL7oCKK+HbA6ZyQD73GWfvi2A91hWBw0EPQzwx/vgVuL0ZHqMYBwC/IfM8KJ1bA4whYBmH8NNx+s9huKN9SuBz1dhpIMZCJ6manEIoo5gpliKh2pRVCB8cdL4fmjoQQ9umRUoiUIfAWHdaBDhhqLRMHcAMB3JVVD1iHJRH0/QHjRUIOeP4CpDwLV7EjtY5DZpj/OXc82g541joBbGU8pZtoe0JHld9RVgSafQaZPy1Vv6AC0RZ3cTqZ00EUinGiTBzT7ZcngZoA2svktFDld94Y68bXzONZjcm5g2ICGBwwpCHrCENh6LLKDC/sWg7aRVoPwc+5cMdrYhfwLDK4J7VmAwrq5oAJIe9Dx6xjnBQOj/FLvSA2j0e16MjDKlIKQVYCihmBxv4noYxDMj/qDaMqjJma7AanKYdEmKQQHJJO2TzsWQc816ZK2byMtYkR9mSYHxeDwIQsLnLR/wwI4YpFfJDBvqB+Cbh52v8QOTQrBupBh2KkOTw1mYCOV25T1Bz25GAY3JBeg0CEWcMtwT0wuDDXcwhyn67yOsstBTzeYok6ugakzEV5yqL6STMj6Dmg+4fUfgHMvmn8JAo3b+ytyFSH8b6BPOwJcO1ixxXYDQ+ThtwL3UXwxxrwX2t04tEkKRLztu2G1EkJp8QQOrQg6zYkRT40DY6FMj5OFBZw2FimBAjhiEQMxejGmKgiA1BvaLKFzFqZ3qupjiHyH+xCNV3yAL+QJMBeR/HvkvM5rNYjwhLEMQug2pSAZyDeJzoCON/GoJJBnMnp8CJbFJvJ9AQBTIeCqppqAuFUysUidY5EMLJYuUd9cJ0bQMxNMPsYz08nCAk7LT5fE4Q0tkcDS9lp8QBqytoHpg7lTC72Pp88fb4FbWSfqeEEyUV8JtMfKIRjE5eO7sgsbfVtXl1kLcT3m4C1aCMV2419BO3B8AIuT3MjLOt/btP0QYmlc2AosXw5Kb5EUGPZKBu0Gyixuzk8YhILSbyDwNUYpcDiLoCr2HgvM2JmB6Sks7yngPwLTS7yee9GUmxC2SIouNUhmmfU8/K/wdsyC4AxWcxKsDvN7mg3Nx0CXjaARRxCLLMU3Cd8UjvEIWj+EwiqAcL+Oourh3whBi6RA+KFkeMGjvlZ+Wb5BUXvQlONwPcvv+mmk1ZBhAJZF/NCqJjPwFbwYeG9uQvs2r9plBMnG23EcLrPK4ctRyzo5HVOifwA=(/figma)--&gt;&quot;&gt;&lt;/span&gt;&lt;span style=&quot;&quot;&gt;58cc&lt;/span&gt;" style="ellipse;whiteSpace=wrap;html=1;aspect=fixed;" vertex="1" parent="1">
                    <mxGeometry x="870" y="270" width="60" height="60" as="geometry"/>
                </mxCell>
                <mxCell id="62" style="edgeStyle=none;html=1;entryX=0;entryY=0.5;entryDx=0;entryDy=0;" edge="1" parent="1" source="38" target="44">
                    <mxGeometry relative="1" as="geometry"/>
                </mxCell>
                <mxCell id="38" value="c9b1" style="ellipse;whiteSpace=wrap;html=1;aspect=fixed;" vertex="1" parent="1">
                    <mxGeometry x="680" y="410" width="60" height="60" as="geometry"/>
                </mxCell>
                <mxCell id="71" style="edgeStyle=none;html=1;exitX=1;exitY=1;exitDx=0;exitDy=0;entryX=0.5;entryY=0;entryDx=0;entryDy=0;" edge="1" parent="1" source="39" target="72">
                    <mxGeometry relative="1" as="geometry">
                        <mxPoint x="1200" y="580" as="targetPoint"/>
                    </mxGeometry>
                </mxCell>
                <mxCell id="81" value="" style="edgeStyle=none;html=1;" edge="1" parent="1" source="39" target="80">
                    <mxGeometry relative="1" as="geometry"/>
                </mxCell>
                <mxCell id="39" value="b941" style="ellipse;whiteSpace=wrap;html=1;aspect=fixed;" vertex="1" parent="1">
                    <mxGeometry x="1010" y="270" width="60" height="60" as="geometry"/>
                </mxCell>
                <mxCell id="44" value="c018" style="ellipse;whiteSpace=wrap;html=1;aspect=fixed;" vertex="1" parent="1">
                    <mxGeometry x="790" y="410" width="60" height="60" as="geometry"/>
                </mxCell>
                <mxCell id="68" value="" style="edgeStyle=none;html=1;" edge="1" parent="1" source="50" target="39">
                    <mxGeometry relative="1" as="geometry"/>
                </mxCell>
                <mxCell id="50" value="8b71" style="ellipse;whiteSpace=wrap;html=1;aspect=fixed;" vertex="1" parent="1">
                    <mxGeometry x="1010" y="430" width="60" height="60" as="geometry"/>
                </mxCell>
                <mxCell id="79" style="edgeStyle=none;html=1;exitX=1;exitY=0;exitDx=0;exitDy=0;" edge="1" parent="1" source="69">
                    <mxGeometry relative="1" as="geometry">
                        <mxPoint x="1470" y="610" as="targetPoint"/>
                        <Array as="points">
                            <mxPoint x="1330" y="680"/>
                        </Array>
                    </mxGeometry>
                </mxCell>
                <mxCell id="82" style="edgeStyle=none;html=1;exitX=0.667;exitY=0;exitDx=0;exitDy=0;entryX=0.5;entryY=1;entryDx=0;entryDy=0;exitPerimeter=0;" edge="1" parent="1" source="69" target="80">
                    <mxGeometry relative="1" as="geometry">
                        <Array as="points"/>
                    </mxGeometry>
                </mxCell>
                <mxCell id="69" value="&lt;span style=&quot;color: rgb(212, 212, 212); font-family: &amp;quot;Segoe WPC&amp;quot;, &amp;quot;Segoe UI&amp;quot;, sans-serif; font-size: 13px; text-align: start; background-color: rgba(128, 128, 128, 0.1);&quot;&gt;6ea3&lt;/span&gt;" style="ellipse;whiteSpace=wrap;html=1;aspect=fixed;" vertex="1" parent="1">
                    <mxGeometry x="1110" y="770" width="60" height="60" as="geometry"/>
                </mxCell>
                <mxCell id="74" value="" style="edgeStyle=none;html=1;" edge="1" parent="1" source="72" target="73">
                    <mxGeometry relative="1" as="geometry"/>
                </mxCell>
                <mxCell id="72" value="&lt;span style=&quot;color: rgb(212, 212, 212); font-family: &amp;quot;Segoe WPC&amp;quot;, &amp;quot;Segoe UI&amp;quot;, sans-serif; font-size: 13px; text-align: start; background-color: rgba(128, 128, 128, 0.1);&quot;&gt;d74c&lt;/span&gt;" style="ellipse;whiteSpace=wrap;html=1;aspect=fixed;" vertex="1" parent="1">
                    <mxGeometry x="1220" y="580" width="60" height="60" as="geometry"/>
                </mxCell>
                <mxCell id="76" value="" style="edgeStyle=none;html=1;" edge="1" parent="1" source="73" target="75">
                    <mxGeometry relative="1" as="geometry"/>
                </mxCell>
                <mxCell id="73" value="&lt;span style=&quot;color: rgb(212, 212, 212); font-family: &amp;quot;Segoe WPC&amp;quot;, &amp;quot;Segoe UI&amp;quot;, sans-serif; font-size: 13px; text-align: start; background-color: rgba(128, 128, 128, 0.1);&quot;&gt;34f1&lt;/span&gt;" style="ellipse;whiteSpace=wrap;html=1;aspect=fixed;" vertex="1" parent="1">
                    <mxGeometry x="1360" y="580" width="60" height="60" as="geometry"/>
                </mxCell>
                <mxCell id="78" value="" style="edgeStyle=none;html=1;" edge="1" parent="1" source="75">
                    <mxGeometry relative="1" as="geometry">
                        <mxPoint x="1640" y="610" as="targetPoint"/>
                    </mxGeometry>
                </mxCell>
                <mxCell id="75" value="&lt;span style=&quot;color: rgb(212, 212, 212); font-family: &amp;quot;Segoe WPC&amp;quot;, &amp;quot;Segoe UI&amp;quot;, sans-serif; font-size: 13px; text-align: start; background-color: rgba(128, 128, 128, 0.1);&quot;&gt;9431&lt;/span&gt;" style="ellipse;whiteSpace=wrap;html=1;aspect=fixed;" vertex="1" parent="1">
                    <mxGeometry x="1510" y="580" width="60" height="60" as="geometry"/>
                </mxCell>
                <mxCell id="77" value="&lt;span style=&quot;color: rgb(212, 212, 212); font-family: &amp;quot;Segoe WPC&amp;quot;, &amp;quot;Segoe UI&amp;quot;, sans-serif; font-size: 13px; text-align: start; background-color: rgba(128, 128, 128, 0.1);&quot;&gt;ef1c&lt;/span&gt;" style="ellipse;whiteSpace=wrap;html=1;aspect=fixed;" vertex="1" parent="1">
                    <mxGeometry x="1600" y="580" width="60" height="60" as="geometry"/>
                </mxCell>
                <mxCell id="86" value="" style="edgeStyle=none;html=1;" edge="1" parent="1" source="80" target="85">
                    <mxGeometry relative="1" as="geometry"/>
                </mxCell>
                <mxCell id="80" value="&lt;span style=&quot;color: rgb(212, 212, 212); font-family: &amp;quot;Segoe WPC&amp;quot;, &amp;quot;Segoe UI&amp;quot;, sans-serif; font-size: 13px; text-align: start; background-color: rgba(128, 128, 128, 0.1);&quot;&gt;4398&lt;/span&gt;" style="ellipse;whiteSpace=wrap;html=1;aspect=fixed;" vertex="1" parent="1">
                    <mxGeometry x="1245" y="270" width="60" height="60" as="geometry"/>
                </mxCell>
                <mxCell id="83" value="&lt;span style=&quot;color: rgb(212, 212, 212); font-family: &amp;quot;Segoe WPC&amp;quot;, &amp;quot;Segoe UI&amp;quot;, sans-serif; font-size: 13px; text-align: start; background-color: rgba(128, 128, 128, 0.1);&quot;&gt;6d36&lt;/span&gt;" style="ellipse;whiteSpace=wrap;html=1;aspect=fixed;" vertex="1" parent="1">
                    <mxGeometry x="1140" y="270" width="60" height="60" as="geometry"/>
                </mxCell>
                <mxCell id="88" value="" style="edgeStyle=none;html=1;" edge="1" parent="1" source="85" target="87">
                    <mxGeometry relative="1" as="geometry"/>
                </mxCell>
                <mxCell id="90" value="" style="edgeStyle=none;html=1;" edge="1" parent="1" source="85" target="89">
                    <mxGeometry relative="1" as="geometry"/>
                </mxCell>
                <mxCell id="85" value="&lt;span style=&quot;color: rgb(212, 212, 212); font-family: &amp;quot;Segoe WPC&amp;quot;, &amp;quot;Segoe UI&amp;quot;, sans-serif; font-size: 13px; text-align: start; background-color: rgba(128, 128, 128, 0.1);&quot;&gt;6b2a&lt;/span&gt;" style="ellipse;whiteSpace=wrap;html=1;aspect=fixed;" vertex="1" parent="1">
                    <mxGeometry x="1385" y="270" width="60" height="60" as="geometry"/>
                </mxCell>
                <mxCell id="87" value="&#10;&lt;span style=&quot;color: rgb(212, 212, 212); font-family: &amp;quot;Segoe WPC&amp;quot;, &amp;quot;Segoe UI&amp;quot;, sans-serif; font-size: 13px; font-style: normal; font-variant-ligatures: normal; font-variant-caps: normal; font-weight: 400; letter-spacing: normal; orphans: 2; text-align: start; text-indent: 0px; text-transform: none; widows: 2; word-spacing: 0px; -webkit-text-stroke-width: 0px; background-color: rgba(128, 128, 128, 0.1); text-decoration-thickness: initial; text-decoration-style: initial; text-decoration-color: initial; float: none; display: inline !important;&quot;&gt;892d&lt;/span&gt;&#10;&#10;" style="ellipse;whiteSpace=wrap;html=1;aspect=fixed;" vertex="1" parent="1">
                    <mxGeometry x="1385" y="410" width="60" height="60" as="geometry"/>
                </mxCell>
                <mxCell id="89" value="&#10;&lt;span style=&quot;color: rgb(212, 212, 212); font-family: &amp;quot;Segoe WPC&amp;quot;, &amp;quot;Segoe UI&amp;quot;, sans-serif; font-size: 13px; font-style: normal; font-variant-ligatures: normal; font-variant-caps: normal; font-weight: 400; letter-spacing: normal; orphans: 2; text-align: start; text-indent: 0px; text-transform: none; widows: 2; word-spacing: 0px; -webkit-text-stroke-width: 0px; background-color: rgba(128, 128, 128, 0.1); text-decoration-thickness: initial; text-decoration-style: initial; text-decoration-color: initial; float: none; display: inline !important;&quot;&gt;ee39&lt;/span&gt;&#10;&#10;" style="ellipse;whiteSpace=wrap;html=1;aspect=fixed;" vertex="1" parent="1">
                    <mxGeometry x="1530" y="270" width="60" height="60" as="geometry"/>
                </mxCell>
            </root>
        </mxGraphModel>
    </diagram>
</mxfile>